
<svg xmlns="http://www.w3.org/2000/svg" width="51.04" height="54.444" viewBox="0 0 51.04 54.444"><path d="M7.443,6.382H43.6a1.065,1.065,0,0,1,1.06,1.063v3.826H6.379V7.445A1.066,1.066,0,0,1,7.443,6.382Zm6.593-3.83a1.072,1.072,0,0,1,.85-.422H36.155A1.067,1.067,0,0,1,37,2.552l1.276,1.7H12.761l1.276-1.7ZM29.774,15.526a1.063,1.063,0,0,0,0,2.126H48.257l-1.064,2.126H3.848L2.785,17.653H21.268a1.063,1.063,0,0,0,0-2.126H4.254V13.4H46.788v2.126H29.774Zm8.5,34.665h8.509V52.32H38.279Zm-34.025,0h8.507V52.32H4.254V50.192ZM12.761,32.54H4.254V21.906h8.507Zm-8.507,8.5h8.507v7.018H4.254Zm8.507-2.124H4.254V34.667h8.507ZM25.52,28.288a4.252,4.252,0,0,1,4.254,4.252V52.32H21.268V32.54a4.255,4.255,0,0,1,4.251-4.252ZM38.279,41.045h8.509v7.018H38.279Zm0-6.38h8.509v4.254H38.279Zm8.509-2.126H38.279V21.906h8.509ZM36.155,21.906V52.32H31.9V32.54a6.38,6.38,0,0,0-5.319-6.291V25.1a1.063,1.063,0,0,0-2.126,0v1.151a6.393,6.393,0,0,0-5.315,6.291V52.32H14.887V21.906ZM4.254,11.271H3.19a1.066,1.066,0,0,0-1.064,1.066v3.19H1.064a1.064,1.064,0,0,0-.951,1.54L2.126,21.1V53.382A1.063,1.063,0,0,0,3.19,54.444H47.85a1.062,1.062,0,0,0,1.064-1.062V21.095l2.015-4.028a1.065,1.065,0,0,0-.951-1.54H48.914v-3.19a1.065,1.065,0,0,0-1.064-1.066H46.788V7.445A3.2,3.2,0,0,0,43.6,4.252H40.939L38.705,1.278A3.2,3.2,0,0,0,36.155,0H14.887a3.207,3.207,0,0,0-2.552,1.278L10.1,4.252H7.443a3.2,3.2,0,0,0-3.19,3.194v3.826Z" transform="translate(-0.001)"/></svg>