
<svg xmlns="http://www.w3.org/2000/svg" width="21.733" height="67.441"  viewBox="0 0 21.733 67.441"><path  d="M19.758,28.121H17.846V30.1h1.912v8.566H17.846v1.975h1.912v1.976H1.975V40.636h1.91V38.661H1.975V30.1h1.91V28.121H1.975V26.146H19.758ZM17.782,53.149H3.951V44.588h13.83Zm0,10.539H3.951V55.125h13.83ZM3.951,21.535h0L6.49,18.113h8.752l2.539,3.422V24.17H3.951ZM6.98,10.208h7.772v5.928H6.98Zm3.886-5.25,2.752,3.273h-5.5Zm8.892,19.211V20.88l-3.03-4.08V8.861l-4.874-5.8V0H9.877V3.065L5,8.861V16.8L1.975,20.88v3.29H0V44.59H1.975V67.441H3.951V65.663h13.83v1.778h1.977V44.589h1.975V24.169Z"/></svg>