
<svg xmlns="http://www.w3.org/2000/svg" width="45.999" height="67.853" viewBox="0 0 45.999 67.853"><path d="M25.347,65.841l11.58-15.749,5.108,7.024-3.97,3.624a1.007,1.007,0,0,0,1.359,1.487L40.776,61l2.549,4.845H25.347Zm-2.5,0H13.955v-2.61l5.138-6.849a1.008,1.008,0,0,0-1.613-1.21L12.915,61.26,9.607,57.2l8.278-10.37,4.383,1.956-1.642,2.189a1.007,1.007,0,0,0,1.611,1.21l2.1-2.8h10.6L22.84,65.833ZM22.42,43.866A8.042,8.042,0,0,0,28.467,46.6a1.007,1.007,0,1,0,0-2.015,6.054,6.054,0,0,1-6.034-5.678,6.046,6.046,0,0,1,12.08.365v8.1H24.045l-1.625-.724Zm6.046-14.8a6.057,6.057,0,0,1,5.9,4.726,8.047,8.047,0,0,0-11.8,0,6.054,6.054,0,0,1,5.9-4.723ZM3.88,13.516H2.015V12.309H12.493v1.207Zm5.743,7.357H7.131a2.246,2.246,0,0,1-2.244-2.244v-3.1H9.622v5.34ZM4.91,6.152a1.009,1.009,0,0,0,1.515-.33l1.19-2.3.681,1.9a1.008,1.008,0,0,0,1.559.464l.914-.7-.6,5.1H4.494l-.694-5,1.108.867Zm40.962,60.2-3.559-6.761L44.061,58a1.011,1.011,0,0,0,.134-1.338l-6.448-8.868a1.013,1.013,0,0,0-.815-.415h-.4V35.115a8.162,8.162,0,0,0-.107-1.3l3.063-.907a1.029,1.029,0,0,0,.741-1.134,1.006,1.006,0,0,0-1.281-.806l-3.1.918c-.082-.187-.17-.375-.266-.552l4.172-2.943a1.008,1.008,0,1,0-1.162-1.647L34.42,29.689a7.916,7.916,0,0,0-.969-.9l3.279-5.452A1.008,1.008,0,1,0,35,22.3l-3.276,5.449a7.96,7.96,0,0,0-2.255-.627V19.438a1.035,1.035,0,0,0-.975-1.051,1.009,1.009,0,0,0-1.04,1.007V27.12a8,8,0,0,0-2.255.627L21.928,22.3A1.008,1.008,0,1,0,20.2,23.338l3.278,5.452a8.034,8.034,0,0,0-.967.9L18.34,26.743a1.007,1.007,0,1,0-1.16,1.647l4.17,2.943c-.1.178-.184.365-.266.552l-3.095-.918a1.007,1.007,0,0,0-1.262.709,1.035,1.035,0,0,0,.729,1.235l3.055.9a8.214,8.214,0,0,0-.105,1.3V45.752l-1.987-.888-6.78-23.129v-6.2H13.5a1.006,1.006,0,0,0,1.007-1.006V11.3A1.007,1.007,0,0,0,13.5,10.293H12.2l.84-7.185a1.033,1.033,0,0,0-.3-.879,1.01,1.01,0,0,0-1.3-.07l-1.706,1.3L8.748.7A1.054,1.054,0,0,0,8.1.048a1.008,1.008,0,0,0-1.2.5L5.2,3.818,3.107,2.183a1.04,1.04,0,0,0-.927-.192A1.009,1.009,0,0,0,1.465,3.1l1,7.193H1.007A1.009,1.009,0,0,0,0,11.3v3.225a1.007,1.007,0,0,0,1.007,1.006H2.872v3.1a4.263,4.263,0,0,0,3.739,4.226L8.279,36.608a1.009,1.009,0,1,0,2-.242L8.644,22.889H9.876L16.47,45.377l-4.423,5.54-1.185-9.768a1.009,1.009,0,0,0-2,.242l1.425,11.735L7.524,56.582a1.006,1.006,0,0,0,.007,1.266l4.409,5.4v3.6a1.006,1.006,0,0,0,1.008,1.006H44.993a1.008,1.008,0,0,0,.96-.7,1.041,1.041,0,0,0-.081-.806Z" transform="translate(0 -0.001)"/></svg>