<svg xmlns="http://www.w3.org/2000/svg" width="30" height="30" viewBox="0 0 30 30"><path d="M18.375,3.375a15,15,0,1,0,15,15A15,15,0,0,0,18.375,3.375ZM16.821,31.139A12.859,12.859,0,0,1,8.59,10.034a14.247,14.247,0,0,1,.145,1.743c-.118,1.716-.288,2.79.717,4.238a6.992,6.992,0,0,1,.678,2.025c.186.639.93.973,1.444,1.367,1.036.794,2.026,1.717,3.124,2.415.725.461,1.177.691.965,1.575a5.588,5.588,0,0,1-.586,1.783,3.614,3.614,0,0,0,.6,1.615c.541.541,1.077,1.037,1.667,1.523C18.259,29.073,17.257,30.054,16.821,31.139Zm10.645-3.673a12.765,12.765,0,0,1-6.675,3.539,5.333,5.333,0,0,1,1.579-2.117,5.372,5.372,0,0,0,1.42-1.756,12.2,12.2,0,0,1,.979-1.674c.509-.786-1.256-1.971-1.828-2.22a18.848,18.848,0,0,1-3.4-2.118c-.815-.574-2.47.3-3.391-.1a17.742,17.742,0,0,1-3.4-2.332c-1.131-.852-1.076-1.844-1.076-3.1.886.033,2.146-.245,2.734.467.186.225.824,1.229,1.251.872.349-.292-.259-1.46-.376-1.735-.361-.845.822-1.174,1.428-1.747.79-.747,2.486-1.92,2.352-2.455s-1.7-2.054-2.614-1.817c-.138.035-1.348,1.305-1.582,1.5q.009-.622.019-1.243c0-.262-.488-.53-.465-.7.058-.426,1.245-1.2,1.54-1.54-.207-.129-.913-.736-1.127-.647-.517.216-1.1.364-1.619.58a3.293,3.293,0,0,0-.048-.514,12.734,12.734,0,0,1,3.268-.948l1.016.408.717.851.716.738.626.2.994-.937-.256-.669v-.6A12.717,12.717,0,0,1,25.7,7.8c-.291.026-.61.069-.971.115a3.232,3.232,0,0,0-.5-.189c.471,1.013.962,2.011,1.461,3.011.533,1.067,1.716,2.212,1.924,3.339.245,1.328.075,2.534.209,4.1a7,7,0,0,0,1.7,3.214,3.4,3.4,0,0,0,1.326.161A12.778,12.778,0,0,1,27.466,27.466Z" transform="translate(-3.375 -3.375)" fill="#24b354"/></svg>