<svg xmlns="http://www.w3.org/2000/svg" width="616.287" height="530.621" viewBox="0 0 616.287 530.621">
  <path id="Path_11092" data-name="Path 11092" d="M960.236,177.443C814.061,236.129,773.23,452.957,701.209,594c-23.214,45.483-45.755,66.653-84.47,66.653-21.679,0-48.994-13.053-60.826-32.709L363.366,308.524C263.207,142.377,590.454,105.76,783.62,146.006c-57.212,24.817-99.971,68.691-157.951,233.472-3.539,10.061-12.525,16.476-23.214,17.205a26.31,26.31,0,0,1-25.349-13.9L521.28,280.49q-12.02-22.723-20.238-32c-5.561-6.1-14.321-8.191-26.153-6.3a33.853,33.853,0,0,0-16.363,7.256,34.981,34.981,0,0,0-10.391,13.746,28.017,28.017,0,0,0-2.171,15.3,45.8,45.8,0,0,0,3.482,11A109.109,109.109,0,0,0,455.7,301.6c2.266,3.946,4.55,7.91,6.834,11.857l94.879,157.692c9.379,15.111,16.025,25.247,19.769,30.241a46.35,46.35,0,0,0,15.764,13.091c6.815,3.684,15.238,4.731,25.367,3.123,7.882-1.234,14.248-3.815,19.339-7.649a40.394,40.394,0,0,0,11.888-14.625C754.883,279.237,745.785,156.853,960.236,177.443Z" transform="translate(-344.135 -130.536)" fill="#fff" stroke="#24b354" stroke-width="1" fill-rule="evenodd" opacity="0.1"/>
</svg>
