<svg xmlns="http://www.w3.org/2000/svg" width="896.721" height="772.694" viewBox="0 0 896.721 772.694">
  <path id="Path_7632" data-name="Path 7632" d="M344.735,198.654C557.5,284.163,616.931,600.1,721.761,805.612c33.789,66.272,66.6,97.117,122.95,97.117,31.555,0,71.312-19.02,88.534-47.659l280.262-465.423c145.786-242.086-330.538-295.441-611.7-236.8,83.275,36.16,145.513,100.088,229.905,340.185,5.151,14.66,18.231,24.007,33.79,25.069a38.287,38.287,0,0,0,36.9-20.246L983.657,348.8q17.5-33.108,29.458-46.624c8.094-8.883,20.845-11.935,38.066-9.183A49.251,49.251,0,0,1,1075,303.565a50.964,50.964,0,0,1,15.124,20.028c3.188,7.739,4.3,15.123,3.16,22.29a66.781,66.781,0,0,1-5.068,16.023,159.044,159.044,0,0,1-9.1,17.658c-3.3,5.75-6.622,11.526-9.947,17.276l-138.1,229.769c-13.651,22.018-23.325,36.787-28.775,44.063-5.451,7.412-13.135,13.815-22.945,19.075-9.919,5.369-22.18,6.894-36.923,4.55-11.472-1.8-20.738-5.559-28.149-11.145a58.843,58.843,0,0,1-17.3-21.309C643.636,346.974,656.879,168.652,344.735,198.654Z" transform="translate(-344.549 -130.535)" fill="none" stroke="#24b354" stroke-width="1" fill-rule="evenodd" opacity="0.4"/>
</svg>
