<svg xmlns="http://www.w3.org/2000/svg" width="261.99" height="529.319" viewBox="0 0 261.99 529.319">
  <path id="Subtraction_2" data-name="Subtraction 2" d="M19669-9503.329h0a79.224,79.224,0,0,1-14.494-4.085,84.174,84.174,0,0,1-13.906-6.879c-9.309-5.74-16.715-12.906-21.42-20.723l-192.547-319.423a149.748,149.748,0,0,1-12.768-26.327,97.691,97.691,0,0,1-5.527-24.014,73.7,73.7,0,0,1,1.148-21.753,70.564,70.564,0,0,1,7.256-19.549,87.279,87.279,0,0,1,15.055-19.711,129.18,129.18,0,0,1,21.453-16.978c15.713-10.082,35.469-18.852,58.721-26.065,21.9-6.794,46.854-12.2,74.172-16.077a731.918,731.918,0,0,1,82.857-6.722l0,264.943a29.488,29.488,0,0,1-3.279.409c-.646.044-1.307.066-1.961.066a27.163,27.163,0,0,1-7.143-.942,25.9,25.9,0,0,1-6.449-2.733,26.078,26.078,0,0,1-5.5-4.386,27.776,27.776,0,0,1-4.295-5.9l-55.83-102.3c-7.979-15.085-14.787-25.851-20.234-32-4.219-4.627-10.363-6.974-18.26-6.974a50.439,50.439,0,0,0-7.9.673,33.634,33.634,0,0,0-16.361,7.255,35.119,35.119,0,0,0-10.391,13.742,27.8,27.8,0,0,0-2.168,15.3,45.464,45.464,0,0,0,3.48,11,107.633,107.633,0,0,0,6.25,12.116c2.646,4.61,4.818,8.378,6.834,11.857l94.881,157.69c9.121,14.7,15.957,25.156,19.771,30.242a46.369,46.369,0,0,0,15.76,13.09,32.79,32.79,0,0,0,12.789,3.689Z" transform="translate(-19407.51 10032.148)" fill="#fff" stroke="#24b354" stroke-width="1" opacity="0.1"/>
</svg>
