<svg xmlns="http://www.w3.org/2000/svg" width="278.998" height="669.849" viewBox="0 0 278.998 669.849">
  <path id="Subtraction_1" data-name="Subtraction 1" d="M20166,3750.743V3518.558l106.541-177.257c3.777-6.534,6.938-12.024,9.943-17.278a157.511,157.511,0,0,0,9.1-17.654,66.767,66.767,0,0,0,5.068-16.023,36.4,36.4,0,0,0,.045-10.931,47.964,47.964,0,0,0-3.209-11.357,51.1,51.1,0,0,0-15.121-20.033,49.026,49.026,0,0,0-23.816-10.569,73.334,73.334,0,0,0-11.492-.98c-11.488,0-20.43,3.418-26.576,10.16a146.674,146.674,0,0,0-13.35,18.419c-4.883,7.732-10.3,17.222-16.107,28.207L20166,3331.836V3083.258a800.292,800.292,0,0,1,90.734,16.029c29.137,7.027,55.484,15.547,78.313,25.323a313.1,313.1,0,0,1,32.875,16.3,221.418,221.418,0,0,1,27.816,18.806,156.971,156.971,0,0,1,22.115,21.373,117.961,117.961,0,0,1,15.758,24,101.756,101.756,0,0,1,8.938,27.743,109.539,109.539,0,0,1,.678,30.705,145.841,145.841,0,0,1-8.316,33.736,220.235,220.235,0,0,1-18.029,36.834L20166,3750.743Z" transform="translate(-20165.502 -3082.694)" fill="none" stroke="#24b354" stroke-width="1" opacity="0.4"/>
</svg>
