<svg xmlns="http://www.w3.org/2000/svg" width="150" height="108.723" viewBox="0 0 150 108.723">
  <g id="Layer_2_copy" data-name="Layer 2 copy" transform="translate(0)">
    <g id="Layer_1" data-name="Layer 1" transform="translate(0 0)">
      <path id="Path_6384" data-name="Path 6384" d="M829.647,590.539a2.169,2.169,0,1,1,2.141-2.169,2.169,2.169,0,0,1-2.141,2.169Zm0-3.719a1.55,1.55,0,1,0,1.522,1.55,1.55,1.55,0,0,0-1.522-1.55Z" transform="translate(-684.559 -524.056)" fill="#bfbfbf"/>
      <path id="Path_6385" data-name="Path 6385" d="M232.863,627.372a2.947,2.947,0,1,1,2.08-.877A2.966,2.966,0,0,1,232.863,627.372Zm0-5.312a2.346,2.346,0,1,0,2.309,2.343A2.346,2.346,0,0,0,232.863,622.06Z" transform="translate(-229.86 -551.102)" fill="#bfbfbf"/>
      <path id="Path_6386" data-name="Path 6386" d="M555.222,451.04a1.19,1.19,0,1,1,1.178-1.19,1.19,1.19,0,0,1-1.178,1.19Zm0-2.024a.834.834,0,1,0,.818.834.834.834,0,0,0-.818-.834Z" transform="translate(-475.938 -419.339)" fill="#fff"/>
      <path id="Path_6387" data-name="Path 6387" d="M284.328,334.418H241.592a.317.317,0,0,1-.282-.452c.093-.2,2.355-4.983,9.337-6.7,5.343-1.311,8.327.161,11.776,1.859,1.1.542,2.244,1.106,3.536,1.618,2.814,1.109,5.107.62,7.326.164a12.157,12.157,0,0,1,6.167-.174c4.81,1.373,5.154,3.121,5.179,3.316a.339.339,0,0,1-.3.366Zm-42.209-.62h41.726c-.359-.527-1.432-1.549-4.559-2.448a11.509,11.509,0,0,0-5.87.186c-2.309.483-4.7.986-7.679-.2-1.317-.521-2.479-1.091-3.586-1.639-3.344-1.649-6.232-3.074-11.358-1.816a13.769,13.769,0,0,0-8.671,5.913Z" transform="translate(-237.74 -326.765)" fill="#bfbfbf"/>
      <path id="Path_6388" data-name="Path 6388" d="M700.814,388.594h-22.1a.31.31,0,0,1-.288-.418,7.707,7.707,0,0,1,4.921-4.292c2.839-.846,4.41.1,6.232,1.19.567.341,1.153.691,1.816,1.01a4.82,4.82,0,0,0,3.666.093,5.376,5.376,0,0,1,3.291-.108c2.569.9,2.758,2.055,2.771,2.169a.333.333,0,0,1-.31.356Zm-21.607-.62h21.117a4.453,4.453,0,0,0-2.169-1.32,4.831,4.831,0,0,0-2.935.121,5.413,5.413,0,0,1-4.091-.133c-.688-.332-1.286-.691-1.859-1.038-1.766-1.057-3.158-1.894-5.736-1.125a7.27,7.27,0,0,0-4.323,3.5Z" transform="translate(-574.077 -365.957)" fill="#bfbfbf"/>
      <path id="Path_6389" data-name="Path 6389" d="M376.01,774.47H231.365a.465.465,0,1,1,0-.93H376.01a.465.465,0,0,1,0,.93Z" transform="translate(-230.578 -665.746)" fill="#777171"/>
      <path id="Path_6390" data-name="Path 6390" d="M722.633,774.47h-11.8a.465.465,0,1,1,0-.93h11.8a.465.465,0,1,1,0,.93Z" transform="translate(-596.539 -665.746)" fill="#777171"/>
      <path id="Path_6391" data-name="Path 6391" d="M787.127,774.47H759.855a.465.465,0,0,1,0-.93h27.272a.465.465,0,0,1,0,.93Z" transform="translate(-637.591 -665.746)" fill="#777171"/>
      <path id="Path_6392" data-name="Path 6392" d="M340.085,499.7l-15.805,81.676a2.69,2.69,0,0,0,2.64,3.2h8.333Z" transform="translate(-301.996 -476.771)" fill="#bfbfbf"/>
      <path id="Path_6393" data-name="Path 6393" d="M352.6,497.988l-10.469,80.194a4.441,4.441,0,0,0,4.4,5.017H361.9l-8.662-85.5Z" transform="translate(-315.846 -475.391)" fill="#e5e5e5"/>
      <path id="Path_6394" data-name="Path 6394" d="M365.546,498.63l-4.686,79.683a5.225,5.225,0,0,0,5.213,5.529h22.911Z" transform="translate(-330.717 -476.033)" fill="#afafaf"/>
      <path id="Path_6395" data-name="Path 6395" d="M375.44,500.73l2.278,79.026a5.225,5.225,0,0,0,5.213,5.529h22.911Z" transform="translate(-342.113 -477.482)" fill="#bfbfbf"/>
      <path id="Path_6396" data-name="Path 6396" d="M487.192,583.062H396.858a4.673,4.673,0,0,1-4.6-3.83l-13.745-75.175a5.557,5.557,0,0,1,5.467-6.558h89.272a4.67,4.67,0,0,1,4.6,3.83L491.8,577.549a4.673,4.673,0,0,1-4.605,5.513Z" transform="translate(-357.085 -475.253)" fill="#fff"/>
      <path id="Path_6397" data-name="Path 6397" d="M486.694,582.811H396.359a4.906,4.906,0,0,1-4.825-4.029L377.8,503.618a5.792,5.792,0,0,1,5.7-6.818h89.265a4.9,4.9,0,0,1,4.822,4.029l13.946,76.218a4.906,4.906,0,0,1-4.825,5.786ZM383.5,497.249a5.324,5.324,0,0,0-5.237,6.285L392,578.705a4.438,4.438,0,0,0,4.367,3.641h90.325a4.438,4.438,0,0,0,4.367-5.237l-13.937-76.218a4.438,4.438,0,0,0-4.367-3.641Z" transform="translate(-356.609 -474.77)" fill="#999"/>
      <path id="Path_6398" data-name="Path 6398" d="M377.052,513.82H435.8l-1.507-14.191c-.129-1.233-.76-2.13-1.5-2.129h-56.9a.461.461,0,0,0-.383.3,1.308,1.308,0,0,0-.107.7Z" transform="translate(-330.292 -457.772)" fill="#02d79c"/>
      <path id="Path_6399" data-name="Path 6399" d="M382.339,483.72A4.339,4.339,0,0,0,378,488.059h.831a3.5,3.5,0,1,1,4.646,3.307,3.438,3.438,0,0,1-.945.189v.831a4.228,4.228,0,0,0,1.106-.2,4.339,4.339,0,0,0-1.308-8.46Z" transform="translate(-342.664 -446.489)" fill="#05f"/>
      <path id="Path_6400" data-name="Path 6400" d="M392.212,508.135a.959.959,0,0,1-.034.251.93.93,0,1,1-.161-.824.955.955,0,0,1,.2.573Z" transform="translate(-351.664 -463.753)" fill="#05f"/>
      <path id="Path_6401" data-name="Path 6401" d="M432.469,483.72a4.339,4.339,0,0,0-4.339,4.339h.831a3.5,3.5,0,1,1,4.645,3.307,3.439,3.439,0,0,1-.945.189v.831a4.229,4.229,0,0,0,1.106-.2,4.339,4.339,0,0,0-1.3-8.46Z" transform="translate(-380.837 -446.489)" fill="#05f"/>
      <path id="Path_6402" data-name="Path 6402" d="M442.312,508.135a.959.959,0,0,1-.034.251.93.93,0,1,1-.161-.824.954.954,0,0,1,.2.573Z" transform="translate(-389.687 -463.753)" fill="#05f"/>
      <path id="Path_6403" data-name="Path 6403" d="M482.569,483.72a4.339,4.339,0,0,0-4.339,4.339h.831a3.5,3.5,0,0,1,7,0,3.455,3.455,0,0,1-.18,1.109,3.508,3.508,0,0,1-2.169,2.2,3.411,3.411,0,0,1-.945.189v.831a4.2,4.2,0,0,0,1.106-.2,4.339,4.339,0,0,0-1.3-8.46Z" transform="translate(-418.987 -446.489)" fill="#05f"/>
      <path id="Path_6404" data-name="Path 6404" d="M492.409,508.144a.959.959,0,0,1-.034.251.93.93,0,1,1,.034-.251Z" transform="translate(-427.707 -463.762)" fill="#05f"/>
      <path id="Path_6405" data-name="Path 6405" d="M532.669,483.72a4.339,4.339,0,0,0-4.339,4.339h.827a3.5,3.5,0,0,1,7,0,3.452,3.452,0,0,1-.18,1.109,3.508,3.508,0,0,1-2.169,2.2,3.393,3.393,0,0,1-.93.189v.831a4.248,4.248,0,0,0,1.109-.2,4.339,4.339,0,0,0,2.879-3.022,4.219,4.219,0,0,0,.146-1.109A4.339,4.339,0,0,0,532.669,483.72Z" transform="translate(-457.143 -446.489)" fill="#05f"/>
      <path id="Path_6406" data-name="Path 6406" d="M542.358,508.083a1.108,1.108,0,0,1-.031.251.964.964,0,1,1,.031-.251Z" transform="translate(-465.571 -463.701)" fill="#05f"/>
      <path id="Path_6407" data-name="Path 6407" d="M582.769,483.72a4.339,4.339,0,0,0-4.339,4.339h.831a3.5,3.5,0,0,1,7,0,3.455,3.455,0,0,1-.18,1.109,3.5,3.5,0,0,1-2.169,2.2,3.391,3.391,0,0,1-.93.189v.831a4.226,4.226,0,0,0,1.109-.2,4.339,4.339,0,0,0-1.308-8.46Z" transform="translate(-495.289 -446.489)" fill="#05f"/>
      <path id="Path_6408" data-name="Path 6408" d="M592.458,508.083a1.112,1.112,0,0,1-.031.251.964.964,0,1,1,.031-.251Z" transform="translate(-503.594 -463.701)" fill="#05f"/>
      <path id="Path_6409" data-name="Path 6409" d="M632.879,483.72a4.339,4.339,0,0,0-4.339,4.339h.831a3.5,3.5,0,1,1,4.646,3.307,3.409,3.409,0,0,1-.945.189v.831a4.228,4.228,0,0,0,1.106-.2,4.339,4.339,0,0,0-1.3-8.46Z" transform="translate(-533.443 -446.489)" fill="#05f"/>
      <path id="Path_6410" data-name="Path 6410" d="M642.722,508.135a.963.963,0,0,1-.034.251.93.93,0,1,1-.161-.824.955.955,0,0,1,.2.573Z" transform="translate(-541.785 -463.753)" fill="#05f"/>
      <path id="Path_6411" data-name="Path 6411" d="M682.979,483.72a4.339,4.339,0,0,0-4.339,4.339h.831a3.5,3.5,0,0,1,7,0,3.455,3.455,0,0,1-.18,1.109,3.508,3.508,0,0,1-2.169,2.2,3.411,3.411,0,0,1-.945.189v.831a4.2,4.2,0,0,0,1.106-.2,4.339,4.339,0,0,0-1.3-8.46Z" transform="translate(-571.594 -446.489)" fill="#05f"/>
      <path id="Path_6412" data-name="Path 6412" d="M692.859,508.143a.961.961,0,0,1-.034.251.93.93,0,1,1,.034-.251Z" transform="translate(-579.836 -463.761)" fill="#05f"/>
      <path id="Path_6413" data-name="Path 6413" d="M422.678,580.413h-2.169a.583.583,0,0,1-.545-.456l-.418-2.169a.369.369,0,0,1,.369-.459h2.169a.586.586,0,0,1,.545.459l.418,2.169a.366.366,0,0,1-.369.456Z" transform="translate(-373.926 -517.147)" fill="#02d79c"/>
      <path id="Path_6414" data-name="Path 6414" d="M554.6,620.23H549.55a1.351,1.351,0,0,1-1.264-1.063l-.973-5.048a.852.852,0,0,1,.855-1.06h5.048a1.351,1.351,0,0,1,1.268,1.06l.973,5.048a.852.852,0,0,1-.855,1.063Z" transform="translate(-471.519 -544.912)" fill="#05f"/>
      <path id="Path_6415" data-name="Path 6415" d="M595.711,620.23h-5.048a1.351,1.351,0,0,1-1.264-1.063l-.976-5.048a.852.852,0,0,1,.858-1.06h5.048a1.358,1.358,0,0,1,1.268,1.06l.973,5.048a.855.855,0,0,1-.858,1.063Z" transform="translate(-502.817 -544.912)" fill="#e5e5e5"/>
      <path id="Path_6416" data-name="Path 6416" d="M636.832,620.23h-5.048a1.354,1.354,0,0,1-1.268-1.063l-.973-5.048a.852.852,0,0,1,.855-1.06h5.051a1.351,1.351,0,0,1,1.264,1.06l.976,5.048a.855.855,0,0,1-.858,1.063Z" transform="translate(-534.122 -544.912)" fill="#e5e5e5"/>
      <path id="Path_6417" data-name="Path 6417" d="M431.24,620.23h-5.051a1.351,1.351,0,0,1-1.264-1.063l-.979-5.048a.855.855,0,0,1,.858-1.06h5.048a1.351,1.351,0,0,1,1.267,1.06l.973,5.048a.852.852,0,0,1-.852,1.063Z" transform="translate(-377.599 -544.912)" fill="#e5e5e5"/>
      <path id="Path_6418" data-name="Path 6418" d="M472.361,620.23h-5.048a1.357,1.357,0,0,1-1.268-1.063l-.973-5.048a.852.852,0,0,1,.858-1.06h5.048a1.358,1.358,0,0,1,1.268,1.06l.973,5.048a.855.855,0,0,1-.858,1.063Z" transform="translate(-408.909 -544.912)" fill="#e5e5e5"/>
      <path id="Path_6419" data-name="Path 6419" d="M513.482,620.23h-5.048a1.351,1.351,0,0,1-1.268-1.063l-.973-5.048a.852.852,0,0,1,.855-1.06H512.1a1.351,1.351,0,0,1,1.264,1.06l.976,5.048a.855.855,0,0,1-.858,1.063Z" transform="translate(-440.214 -544.912)" fill="#e5e5e5"/>
      <path id="Path_6420" data-name="Path 6420" d="M677.951,620.23H672.9a1.351,1.351,0,0,1-1.264-1.063l-.973-5.048a.852.852,0,0,1,.855-1.06h5.048a1.351,1.351,0,0,1,1.268,1.06l.973,5.048a.852.852,0,0,1-.855,1.063Z" transform="translate(-565.426 -544.912)" fill="#e5e5e5"/>
      <path id="Path_6421" data-name="Path 6421" d="M547.771,584.84h-5.048a1.354,1.354,0,0,1-1.268-1.063l-.973-5.048a.852.852,0,0,1,.855-1.06h5.052a1.351,1.351,0,0,1,1.264,1.06l.976,5.048a.855.855,0,0,1-.858,1.063Z" transform="translate(-466.319 -517.946)" fill="#e5e5e5"/>
      <path id="Path_6422" data-name="Path 6422" d="M588.892,584.84H583.84a1.351,1.351,0,0,1-1.264-1.063l-.973-5.048a.852.852,0,0,1,.855-1.06h5.048a1.351,1.351,0,0,1,1.268,1.06l.973,5.048a.852.852,0,0,1-.855,1.063Z" transform="translate(-497.624 -517.946)" fill="#e5e5e5"/>
      <path id="Path_6423" data-name="Path 6423" d="M630,584.84h-5.051a1.351,1.351,0,0,1-1.264-1.063l-.976-5.048a.852.852,0,0,1,.858-1.06h5.048a1.357,1.357,0,0,1,1.268,1.06l.973,5.048A.852.852,0,0,1,630,584.84Z" transform="translate(-528.922 -517.946)" fill="#e5e5e5"/>
      <path id="Path_6424" data-name="Path 6424" d="M671.121,584.84h-5.048a1.354,1.354,0,0,1-1.268-1.063l-.973-5.048a.852.852,0,0,1,.855-1.06h5.067a1.351,1.351,0,0,1,1.264,1.06l.976,5.048a.855.855,0,0,1-.874,1.063Z" transform="translate(-560.229 -517.946)" fill="#e5e5e5"/>
      <path id="Path_6425" data-name="Path 6425" d="M561.832,657.74h-5.048a1.357,1.357,0,0,1-1.268-1.063l-.973-5.045a.855.855,0,0,1,.855-1.063h5.052a1.354,1.354,0,0,1,1.264,1.063l.976,5.048a.855.855,0,0,1-.858,1.06Z" transform="translate(-477.024 -573.494)" fill="#e5e5e5"/>
      <path id="Path_6426" data-name="Path 6426" d="M602.95,657.74h-5.033a1.351,1.351,0,0,1-1.267-1.063l-.989-5.045a.852.852,0,0,1,.855-1.063h5.051a1.354,1.354,0,0,1,1.264,1.063l.973,5.045a.852.852,0,0,1-.855,1.063Z" transform="translate(-508.326 -573.493)" fill="#e5e5e5"/>
      <path id="Path_6427" data-name="Path 6427" d="M644.065,657.74h-5.052a1.351,1.351,0,0,1-1.264-1.063l-.976-5.045a.855.855,0,0,1,.859-1.063h5.048a1.354,1.354,0,0,1,1.274,1.063l.973,5.048a.852.852,0,0,1-.862,1.06Z" transform="translate(-539.627 -573.494)" fill="#e5e5e5"/>
      <path id="Path_6428" data-name="Path 6428" d="M438.482,657.74h-5.048a1.354,1.354,0,0,1-1.268-1.063l-.973-5.045a.855.855,0,0,1,.855-1.063H437.1a1.354,1.354,0,0,1,1.264,1.063l.976,5.048a.855.855,0,0,1-.858,1.06Z" transform="translate(-383.116 -573.494)" fill="#e5e5e5"/>
      <path id="Path_6429" data-name="Path 6429" d="M479.6,657.74h-5.048a1.351,1.351,0,0,1-1.268-1.063l-.973-5.045a.852.852,0,0,1,.855-1.063h5.051a1.354,1.354,0,0,1,1.264,1.063l.973,5.048a.852.852,0,0,1-.855,1.06Z" transform="translate(-414.419 -573.493)" fill="#e5e5e5"/>
      <path id="Path_6430" data-name="Path 6430" d="M520.712,657.74H515.66a1.351,1.351,0,0,1-1.264-1.063l-.973-5.045a.855.855,0,0,1,.858-1.063h5.048a1.357,1.357,0,0,1,1.267,1.063l.973,5.048a.852.852,0,0,1-.858,1.06Z" transform="translate(-445.719 -573.494)" fill="#e5e5e5"/>
      <path id="Path_6431" data-name="Path 6431" d="M685.216,657.74h-5.048a1.357,1.357,0,0,1-1.268-1.063l-.958-5.045a.855.855,0,0,1,.859-1.063h5.03a1.36,1.36,0,0,1,1.271,1.063l.973,5.048a.855.855,0,0,1-.858,1.06Z" transform="translate(-570.966 -573.494)" fill="#e5e5e5"/>
      <path id="Path_6432" data-name="Path 6432" d="M569.07,695.243h-5.051a1.351,1.351,0,0,1-1.264-1.063l-.973-5.048a.852.852,0,0,1,.855-1.063h5.048a1.354,1.354,0,0,1,1.274,1.063l.973,5.048a.852.852,0,0,1-.862,1.063Z" transform="translate(-482.534 -606.763)" fill="#e5e5e5"/>
      <path id="Path_6433" data-name="Path 6433" d="M610.219,695.243h-5.052a1.351,1.351,0,0,1-1.264-1.063l-.961-5.048a.855.855,0,0,1,.858-1.063h5.03a1.357,1.357,0,0,1,1.267,1.063l.973,5.048a.852.852,0,0,1-.852,1.063Z" transform="translate(-513.868 -606.763)" fill="#e5e5e5"/>
      <path id="Path_6434" data-name="Path 6434" d="M651.3,695.244h-5.048a1.354,1.354,0,0,1-1.268-1.063l-.973-5.048a.855.855,0,0,1,.855-1.063h5.051a1.354,1.354,0,0,1,1.264,1.063l.976,5.048a.855.855,0,0,1-.858,1.063Z" transform="translate(-545.138 -606.763)" fill="#e5e5e5"/>
      <path id="Path_6435" data-name="Path 6435" d="M445.71,695.243h-5.051a1.351,1.351,0,0,1-1.264-1.063l-.973-5.048a.852.852,0,0,1,.855-1.063h5.048a1.354,1.354,0,0,1,1.267,1.063l.973,5.048a.852.852,0,0,1-.855,1.063Z" transform="translate(-388.618 -606.763)" fill="#e5e5e5"/>
      <path id="Path_6436" data-name="Path 6436" d="M486.835,695.243h-5.051a1.351,1.351,0,0,1-1.264-1.063l-.976-5.048a.855.855,0,0,1,.858-1.063h5.048a1.36,1.36,0,0,1,1.268,1.063l.973,5.048a.852.852,0,0,1-.855,1.063Z" transform="translate(-419.926 -606.763)" fill="#e5e5e5"/>
      <path id="Path_6437" data-name="Path 6437" d="M527.986,695.244h-5.033a1.354,1.354,0,0,1-1.268-1.063l-.973-5.048a.855.855,0,0,1,.855-1.063h5.051a1.354,1.354,0,0,1,1.265,1.063l.958,5.048a.855.855,0,0,1-.855,1.063Z" transform="translate(-451.267 -606.763)" fill="#e5e5e5"/>
      <path id="Path_6438" data-name="Path 6438" d="M692.42,695.243h-5.048a1.351,1.351,0,0,1-1.267-1.063l-.973-5.048a.852.852,0,0,1,.855-1.063h5.051a1.354,1.354,0,0,1,1.264,1.063l.973,5.048a.852.852,0,0,1-.855,1.063Z" transform="translate(-576.44 -606.763)" fill="#e5e5e5"/>
      <path id="Path_6439" data-name="Path 6439" d="M575.895,730.633h-5.051a1.351,1.351,0,0,1-1.264-1.063l-.976-5.048a.855.855,0,0,1,.859-1.063h5.048a1.357,1.357,0,0,1,1.268,1.063l.989,5.048a.852.852,0,0,1-.871,1.063Z" transform="translate(-487.73 -631.185)" fill="#e5e5e5"/>
      <path id="Path_6440" data-name="Path 6440" d="M617,730.633h-5.051a1.354,1.354,0,0,1-1.268-1.063l-.973-5.048a.852.852,0,0,1,.855-1.063h5.051a1.351,1.351,0,0,1,1.264,1.063l.976,5.048a.855.855,0,0,1-.855,1.063Z" transform="translate(-519.023 -631.185)" fill="#e5e5e5"/>
      <path id="Path_6441" data-name="Path 6441" d="M658.13,730.633h-5.048a1.351,1.351,0,0,1-1.268-1.063l-.973-5.048a.852.852,0,0,1,.855-1.063h5.064a1.351,1.351,0,0,1,1.268,1.063L659,729.57a.852.852,0,0,1-.871,1.063Z" transform="translate(-550.338 -631.185)" fill="#e5e5e5"/>
      <path id="Path_6442" data-name="Path 6442" d="M452.542,730.633h-5.048a1.351,1.351,0,0,1-1.264-1.063l-.976-5.048a.855.855,0,0,1,.858-1.063h5.048a1.357,1.357,0,0,1,1.268,1.063l.973,5.048a.855.855,0,0,1-.858,1.063Z" transform="translate(-393.82 -631.185)" fill="#e5e5e5"/>
      <path id="Path_6443" data-name="Path 6443" d="M493.675,730.633h-5.064a1.354,1.354,0,0,1-1.268-1.063l-.973-5.048a.852.852,0,0,1,.855-1.063h5.051a1.351,1.351,0,0,1,1.264,1.063l.976,5.048a.855.855,0,0,1-.843,1.063Z" transform="translate(-425.123 -631.185)" fill="#e5e5e5"/>
      <path id="Path_6444" data-name="Path 6444" d="M534.78,730.633h-5.052a1.351,1.351,0,0,1-1.264-1.063l-.973-5.048a.852.852,0,0,1,.855-1.063h5.048a1.351,1.351,0,0,1,1.267,1.063l.973,5.048a.852.852,0,0,1-.855,1.063Z" transform="translate(-456.428 -631.185)" fill="#e5e5e5"/>
      <path id="Path_6445" data-name="Path 6445" d="M448.478,579.256H435.1a.359.359,0,0,1-.359-.359h0a.359.359,0,0,1,.359-.356h13.379a.36.36,0,0,1,.356.356h0A.359.359,0,0,1,448.478,579.256Z" transform="translate(-386.319 -517.767)" fill="#02d79c"/>
      <path id="Path_6446" data-name="Path 6446" d="M449.788,584.479H436.409a.359.359,0,0,1-.359-.359h0a.359.359,0,0,1,.359-.359h13.379a.36.36,0,0,1,.356.36h0a.359.359,0,0,1-.356.359Z" transform="translate(-387.32 -521.728)" fill="#02d79c"/>
      <path id="Path_6447" data-name="Path 6447" d="M421.059,538.877h-4.577a.685.685,0,0,1-.682-.685h0a.685.685,0,0,1,.682-.682h4.593a.685.685,0,0,1,.682.682h0a.685.685,0,0,1-.7.685Z" transform="translate(-371.258 -486.709)" fill="#fff"/>
      <path id="Path_6448" data-name="Path 6448" d="M461.671,538.877h-4.59a.685.685,0,0,1-.682-.685h0a.685.685,0,0,1,.682-.682h4.59a.685.685,0,0,1,.685.682h0a.685.685,0,0,1-.685.685Z" transform="translate(-402.132 -486.709)" fill="#fff"/>
      <path id="Path_6449" data-name="Path 6449" d="M502.315,538.877h-4.59a.688.688,0,0,1-.685-.685h0a.688.688,0,0,1,.685-.682h4.59a.685.685,0,0,1,.685.682h0A.685.685,0,0,1,502.315,538.877Z" transform="translate(-433.037 -486.709)" fill="#fff"/>
      <path id="Path_6450" data-name="Path 6450" d="M542.965,538.877h-4.59a.685.685,0,0,1-.685-.685h0a.685.685,0,0,1,.685-.682h4.59a.688.688,0,0,1,.685.682h0A.688.688,0,0,1,542.965,538.877Z" transform="translate(-463.95 -486.709)" fill="#fff"/>
      <path id="Path_6451" data-name="Path 6451" d="M583.615,538.877h-4.593a.685.685,0,0,1-.682-.685h0a.685.685,0,0,1,.682-.682h4.593a.685.685,0,0,1,.682.682h0A.685.685,0,0,1,583.615,538.877Z" transform="translate(-494.862 -486.709)" fill="#fff"/>
      <path id="Path_6452" data-name="Path 6452" d="M624.255,538.877h-4.59a.688.688,0,0,1-.685-.685h0a.688.688,0,0,1,.685-.682h4.59a.685.685,0,0,1,.685.682h0A.685.685,0,0,1,624.255,538.877Z" transform="translate(-525.767 -486.709)" fill="#fff"/>
      <path id="Path_6453" data-name="Path 6453" d="M664.9,538.877h-4.59a.685.685,0,0,1-.685-.685h0a.685.685,0,0,1,.685-.682h4.59a.688.688,0,0,1,.685.682h0A.688.688,0,0,1,664.9,538.877Z" transform="translate(-556.679 -486.709)" fill="#fff"/>
      <path id="Path_6454" data-name="Path 6454" d="M280.49,420.411v-1.367l.056-.49a11.7,11.7,0,0,1,9.592-10.3c.44-.077.883-.121,1.326-.183h1.367c.387.05.781.087,1.168.149a11.687,11.687,0,0,1,9.737,12.681,11.1,11.1,0,0,1-2.845,6.508,11.42,11.42,0,0,1-8.256,3.954,11.089,11.089,0,0,1-6.427-1.621,11.482,11.482,0,0,1-5.535-8.011C280.589,421.3,280.549,420.851,280.49,420.411Zm11.665-10.537a9.841,9.841,0,1,1,0,.009Z" transform="translate(-264.799 -389.53)" fill="#02d79c"/>
      <path id="Path_6455" data-name="Path 6455" d="M317,428.89v2.3a.421.421,0,0,0,.189.394c1,.738,1.993,1.491,2.988,2.234a.9.9,0,1,1-1.007,1.5c-.62-.456-1.24-.93-1.859-1.392-.561-.418-1.116-.84-1.677-1.24a.97.97,0,0,1-.431-.809v-5.349a.9.9,0,0,1,.731-.93.886.886,0,0,1,.995.539,1.4,1.4,0,0,1,.081.468C317,427.356,317,428.122,317,428.89Z" transform="translate(-288.75 -402.213)" fill="#02d79c"/>
      <path id="Path_6456" data-name="Path 6456" d="M585.056,541.14a12.142,12.142,0,0,0-11.519,15.982l-6.077,6.753,8.352-2.724a12.142,12.142,0,1,0,9.244-20.011Z" transform="translate(-490.063 -492.403)" fill="#05f"/>
      <path id="Path_6457" data-name="Path 6457" d="M606.68,575.188a.93.93,0,0,1-.66-.276l-3.31-3.31a.936.936,0,0,1,1.323-1.323l2.647,2.65,7.617-7.614a.938.938,0,0,1,1.329,1.323l-8.274,8.274A.93.93,0,0,1,606.68,575.188Z" transform="translate(-514.286 -508.717)" fill="#fff"/>
    </g>
  </g>
</svg>
