<svg xmlns="http://www.w3.org/2000/svg" width="150" height="106.998" viewBox="0 0 150 106.998">
  <g id="Layer_2_copy" data-name="Layer 2 copy" transform="translate(0)">
    <g id="Layer_1" data-name="Layer 1" transform="translate(0 0)">
      <path id="Path_5889" data-name="Path 5889" d="M843.234,590.539a2.169,2.169,0,1,1,2.145-2.169,2.169,2.169,0,0,1-2.145,2.169Zm0-3.719a1.55,1.55,0,1,0,1.525,1.55,1.549,1.549,0,0,0-1.525-1.55Z" transform="translate(-695.379 -525.083)" fill="#bfbfbf"/>
      <path id="Path_5890" data-name="Path 5890" d="M246.453,627.372a2.966,2.966,0,1,1,2.929-2.966A2.966,2.966,0,0,1,246.453,627.372Zm0-5.312a2.346,2.346,0,1,0,2.309,2.346A2.346,2.346,0,0,0,246.453,622.06Z" transform="translate(-237.577 -552.283)" fill="#bfbfbf"/>
      <path id="Path_5891" data-name="Path 5891" d="M568.805,451.04a1.19,1.19,0,1,1,1.175-1.19A1.19,1.19,0,0,1,568.805,451.04Zm0-2.024a.834.834,0,1,0,.818.834.834.834,0,0,0-.818-.834Z" transform="translate(-486.284 -419.815)" fill="#fff"/>
      <path id="Path_5892" data-name="Path 5892" d="M297.887,334.418H255.154a.317.317,0,0,1-.294-.452c.093-.2,2.352-4.983,9.334-6.7,5.346-1.311,8.327.161,11.776,1.859,1.106.542,2.247,1.106,3.539,1.618,2.811,1.113,5.107.62,7.323.164a12.17,12.17,0,0,1,6.17-.174c4.807,1.373,5.154,3.121,5.175,3.316a.342.342,0,0,1-.291.366Zm-42.206-.62H297.4c-.359-.527-1.429-1.549-4.556-2.448a11.52,11.52,0,0,0-5.873.186c-2.309.483-4.7.982-7.679-.2-1.314-.521-2.479-1.091-3.582-1.639-3.344-1.649-6.232-3.074-11.358-1.816A13.88,13.88,0,0,0,255.681,333.8Z" transform="translate(-245.429 -326.765)" fill="#bfbfbf"/>
      <path id="Path_5893" data-name="Path 5893" d="M714.405,388.594h-22.1a.311.311,0,0,1-.291-.418,7.707,7.707,0,0,1,4.921-4.292c2.839-.846,4.41.1,6.232,1.19.567.341,1.156.691,1.816,1.01a4.828,4.828,0,0,0,3.669.093,5.375,5.375,0,0,1,3.291-.108c2.569.9,2.755,2.055,2.768,2.169a.333.333,0,0,1-.31.356Zm-21.607-.62h21.117a4.488,4.488,0,0,0-2.169-1.32,4.831,4.831,0,0,0-2.935.121,5.412,5.412,0,0,1-4.091-.133c-.685-.332-1.286-.691-1.859-1.038-1.763-1.057-3.158-1.894-5.736-1.125a7.27,7.27,0,0,0-4.326,3.5Z" transform="translate(-592.526 -365.957)" fill="#bfbfbf"/>
      <path id="Path_5894" data-name="Path 5894" d="M369.6,774.47H224.965a.465.465,0,1,1,0-.93H369.6a.465.465,0,1,1,0,.93Z" transform="translate(-224.5 -667.472)" fill="#777171"/>
      <path id="Path_5895" data-name="Path 5895" d="M716.193,774.47h-11.8a.465.465,0,1,1,0-.93h11.8a.465.465,0,0,1,0,.93Z" transform="translate(-592.283 -667.472)" fill="#777171"/>
      <path id="Path_5896" data-name="Path 5896" d="M780.687,774.47H753.415a.465.465,0,1,1,0-.93h27.272a.465.465,0,0,1,0,.93Z" transform="translate(-634.588 -667.472)" fill="#777171"/>
      <path id="Path_5897" data-name="Path 5897" d="M522.561,452.609v-.053a23.478,23.478,0,0,0-26.255-20.321,23.977,23.977,0,0,0-20.627,24.684h.015a22.533,22.533,0,0,0,8.557,16.822,47.166,47.166,0,0,1,7.261,7.174,41.178,41.178,0,0,1,6.449,12.269c.223.651.579,1.113,1.3,1.113.663,0,.992-.474,1.24-1.085.62-1.608,1.209-3.242,1.934-4.8a42.806,42.806,0,0,1,11.907-14.832A22.431,22.431,0,0,0,522.561,452.609Zm-23.519,25.05a21.874,21.874,0,1,1,.01,0Z" transform="translate(-421.665 -413.119)" fill="#05f"/>
      <path id="Path_5898" data-name="Path 5898" d="M537.271,628.259a11.41,11.41,0,0,0-6-2.829c-.31.809-.545,1.525-.834,2.25a3.719,3.719,0,0,1-7.063.019c-.285-.719-.545-1.453-.834-2.265h0a12.837,12.837,0,0,0-5.5,2.306c-.121.105-.236.2-.347.31a2.382,2.382,0,0,0-.5.5,2.34,2.34,0,0,0,.49,3.257,8.63,8.63,0,0,0,2.368,1.549,20.5,20.5,0,0,0,14.442.518A8.123,8.123,0,0,0,537.3,631.6a2.605,2.605,0,0,0,.26-.263h0A2.2,2.2,0,0,0,537.271,628.259Z" transform="translate(-449.163 -555.955)" fill="#05f"/>
      <path id="Path_5899" data-name="Path 5899" d="M502.406,438a21.882,21.882,0,1,0,21.879,21.881A21.883,21.883,0,0,0,502.406,438Zm.2,27.944a6.734,6.734,0,1,1,6.734-6.734,6.734,6.734,0,0,1-6.734,6.734Z" transform="translate(-424.936 -415.204)" fill="#05f"/>
      <g id="Group_2078" data-name="Group 2078" transform="translate(60.237 97.783)" opacity="0.2">
        <path id="Path_5900" data-name="Path 5900" d="M496.213,747.3a10.541,10.541,0,0,0-6.561.074c-2.358.865-2.789,2.414-.558,3.335a10.044,10.044,0,0,0,7.438-.363c2.036.778,12.688,4.844,12.743,4.717L497.068,750C498.283,749.061,497.88,747.927,496.213,747.3Z" transform="translate(-487.632 -746.808)" fill="#694931"/>
      </g>
      <path id="Path_5901" data-name="Path 5901" d="M551.587,698.984a4.738,4.738,0,1,0-5.172,4.717c.034,2.523.211,15.111.422,15.111l.418-15.111A4.738,4.738,0,0,0,551.587,698.984Z" transform="translate(-467.719 -612.751)" fill="#00bc82"/>
      <path id="Path_5902" data-name="Path 5902" d="M553.895,703.177a2.854,2.854,0,1,1-.836-2.021,2.857,2.857,0,0,1,.836,2.021Z" transform="translate(-471.882 -616.943)" fill="#fff"/>
      <g id="Group_2079" data-name="Group 2079" transform="translate(102.231 83.652)" opacity="0.2">
        <path id="Path_5903" data-name="Path 5903" d="M709.141,701.671a10.218,10.218,0,0,0-6.294.071c-2.265.831-2.693,2.318-.536,3.2a9.616,9.616,0,0,0,7.128-.347c1.952.747,12.173,4.649,12.226,4.525l-11.714-4.847C711.137,703.366,710.74,702.279,709.141,701.671Z" transform="translate(-700.901 -701.209)" fill="#694931"/>
      </g>
      <path id="Path_5904" data-name="Path 5904" d="M762.282,655.3a4.546,4.546,0,1,0-4.959,4.525c.034,2.424.2,14.5.406,14.5l.4-14.5A4.546,4.546,0,0,0,762.282,655.3Z" transform="translate(-634.753 -582.736)" fill="#00bc82"/>
      <path id="Path_5905" data-name="Path 5905" d="M764.5,659.33a2.743,2.743,0,1,1-2.743-2.74,2.743,2.743,0,0,1,2.743,2.74Z" transform="translate(-638.77 -579.101)" fill="#fff"/>
      <g id="Group_2080" data-name="Group 2080" transform="translate(19.716 80.962)" opacity="0.2">
        <path id="Path_5906" data-name="Path 5906" d="M303.082,700.585c-.053.124-10.5-3.858-12.492-4.624l-.155.081a24.176,24.176,0,0,1-2.315-3.511,7.971,7.971,0,0,1,2.169.443c1.633.62,2.042,1.735.827,2.656Z" transform="translate(-288.12 -692.53)" fill="#694931"/>
      </g>
      <path id="Path_5907" data-name="Path 5907" d="M330.647,645.525a4.649,4.649,0,1,0-5.067,4.624c.034,2.479.208,14.813.415,14.813l.409-14.813A4.649,4.649,0,0,0,330.647,645.525Z" transform="translate(-298.658 -575.918)" fill="#00bc82"/>
      <path id="Path_5908" data-name="Path 5908" d="M332.978,649.679a2.789,2.789,0,1,1-2.789-2.789A2.789,2.789,0,0,1,332.978,649.679Z" transform="translate(-295.511 -571.696)" fill="#fff"/>
      <g id="Group_2081" data-name="Group 2081" transform="translate(48.137 79.48)" opacity="0.2">
        <path id="Path_5909" data-name="Path 5909" d="M434.94,687.992a5.373,5.373,0,0,0-3.338.04c-1.2.44-1.429,1.24-.285,1.7a5.123,5.123,0,0,0,3.781-.183c1.035.394,6.452,2.461,6.48,2.4l-6.2-2.569C436,688.891,435.786,688.315,434.94,687.992Z" transform="translate(-430.571 -687.746)" fill="#694931"/>
      </g>
      <path id="Path_5910" data-name="Path 5910" d="M463.116,663.428a2.408,2.408,0,1,0-2.622,2.4c.015,1.283.105,7.686.214,7.686l.211-7.686a2.408,2.408,0,0,0,2.2-2.4Z" transform="translate(-403.106 -583.874)" fill="#00bc82"/>
      <ellipse id="Ellipse_729" data-name="Ellipse 729" cx="1.453" cy="1.453" rx="1.453" ry="1.453" transform="translate(56.094 79.732)" fill="#fff"/>
      <g id="Group_2082" data-name="Group 2082" transform="translate(92.602 84.532)" opacity="0.2">
        <path id="Path_5911" data-name="Path 5911" d="M627.351,686.352a6.242,6.242,0,0,0-3.9.043c-1.4.514-1.67,1.435-.335,1.98a5.953,5.953,0,0,0,4.416-.214c1.209.462,7.54,2.879,7.574,2.789l-7.255-3C628.587,687.393,628.339,686.718,627.351,686.352Z" transform="translate(-622.245 -686.061)" fill="#694931"/>
      </g>
      <path id="Path_5912" data-name="Path 5912" d="M660.264,657.569a2.817,2.817,0,1,0-3.065,2.789c.019,1.5.124,8.987.251,8.987l.248-8.987A2.817,2.817,0,0,0,660.264,657.569Z" transform="translate(-553.225 -579.48)" fill="#00bc82"/>
      <path id="Path_5913" data-name="Path 5913" d="M661.647,660.1a1.7,1.7,0,1,1-1.7-1.7A1.7,1.7,0,0,1,661.647,660.1Z" transform="translate(-555.617 -580.103)" fill="#fff"/>
      <g id="Group_2083" data-name="Group 2083" transform="translate(32.098 64.842)" opacity="0.2">
        <path id="Path_5914" data-name="Path 5914" d="M369.419,603.484a7.722,7.722,0,0,0-4.8.053c-1.726.62-2.055,1.77-.409,2.442a7.352,7.352,0,0,0,5.439-.263c1.491.567,9.3,3.542,9.328,3.452l-8.938-3.7C370.944,604.776,370.64,603.946,369.419,603.484Z" transform="translate(-363.132 -603.127)" fill="#694931"/>
      </g>
      <path id="Path_5915" data-name="Path 5915" d="M409.976,568.128a3.468,3.468,0,1,0-3.778,3.458c.025,1.859.152,11.064.31,11.064l.31-11.064A3.468,3.468,0,0,0,409.976,568.128Z" transform="translate(-361.04 -510.609)" fill="#00bc82"/>
      <ellipse id="Ellipse_730" data-name="Ellipse 730" cx="2.092" cy="2.092" rx="2.092" ry="2.092" transform="translate(42.863 60.755) rotate(-76.8)" fill="#fff"/>
      <g id="Group_2084" data-name="Group 2084" transform="translate(98.503 65.622)" opacity="0.2">
        <path id="Path_5916" data-name="Path 5916" d="M657.245,607.044a8.129,8.129,0,0,0-5.061.059c-1.819.666-2.169,1.859-.431,2.569a7.713,7.713,0,0,0,5.73-.279c1.571.6,9.787,3.737,9.83,3.638l-9.418-3.9C658.859,608.408,658.54,607.534,657.245,607.044Z" transform="translate(-650.618 -606.669)" fill="#694931"/>
      </g>
      <path id="Path_5917" data-name="Path 5917" d="M700.007,569.781a3.654,3.654,0,1,0-3.979,3.638c.025,1.946.161,11.656.31,11.656l.31-11.656a3.654,3.654,0,0,0,3.359-3.638Z" transform="translate(-582.629 -511.897)" fill="#00bc82"/>
      <path id="Path_5918" data-name="Path 5918" d="M701.787,573.013a2.2,2.2,0,1,1-2.2-2.2A2.2,2.2,0,0,1,701.787,573.013Z" transform="translate(-585.672 -513.328)" fill="#fff"/>
      <g id="Path_334" data-name="Path 334" transform="translate(31.113 61.149)">
        <path id="Path_5919" data-name="Path 5919" d="M332.622,588.371c-1.838.738-2.349,3.462-3.251,5.237-.291.57-.576.834-1.063.834a.958.958,0,0,1-.762-.406l-2.417-4.029c-1.258-2.086,2.851-2.547,5.268-2.039-.719.31-1.255.862-1.983,2.932a.31.31,0,0,1-.291.217.332.332,0,0,1-.31-.174l-.7-1.286a2.1,2.1,0,0,0-.254-.4.347.347,0,0,0-.328-.078.394.394,0,0,0-.2.09.443.443,0,0,0-.136.174.341.341,0,0,0-.028.192.7.7,0,0,0,.043.136c.025.05.05.1.081.152l.084.149,1.193,1.98c.115.189.2.31.248.381a.6.6,0,0,0,.2.164.53.53,0,0,0,.707-.242C330.041,589.648,329.929,588.108,332.622,588.371Z" transform="translate(-324.895 -587.779)" fill="#00bc82" fill-rule="evenodd"/>
      </g>
      <g id="Path_334-2" data-name="Path 334" transform="translate(41.788 43.277)">
        <path id="Path_5920" data-name="Path 5920" d="M410.1,512.059c-1.835.738-2.346,3.462-3.248,5.237-.291.57-.576.837-1.063.837a.951.951,0,0,1-.762-.409l-2.417-4.01c-1.258-2.089,2.851-2.547,5.268-2.042-.716.31-1.24.865-1.98,2.935a.31.31,0,0,1-.291.214.332.332,0,0,1-.31-.174l-.7-1.286a2.24,2.24,0,0,0-.254-.4.347.347,0,0,0-.329-.081.453.453,0,0,0-.2.09.437.437,0,0,0-.136.174.344.344,0,0,0-.028.192.7.7,0,0,0,.043.136,1.422,1.422,0,0,0,.081.152l.084.149,1.19,1.98c.118.192.2.31.248.381a.573.573,0,0,0,.2.164.48.48,0,0,0,.31.04.493.493,0,0,0,.39-.279C407.527,513.336,407.409,511.8,410.1,512.059Z" transform="translate(-402.375 -511.484)" fill="#00bc82" fill-rule="evenodd"/>
      </g>
      <g id="Path_334-3" data-name="Path 334" transform="translate(53.952 65.841)">
        <path id="Path_5921" data-name="Path 5921" d="M461.879,608.4c-1.835.737-2.346,3.462-3.251,5.237-.288.57-.573.837-1.06.837a.967.967,0,0,1-.766-.409l-2.414-4.029c-1.258-2.086,2.851-2.547,5.268-2.039-.716.31-1.24.862-1.983,2.932a.31.31,0,0,1-.288.217.332.332,0,0,1-.31-.174l-.7-1.286a2.255,2.255,0,0,0-.254-.4.347.347,0,0,0-.328-.077.384.384,0,0,0-.2.09.437.437,0,0,0-.136.174.34.34,0,0,0-.028.192.7.7,0,0,0,.043.136,1.027,1.027,0,0,0,.081.152l.084.149,1.19,1.98c.118.189.2.31.248.381a.6.6,0,0,0,.2.164.486.486,0,0,0,.31.037.524.524,0,0,0,.245-.093.579.579,0,0,0,.149-.186C459.3,609.678,459.189,608.138,461.879,608.4Z" transform="translate(-454.155 -607.809)" fill="#00bc82" fill-rule="evenodd"/>
      </g>
      <g id="Path_334-4" data-name="Path 334" transform="translate(109.614 43.759)">
        <path id="Path_5922" data-name="Path 5922" d="M698.8,514.119c-1.835.738-2.346,3.462-3.251,5.237-.291.57-.573.837-1.06.837a.958.958,0,0,1-.765-.409l-2.417-4.01c-1.24-2.089,2.854-2.547,5.268-2.042-.716.31-1.24.865-1.983,2.935a.31.31,0,0,1-.291.214.331.331,0,0,1-.31-.174l-.7-1.286a2.257,2.257,0,0,0-.257-.4.344.344,0,0,0-.329-.081.4.4,0,0,0-.2.093.415.415,0,0,0-.139.17.372.372,0,0,0-.025.192.533.533,0,0,0,.043.136,1.4,1.4,0,0,0,.078.152l.087.149,1.19,1.983c.118.189.2.31.248.378a.566.566,0,0,0,.2.164.487.487,0,0,0,.31.04.53.53,0,0,0,.242-.1.5.5,0,0,0,.149-.183C696.211,515.4,696.1,513.859,698.8,514.119Z" transform="translate(-691.082 -513.544)" fill="#00bc82" fill-rule="evenodd"/>
      </g>
      <g id="Path_334-5" data-name="Path 334" transform="translate(119.327 63.581)">
        <path id="Path_5923" data-name="Path 5923" d="M763.792,598.751c-1.838.738-2.349,3.462-3.251,5.237-.291.57-.576.837-1.063.837a.961.961,0,0,1-.762-.409l-2.417-4.029c-1.258-2.086,2.851-2.547,5.268-2.039-.719.31-1.255.862-1.983,2.932a.31.31,0,0,1-.291.217.332.332,0,0,1-.31-.174l-.7-1.286a2.1,2.1,0,0,0-.254-.4.347.347,0,0,0-.329-.077.422.422,0,0,0-.2.09.465.465,0,0,0-.136.174.341.341,0,0,0-.028.192.693.693,0,0,0,.043.136,1.427,1.427,0,0,0,.081.152l.084.149,1.19,1.98c.118.189.2.31.248.381a.644.644,0,0,0,.2.164.48.48,0,0,0,.31.037.528.528,0,0,0,.242-.093.514.514,0,0,0,.149-.186C761.217,600.028,761.105,598.488,763.792,598.751Z" transform="translate(-756.064 -598.159)" fill="#00bc82" fill-rule="evenodd"/>
      </g>
      <g id="Path_334-6" data-name="Path 334" transform="translate(99.878 64.164)">
        <path id="Path_5924" data-name="Path 5924" d="M657.365,601.241c-1.835.738-2.346,3.462-3.251,5.237-.291.57-.573.837-1.06.837a.967.967,0,0,1-.765-.409l-2.417-4.029c-1.24-2.086,2.854-2.547,5.268-2.039-.716.31-1.24.862-1.983,2.932a.31.31,0,0,1-.288.217.329.329,0,0,1-.31-.174l-.7-1.286a2.274,2.274,0,0,0-.257-.4.34.34,0,0,0-.328-.078.4.4,0,0,0-.2.09.446.446,0,0,0-.139.174.368.368,0,0,0-.025.192.538.538,0,0,0,.043.136,1.4,1.4,0,0,0,.077.152l.087.149,1.19,1.98c.118.189.2.31.248.381a.6.6,0,0,0,.2.164.487.487,0,0,0,.31.037.529.529,0,0,0,.242-.093.484.484,0,0,0,.149-.186C654.786,602.518,654.675,600.978,657.365,601.241Z" transform="translate(-649.643 -600.649)" fill="#00bc82" fill-rule="evenodd"/>
      </g>
      <g id="Path_334-7" data-name="Path 334" transform="translate(75.269 73.127)">
        <path id="Path_5925" data-name="Path 5925" d="M552.615,639.5c-1.835.738-2.346,3.462-3.251,5.237-.288.57-.573.837-1.06.837a.967.967,0,0,1-.765-.409l-2.417-4.029c-1.24-2.086,2.854-2.547,5.268-2.039-.716.31-1.24.862-1.983,2.932a.31.31,0,0,1-.288.217.332.332,0,0,1-.31-.174L547.1,640.8a2.261,2.261,0,0,0-.254-.4.35.35,0,0,0-.332-.077.385.385,0,0,0-.2.09.411.411,0,0,0-.136.174.341.341,0,0,0-.028.192.535.535,0,0,0,.043.136,1.387,1.387,0,0,0,.078.152l.087.149,1.19,1.98c.118.189.2.31.248.381a.6.6,0,0,0,.2.164.487.487,0,0,0,.31.037.475.475,0,0,0,.391-.279C550.036,640.778,549.924,639.247,552.615,639.5Z" transform="translate(-544.892 -638.909)" fill="#00bc82" fill-rule="evenodd"/>
      </g>
    </g>
  </g>
</svg>
