<svg xmlns="http://www.w3.org/2000/svg" xmlns:xlink="http://www.w3.org/1999/xlink" width="668" height="403.049" viewBox="0 0 668 403.049"><defs><linearGradient id="a" x1="0.5" x2="0.5" y2="1" gradientUnits="objectBoundingBox"><stop offset="0" stop-color="#02ddb7"/><stop offset="1" stop-color="#03d077"/></linearGradient></defs><g transform="translate(-624 -102.101)"><path d="M746.658,317.424h0l-104.8,0L447.052,74.177a7,7,0,0,0-10.928,0l-194.8,243.245H136.962l281.4-352.677a29.85,29.85,0,0,1,23.45-11.289,29.849,29.849,0,0,1,23.45,11.289l281.4,352.677Z" transform="translate(518.039 148.645)" fill="url(#a)"/><ellipse cx="92" cy="0.5" rx="92" ry="0.5" transform="translate(624 466)" fill="#676767"/><ellipse cx="92" cy="0.5" rx="92" ry="0.5" transform="translate(1108 466)" fill="#676767"/><path d="M760.78,775.95H727.645a1.305,1.305,0,1,1,0-2.61H760.78a1.305,1.305,0,0,1,0,2.61Z" transform="translate(381.372 -276.801)" fill="#bbb"/><g transform="translate(525.749 41.435)"><g transform="translate(370.928 345.436)"><g transform="translate(0)"><g transform="translate(13.153 9.212)"><rect width="6.474" height="84.705" transform="translate(0 0.001)" fill="#e8e8e8"/><rect width="6.477" height="84.709" transform="translate(85.262)" fill="#e8e8e8"/></g><g transform="translate(0 17.387)"><rect width="118.051" height="21.122" fill="url(#a)"/><path d="M344.686,327.243l-.205.35-12.128,20.772h-1.025V327.243Z" transform="translate(-331.328 -327.243)" fill="#444"/><path d="M370.79,327.243l-12.345,21.122H342.314l4.907-8.391,7.438-12.731Z" transform="translate(-327.594 -327.243)" fill="#444"/><path d="M393.049,327.243,380.7,348.365H364.573l12.345-21.122Z" transform="translate(-320.027 -327.243)" fill="#444"/><path d="M415.308,327.246l-12.348,21.118H386.831l12.348-21.118Z" transform="translate(-312.46 -327.241)" fill="#444"/><path d="M422.945,327.246v21.118H409.091l12.348-21.118Z" transform="translate(-304.893 -327.241)" fill="#444"/></g><g transform="translate(0 55.165)"><rect width="118.051" height="21.11" transform="translate(0 0.005)" fill="url(#a)"/><path d="M344.686,355.44l-.205.35-12.128,20.76h-1.025V355.44Z" transform="translate(-331.328 -355.435)" fill="#444"/><path d="M370.79,355.44l-12.345,21.11H342.314l4.907-8.391,7.438-12.719Z" transform="translate(-327.594 -355.435)" fill="#444"/><path d="M393.049,355.44,380.7,376.55H364.573l12.345-21.11Z" transform="translate(-320.027 -355.435)" fill="#444"/><path d="M415.308,355.436l-12.348,21.118H386.831l12.348-21.118Z" transform="translate(-312.46 -355.436)" fill="#444"/><path d="M422.945,355.436v21.118H409.091l12.348-21.118Z" transform="translate(-304.893 -355.436)" fill="#444"/></g><rect width="14.92" height="4.213" transform="translate(94.194 93.921)" fill="#aeaeae"/><rect width="14.925" height="4.22" transform="translate(8.934 93.917)" fill="#aeaeae"/><path d="M351.8,320.007a5.684,5.684,0,0,1-3.339,5.015,7.278,7.278,0,0,1-3.231.736,7.178,7.178,0,0,1-3.244-.748,5.669,5.669,0,0,1-3.327-5c0-3.17,2.941-5.738,6.571-5.738S351.8,316.836,351.8,320.007Z" transform="translate(-328.835 -314.266)" fill="url(#a)"/><path d="M415.431,320.013c0,3.173-2.943,5.744-6.572,5.744s-6.571-2.571-6.571-5.744,2.941-5.746,6.571-5.746S415.431,316.84,415.431,320.013Z" transform="translate(-307.206 -314.267)" fill="url(#a)"/></g><path d="M350.956,352.775v16.661h39.157v21.11H350.956v17.639h4.232V412.4H340.261v-4.219h4.219V390.545H331.328v-21.11h13.153V352.775H331.328V331.653h13.153V325.01a5.669,5.669,0,0,1-3.327-5c0-3.17,2.941-5.738,6.571-5.738s6.57,2.567,6.57,5.738a5.684,5.684,0,0,1-3.339,5.015v6.631h39.157v21.122Z" transform="translate(-331.328 -314.266)" fill="#444" opacity="0.3" style="mix-blend-mode:multiply;isolation:isolate"/></g><g transform="translate(484.383 265.706)"><path d="M535.174,341.781v-.015l-26.086-86.346-.2-.657H457.71l.2.657,2.435,8.056,5.868,19.441,1.466,4.857,7.362,24.358L476.521,317l4.556,15.078,2.421,8.04L514.014,441.1h4.855l-3.8-12.613h41.451l3.816,12.613h4.856ZM464.047,259.62H505.5l1.152,3.84,5.881,19.457H471.081Zm8.5,28.155H514l7.362,24.358H479.91Zm13.385,44.293-2.42-8.025L481.376,317h41.453l6.949,22.953c-1.1-.015-2.435-.015-4.072-.015-4.357-.029-10.154-.015-15.935.015-8.915.031-17.8.09-21.416.119Zm3.874,12.851c15.421-.1,35.884-.194,41.436-.075l7.163,23.686H496.941Zm8.615,28.467h41.451l7.135,23.6H505.542Zm15.165,50.241-6.579-21.787h41.466l6.579,21.787Z" transform="translate(-401.82 -254.764)" fill="#353535"/><path d="M472.289,254.764l-.2.657-26.073,86.331c-.015.015-.015.015-.015.029L416,441.1h4.856l3.816-12.613h41.451l-3.8,12.613h4.856l30.5-100.976,2.435-8.054L504.67,317l1.466-4.872,7.363-24.358,1.466-4.857,5.866-19.457,2.436-8.04.2-.657Zm-4.7,168.864H426.137l6.579-21.787h41.453Zm8.06-26.645H434.183l7.134-23.6h41.451Zm8.586-28.452H442.785l7.147-23.686c5.567-.119,26.031-.03,41.438.075Zm13.457-44.487-2.436,8.04-2.42,7.994c-3.618-.03-12.5-.088-21.416-.119-5.8-.029-11.592-.044-15.935-.015-1.637,0-2.976,0-4.072.015L458.348,317h41.466Zm3.587-11.911H459.814l7.363-24.358h41.466Zm8.829-29.215H468.643l5.881-19.441,1.168-3.856h41.451Z" transform="translate(-415.999 -254.764)" fill="#353535"/></g><g transform="translate(596.368 405.919)"><g transform="translate(0)"><g transform="translate(0 17.241)"><path d="M535.44,372.272V409.48a1.136,1.136,0,0,1-1.132,1.131H500.691a1.132,1.132,0,0,1-1.117-1.131V372.272Z" transform="translate(-499.574 -372.272)" fill="#444"/></g><g transform="translate(0.698)"><path d="M534.564,376.633h-1.4a15.837,15.837,0,0,0-31.675,0h-1.4a17.234,17.234,0,0,1,34.469,0Z" transform="translate(-500.095 -359.405)" fill="#e8e8e8"/></g><g transform="translate(0 17.241)"><path d="M535.44,372.272V379.5c-1.1.293-2.543-.741-3.856-.965a3.047,3.047,0,0,0-2.976,1.315c-.615.992-.615,2.346-1.537,3.074-.978.768-2.445.4-3.549-.2a8.2,8.2,0,0,0-3.409-1.467,3.533,3.533,0,0,0-2.613,1.076,4.482,4.482,0,0,0-.88,1.1,11.876,11.876,0,0,0-1.146,4.052c-.181,1.048-.5,2.25-1.509,2.656a2.786,2.786,0,0,1-1.844-.043,6.782,6.782,0,0,1-4.471-4.428c-.643-2.139-.433-4.974-2.5-5.98a12.54,12.54,0,0,0-2.989-.517,4.334,4.334,0,0,1-2.585-1.55v-5.352Z" transform="translate(-499.574 -372.272)" fill="url(#a)"/></g></g><path d="M517.323,359.405v1.4a15.843,15.843,0,0,0-15.83,15.83h-1.4A17.245,17.245,0,0,1,517.323,359.405Z" transform="translate(-499.397 -359.405)" fill="#444" opacity="0.2" style="mix-blend-mode:multiply;isolation:isolate"/><path d="M499.574,372.272H517.5v38.339H500.691a1.132,1.132,0,0,1-1.117-1.131Z" transform="translate(-499.574 -355.031)" fill="#444" opacity="0.2" style="mix-blend-mode:multiply;isolation:isolate"/></g><g transform="translate(570.052 408.659)"><g transform="translate(0)"><g transform="translate(0 17.07)"><path d="M515.471,374.189v36.879a1.114,1.114,0,0,1-1.122,1.107H481.041a1.111,1.111,0,0,1-1.107-1.107V374.189Z" transform="translate(-479.934 -374.189)" fill="#444"/></g><g transform="translate(0.691)"><path d="M514.6,378.52h-1.384a15.691,15.691,0,0,0-31.383,0H480.45a17.076,17.076,0,0,1,34.152,0Z" transform="translate(-480.45 -361.45)" fill="#e8e8e8"/></g><g transform="translate(0 17.07)"><path d="M515.471,374.189v7.157c-1.093.291-2.519-.733-3.821-.955a3.018,3.018,0,0,0-2.948,1.3c-.61.984-.61,2.326-1.523,3.046-.969.762-2.423.4-3.516-.193a8.112,8.112,0,0,0-3.378-1.454,3.5,3.5,0,0,0-2.589,1.065,4.5,4.5,0,0,0-.872,1.095,11.777,11.777,0,0,0-1.135,4.014c-.18,1.038-.5,2.228-1.5,2.63a2.769,2.769,0,0,1-1.826-.042,6.717,6.717,0,0,1-4.43-4.388c-.638-2.118-.43-4.928-2.479-5.925a12.385,12.385,0,0,0-2.963-.513,4.29,4.29,0,0,1-2.561-1.536v-5.3Z" transform="translate(-479.934 -374.189)" fill="url(#a)"/></g></g><path d="M482.011,378.52h15.684v37.986H481.041a1.111,1.111,0,0,1-1.107-1.107V378.52h.691a17.087,17.087,0,0,1,17.07-17.07v1.384A15.7,15.7,0,0,0,482.011,378.52Z" transform="translate(-479.934 -361.45)" fill="#444" opacity="0.2" style="mix-blend-mode:multiply;isolation:isolate"/></g><g transform="translate(251.566 222.577)"><g transform="translate(0.002)"><rect width="5.839" height="157.49" transform="translate(29.421 62.282)" fill="#e8e8e8"/><circle cx="33.953" cy="33.953" r="33.953" fill="#f5f5f5"/><g transform="translate(0.618 0.618)"><circle cx="29.184" cy="29.184" r="29.184" transform="translate(0 57.671) rotate(-81.13)" fill="#fff"/><path d="M275.208,285.567a30.032,30.032,0,1,1,30.031-30.031A30.065,30.065,0,0,1,275.208,285.567Zm0-58.369a28.338,28.338,0,1,0,28.337,28.338A28.37,28.37,0,0,0,275.208,227.2Z" transform="translate(-241.872 -222.2)" fill="url(#a)"/></g><g transform="translate(18.677 18.299)"><g transform="translate(0 0.303)"><path d="M286.177,244.237l-2.008-2.008h0a1.093,1.093,0,0,1-1.545,0l-.269-.269.508-.508a.374.374,0,0,0,0-.529l-5.146-5.146s-3.878-2.89-7.4-.825l1,.877a7.2,7.2,0,0,1,3.418.712,1.178,1.178,0,0,1,.326,1.9l-.511.512a1.257,1.257,0,0,0,0,1.778l.495.5-10.488,10.488-.184-.183a.518.518,0,0,0-.733,0l-9.4,9.4a1.471,1.471,0,0,0,0,2.081L256,264.783a1.471,1.471,0,0,0,2.081,0l9.406-9.406a.517.517,0,0,0,0-.732l-.184-.184,10.49-10.49,1.012,1.012a.372.372,0,0,0,.529,0l.508-.508.269.269a1.093,1.093,0,0,1,0,1.545l2.008,2.009a.62.62,0,0,0,.877,0l3.184-3.185A.618.618,0,0,0,286.177,244.237Z" transform="translate(-253.8 -234.209)" fill="#353535"/></g><g transform="translate(0.518)"><path d="M268.97,245.717l-2.928,2.928-4.768-4.763a5.312,5.312,0,0,1-5.692-1.208c-1.554-1.554-1.591-4.173-.85-6.064l3.447,4.094a.618.618,0,0,0,.9.047l2-2a.617.617,0,0,0-.047-.9l-4.1-3.447c1.893-.741,4.51-.705,6.065.85a5.309,5.309,0,0,1,1.207,5.691Z" transform="translate(-254.262 -233.938)" fill="#353535"/></g><g transform="translate(16.599 16.081)"><path d="M275.786,257.457a.617.617,0,0,0,.047.9l4.1,3.447c-1.893.741-4.515.706-6.065-.85a5.308,5.308,0,0,1-1.207-5.7l-4.033-4.033,2.928-2.928,4.033,4.033a5.31,5.31,0,0,1,5.7,1.208c1.554,1.55,1.591,4.173.85,6.064l-3.447-4.1a.618.618,0,0,0-.9-.046Z" transform="translate(-268.623 -248.298)" fill="#353535"/></g></g><path d="M276.708,386.593H261.643a3.466,3.466,0,0,0-3.465,3.466v2.6h22v-2.6A3.466,3.466,0,0,0,276.708,386.593Z" transform="translate(-236.835 -166.821)" fill="#aeaeae"/></g><path d="M274.6,222.6V448.4H263.587v-2.6a3.469,3.469,0,0,1,3.477-3.464h4.607V290.172A33.955,33.955,0,0,1,274.6,222.6Z" transform="translate(-242.248 -222.568)" fill="#444" opacity="0.2" style="mix-blend-mode:multiply;isolation:isolate"/></g><g transform="translate(221.251 398.526)"><g transform="translate(0.003)"><path d="M250.061,389.966l-2.782-10.825-3.5-13.643-2.239-8.732c-.978-3.836-5.054-3.836-6.043,0l-2.239,8.732-3.5,13.643-2.771,10.825-3.5,13.643h30.074Z" transform="translate(-218.314 -353.888)" fill="url(#a)"/><path d="M0,0H40.417V5.767H0Z" transform="translate(0 49.717)" fill="url(#a)"/><path d="M253.561,394.457H223.487l3.5-13.644h23.074Z" transform="translate(-218.314 -344.735)" fill="#444"/><path d="M245.688,376.2h-17.52l3.5-13.644h10.521Z" transform="translate(-216.722 -350.943)" fill="#444"/></g><path d="M239.833,353.888v55.487H219.624V403.6h5.18l3.489-13.633,2.778-10.829,3.5-13.647,2.242-8.735C237.31,354.841,238.572,353.888,239.833,353.888Z" transform="translate(-219.624 -353.888)" fill="#444" opacity="0.2" style="mix-blend-mode:multiply;isolation:isolate"/></g><g transform="translate(312.91 394.107)"><path d="M330.5,395.186H292.856l4.382-12.228,3.466-9.716,4.38-12.24,2.809-7.835a4.064,4.064,0,0,1,7.564,0l2.8,7.835,4.382,12.24,3.479,9.716Z" transform="translate(-286.388 -350.59)" fill="url(#a)"/><rect width="50.575" height="9.046" transform="translate(0 44.596)" fill="url(#a)"/><path d="M330.495,386.974H292.856l4.381-12.228h28.876Z" transform="translate(-286.388 -342.378)" fill="#353535"/><path d="M320.644,370.6H298.713l4.381-12.241h13.169Z" transform="translate(-284.397 -347.949)" fill="#353535"/><path d="M313.31,350.59v53.642H288.029v-9.046H294.5l4.382-12.228,3.466-9.716,4.38-12.24,2.809-7.835A3.9,3.9,0,0,1,313.31,350.59Z" transform="translate(-288.029 -350.59)" fill="#444" opacity="0.2" style="mix-blend-mode:multiply;isolation:isolate"/></g></g></g></svg>