<svg xmlns="http://www.w3.org/2000/svg" width="21.813" height="250.404" viewBox="0 0 21.813 250.404"><path d="M17.556,8.736,16.52,13.58h3.7v2.8H15.932l-1.12,5.18H11.76l1.12-5.18H7.392l-1.12,5.18H3.22l1.12-5.18H0v-2.8H4.928L5.964,8.736H1.652v-2.8h4.9L7.644.84H10.7L9.6,5.936h5.488L16.184.84h3.052l-1.092,5.1h3.724v2.8Zm-3.052,0H9.016L7.98,13.58h5.488ZM32.06,21.756a8.715,8.715,0,0,1-3.528-.686,5.79,5.79,0,0,1-2.464-1.946,4.942,4.942,0,0,1-.9-2.94h3.416a3.084,3.084,0,0,0,.994,2.072,3.524,3.524,0,0,0,2.478.812,3.816,3.816,0,0,0,2.576-.8,2.594,2.594,0,0,0,.924-2.058,2.248,2.248,0,0,0-.574-1.6,3.84,3.84,0,0,0-1.428-.952,21.534,21.534,0,0,0-2.366-.728A22.168,22.168,0,0,1,28.1,11.914a5.113,5.113,0,0,1-2.03-1.61,4.653,4.653,0,0,1-.84-2.912,5.176,5.176,0,0,1,.84-2.94A5.366,5.366,0,0,1,28.42,2.52a8.546,8.546,0,0,1,3.5-.672,7.294,7.294,0,0,1,4.634,1.414,5.217,5.217,0,0,1,2,3.878H35.028A2.556,2.556,0,0,0,34.02,5.32a3.726,3.726,0,0,0-2.436-.756,3.456,3.456,0,0,0-2.24.7,2.439,2.439,0,0,0-.868,2.016,2.046,2.046,0,0,0,.546,1.47,3.855,3.855,0,0,0,1.386.91,21.516,21.516,0,0,0,2.3.728,23.969,23.969,0,0,1,3.15,1.064,5.243,5.243,0,0,1,2.072,1.638,4.708,4.708,0,0,1,.854,2.954,5.312,5.312,0,0,1-.8,2.8,5.757,5.757,0,0,1-2.324,2.114A7.663,7.663,0,0,1,32.06,21.756ZM63.28,6.132,58.492,21.56h-3.36l-3.108-11.4-3.108,11.4h-3.36L40.74,6.132h3.248l3.22,12.4,3.276-12.4h3.332L56.952,18.48,60.144,6.132Zm4-2.044A2.009,2.009,0,0,1,65.24,2.044,2.009,2.009,0,0,1,67.284,0a1.944,1.944,0,0,1,1.428.588A1.978,1.978,0,0,1,69.3,2.044,1.978,1.978,0,0,1,68.712,3.5,1.944,1.944,0,0,1,67.284,4.088Zm1.568,2.044V21.56H65.66V6.132Zm7.924,2.6v8.54a1.639,1.639,0,0,0,.406,1.246,2.019,2.019,0,0,0,1.386.378h1.96v2.66h-2.52a4.857,4.857,0,0,1-3.3-1.008,4.154,4.154,0,0,1-1.148-3.276V8.736h-1.82v-2.6h1.82V2.3h3.22V6.132h3.752v2.6Zm5.628,5.1a8.742,8.742,0,0,1,.966-4.186A6.871,6.871,0,0,1,86.044,6.86a8.548,8.548,0,0,1,8.554.35A6.548,6.548,0,0,1,97.076,11H93.632a3.642,3.642,0,0,0-1.344-1.792,3.969,3.969,0,0,0-2.324-.644,3.865,3.865,0,0,0-3.122,1.386,5.864,5.864,0,0,0-1.162,3.878,5.922,5.922,0,0,0,1.162,3.892,3.848,3.848,0,0,0,3.122,1.4,3.543,3.543,0,0,0,3.668-2.436h3.444a6.9,6.9,0,0,1-2.52,3.738,7.437,7.437,0,0,1-4.592,1.386,7.649,7.649,0,0,1-3.92-.994,6.967,6.967,0,0,1-2.674-2.8A8.742,8.742,0,0,1,82.4,13.832ZM108.248,5.88a6.47,6.47,0,0,1,3.15.756,5.381,5.381,0,0,1,2.184,2.24,7.475,7.475,0,0,1,.8,3.584v9.1h-3.164V12.936a4.478,4.478,0,0,0-1.036-3.178,3.687,3.687,0,0,0-2.828-1.106,3.733,3.733,0,0,0-2.842,1.106,4.44,4.44,0,0,0-1.05,3.178V21.56h-3.192V.84h3.192V7.924a5.352,5.352,0,0,1,2.058-1.512A6.881,6.881,0,0,1,108.248,5.88ZM131.012,2.1V4.7h-5.18V21.56H122.64V4.7h-5.208V2.1Zm9.912,19.712a7.9,7.9,0,0,1-3.948-.994,7.14,7.14,0,0,1-2.772-2.8,8.446,8.446,0,0,1-1.008-4.186,8.284,8.284,0,0,1,1.036-4.172,7.156,7.156,0,0,1,2.828-2.8,8.669,8.669,0,0,1,8.008,0,7.156,7.156,0,0,1,2.828,2.8,8.285,8.285,0,0,1,1.036,4.172A8.112,8.112,0,0,1,147.868,18a7.367,7.367,0,0,1-2.9,2.814A8.353,8.353,0,0,1,140.924,21.813Zm0-2.772a4.75,4.75,0,0,0,2.31-.588,4.48,4.48,0,0,0,1.75-1.764,5.672,5.672,0,0,0,.672-2.856,5.789,5.789,0,0,0-.644-2.842A4.348,4.348,0,0,0,143.3,9.24a4.671,4.671,0,0,0-2.3-.588,4.593,4.593,0,0,0-2.282.588,4.2,4.2,0,0,0-1.666,1.75,6.006,6.006,0,0,0-.616,2.842,5.414,5.414,0,0,0,1.274,3.85A4.21,4.21,0,0,0,140.924,19.04ZM155.288,4.676v5.712h6.72v2.6h-6.72v5.964h7.56v2.6H152.1V2.072h10.752v2.6ZM169.96.84V21.56h-3.192V.84ZM188.3,13.468a9.981,9.981,0,0,1-.112,1.568H176.4A4.281,4.281,0,0,0,177.772,18a4.331,4.331,0,0,0,3.024,1.12,3.735,3.735,0,0,0,3.64-2.156h3.444a6.95,6.95,0,0,1-2.534,3.486,7.435,7.435,0,0,1-4.55,1.358,7.879,7.879,0,0,1-3.962-.994,7.072,7.072,0,0,1-2.744-2.8,8.542,8.542,0,0,1-.994-4.186,8.742,8.742,0,0,1,.966-4.186,6.794,6.794,0,0,1,2.716-2.786,8.083,8.083,0,0,1,4.018-.98,7.858,7.858,0,0,1,3.892.952,6.727,6.727,0,0,1,2.66,2.674A8.054,8.054,0,0,1,188.3,13.468Zm-3.332-1.008a3.633,3.633,0,0,0-1.26-2.828,4.5,4.5,0,0,0-3.052-1.064,4.1,4.1,0,0,0-2.828,1.05,4.388,4.388,0,0,0-1.4,2.842Zm5.4,1.372a8.742,8.742,0,0,1,.966-4.186,6.871,6.871,0,0,1,2.674-2.786,8.548,8.548,0,0,1,8.554.35A6.548,6.548,0,0,1,205.044,11H201.6a3.642,3.642,0,0,0-1.344-1.792,3.969,3.969,0,0,0-2.324-.644,3.865,3.865,0,0,0-3.122,1.386,5.864,5.864,0,0,0-1.162,3.878,5.922,5.922,0,0,0,1.162,3.892,3.848,3.848,0,0,0,3.122,1.4,3.543,3.543,0,0,0,3.668-2.436h3.444a6.9,6.9,0,0,1-2.52,3.738,7.437,7.437,0,0,1-4.592,1.386,7.649,7.649,0,0,1-3.92-.994,6.967,6.967,0,0,1-2.674-2.8A8.742,8.742,0,0,1,190.372,13.832Zm21.588-5.1v8.54a1.639,1.639,0,0,0,.406,1.246,2.019,2.019,0,0,0,1.386.378h1.96v2.66h-2.52a4.857,4.857,0,0,1-3.3-1.008,4.154,4.154,0,0,1-1.148-3.276V8.736h-1.82v-2.6h1.82V2.3h3.22V6.132h3.752v2.6Zm9.884-.364a5.013,5.013,0,0,1,1.862-1.834,5.507,5.507,0,0,1,2.758-.658v3.3h-.812a3.887,3.887,0,0,0-2.842.952,4.552,4.552,0,0,0-.966,3.3v8.12h-3.192V6.132h3.192Zm9.184-4.284a2.009,2.009,0,0,1-2.044-2.044A2.009,2.009,0,0,1,231.028,0a1.944,1.944,0,0,1,1.428.588,1.977,1.977,0,0,1,.588,1.456,1.977,1.977,0,0,1-.588,1.456A1.944,1.944,0,0,1,231.028,4.088ZM232.6,6.132V21.56H229.4V6.132Zm3.136,7.7a8.742,8.742,0,0,1,.966-4.186,6.871,6.871,0,0,1,2.674-2.786,8.548,8.548,0,0,1,8.554.35A6.548,6.548,0,0,1,250.4,11H246.96a3.642,3.642,0,0,0-1.344-1.792,3.969,3.969,0,0,0-2.324-.644,3.865,3.865,0,0,0-3.122,1.386,5.864,5.864,0,0,0-1.162,3.878,5.922,5.922,0,0,0,1.162,3.892,3.848,3.848,0,0,0,3.122,1.4,3.543,3.543,0,0,0,3.668-2.436H250.4a6.9,6.9,0,0,1-2.52,3.738,7.437,7.437,0,0,1-4.592,1.386,7.649,7.649,0,0,1-3.92-.994,6.967,6.967,0,0,1-2.674-2.8A8.742,8.742,0,0,1,235.732,13.832Z" transform="translate(21.813) rotate(90)" opacity="0.55"/></svg>