<svg xmlns="http://www.w3.org/2000/svg" xmlns:xlink="http://www.w3.org/1999/xlink" width="265" height="210" viewBox="0 0 265 210"><defs><linearGradient id="a" x1="0.221" y1="1.188" x2="0.772" y2="-0.152" gradientUnits="objectBoundingBox"><stop offset="0" stop-color="#393939"/><stop offset="1" stop-color="#636363"/></linearGradient><linearGradient id="b" x1="0.5" y1="0.991" x2="0.5" y2="-0.209" xlink:href="#a"/></defs><g transform="translate(-320 -8913)"><rect width="265" height="210" transform="translate(320 8913)" fill="#fff"/><g transform="translate(107.458 8596.845)"><g transform="translate(218.541 331.155)"><path d="M241.006,511.951s-15.657-14.461-21.076-34.212c-2-7.305-2.494-17.318,3.059-23.879,3.135-3.7,8-6.293,13.251-7.508,13.7-3.173,16.753-15,14.4-25.7-1.963-8.951-6.9-17.345-8.248-26.376-3.326-22.21,16.168-38.481,37.446-49.116a136.445,136.445,0,0,1,73.518-13.343l.76.08c28.434,2.948,57.567,26.349,48.849,51.721-1.806,5.255-2.673,11.72,3.731,15.122a34.589,34.589,0,0,0,8.779,2.7c44.7,9.89,67.977,48.723,49.372,84.02a61.918,61.918,0,0,1-21.068,22.954l-202.778,3.54Z" transform="translate(-218.541 -331.155)" fill="#ededed"/></g><g transform="translate(402.939 467.257)"><path d="M711.592,704.476l4.227-3.227a50.208,50.208,0,0,1-10.139,27.984l-2.738.05c-.447-.936-2.158-5.216-1.275-14.4l3.6,2.627-3.17-4.873s3.551-12.1,4.907-14.755l1.906,4.938-.836-7.611a33.04,33.04,0,0,1,6.549-7.641,45.265,45.265,0,0,1,1.142,10.983l-4.178,5.927Z" transform="translate(-701.418 -687.566)" fill="#06eda5"/><path d="M702.942,729.272c-.447-.935-2.158-5.216-1.275-14.4l3.6,2.627-3.17-4.873s3.548-12.1,4.907-14.755l1.906,4.938-.836-7.611a33.04,33.04,0,0,1,6.549-7.641s-8.577,35.186-10.608,41.693l-1.073.019Z" transform="translate(-701.418 -687.56)" fill="#02d79c"/><path d="M724.167,741.729l-14.607.256a51.963,51.963,0,0,1,9.36-16.5l-.214,6.183,2.746-8.543c5.831-6.091,17.894-10.467,17.894-10.467l-.745,4.331,2.841-4.594c1.734-.92,12.7-4.227,12.7-4.227l-4.357,7.507-3.624.39,2.807.871a61.071,61.071,0,0,1-10.693,14.714l-12.331.89,9.218,1.867a29,29,0,0,1-11,7.324Z" transform="translate(-706.451 -700.3)" fill="#06eda5"/><g transform="translate(6.019 7.867)"><path d="M728.877,741.723l-11.7.2c13.369-15.477,41.678-33.765,41.678-33.765l-4.361,7.508-3.624.39,2.807.871a61.069,61.069,0,0,1-10.693,14.713l-12.331.89,9.218,1.867a29,29,0,0,1-11,7.324Z" transform="translate(-717.18 -708.16)" fill="#02d79c"/></g></g><g transform="translate(246.12 364.479)"><g transform="translate(119.049 0)"><path d="M602.51,427.829v26.391h18.823V427.829a9.411,9.411,0,0,0-18.823,0Z" transform="translate(-602.51 -418.42)" fill="#d4d4d4"/><path d="M651.8,454.48V467.1a9.411,9.411,0,0,0,18.823,0V454.48Z" transform="translate(-632.977 -440.71)" fill="#fff"/><path d="M640.414,476.15v13.755h13.755a9.413,9.413,0,0,1-9.413-9.409V476.15H640.41Z" transform="translate(-625.937 -454.104)" fill="#d4d4d4"/></g><path d="M353.987,529.04h133.3a2.549,2.549,0,0,1,2.547,2.547v89.962H351.44V531.587a2.549,2.549,0,0,1,2.547-2.547Z" transform="translate(-328.268 -486.797)" fill="url(#a)"/><path d="M673.1,600.364H652.166a4.252,4.252,0,0,0-4.246,4.246v12.468a4.252,4.252,0,0,0,4.246,4.246H673.1V600.36Z" transform="translate(-511.53 -530.882)" opacity="0.2"/><rect width="80.8" height="128.699" transform="translate(156.721 48.093) rotate(90)" fill="#f9f9f9"/><path d="M668.251,600.364H652.166a4.252,4.252,0,0,0-4.246,4.246v12.468a4.252,4.252,0,0,0,4.246,4.246h16.084V600.36Z" transform="translate(-511.53 -530.882)" fill="#02d79c" opacity="0.4"/><path d="M317.592,771.28H480.525a1.064,1.064,0,0,1,1.062,1.062h0a8.331,8.331,0,0,1-8.329,8.329h-148.4a8.331,8.331,0,0,1-8.329-8.329h0A1.064,1.064,0,0,1,317.592,771.28Z" transform="translate(-306.689 -636.532)" fill="url(#b)"/><path d="M437.07,771.28h73a4.7,4.7,0,0,1-4.693,4.693h-63.6a4.7,4.7,0,0,1-4.693-4.693h0Z" transform="translate(-381.198 -636.532)" fill="#232323"/><path d="M574.343,529.04,538.29,621.545h23.47l29.263-92.272v-.233Z" transform="translate(-443.765 -486.797)" fill="#fff" opacity="0.2"/><path d="M491.86,621.545h14.347l29.339-92.505h-7.63Z" transform="translate(-415.065 -486.797)" fill="#fff" opacity="0.2"/><g transform="translate(65.411 101.25)"><rect width="53.917" height="13.816" rx="6.908" fill="#02d79c"/><g transform="translate(7.16 3.994)"><path d="M484.966,696.279a1.924,1.924,0,0,1-2,1.955h-.741v1.676H480.8V694.32h2.173a1.924,1.924,0,0,1,2,1.955Zm-1.428,0a.561.561,0,0,0-.565-.592h-.741v1.191h.741A.566.566,0,0,0,483.538,696.279Z" transform="translate(-480.8 -694.205)" fill="#fff"/><path d="M496.3,699.115h-1.86l-.241.806h-1.55l1.844-5.591h1.741l1.844,5.591h-1.543l-.241-.806Zm-.367-1.23-.565-1.9-.557,1.9h1.127Z" transform="translate(-488.125 -694.212)" fill="#fff"/><path d="M510.315,697.771v2.15h-1.428V697.79L507,694.33h1.6l.989,2.07,1-2.07h1.6l-1.886,3.441Z" transform="translate(-496.995 -694.212)" fill="#fff"/><path d="M535.2,694.33v5.591h-1.1l-1.974-2.811v2.811H530.69V694.33H531.8l1.974,2.811V694.33Z" transform="translate(-511.638 -694.212)" fill="#fff"/><path d="M546.34,696.934a2.931,2.931,0,1,1,2.929,2.914A2.892,2.892,0,0,1,546.34,696.934Zm4.441,0a1.508,1.508,0,1,0-1.508,1.516A1.465,1.465,0,0,0,550.781,696.934Z" transform="translate(-521.312 -694.02)" fill="#fff"/><path d="M563.74,694.33h1.543l.863,3.521,1-3.521h1.127l1,3.521.871-3.521h1.535l-1.558,5.591h-1.508l-.894-3.154-.894,3.154H565.31l-1.566-5.591Z" transform="translate(-532.068 -694.212)" fill="#fff"/></g></g><g transform="translate(0 62.551)"><rect width="48.04" height="26.693" rx="7.59" transform="translate(0.947 0.764)" fill="#d6d6d6"/><rect width="48.04" height="26.693" rx="7.59" fill="#f4f4f4"/><path d="M311.015,591.354H297.287a1.076,1.076,0,0,1-1.077-1.077h0a1.076,1.076,0,0,1,1.077-1.077h13.728a1.076,1.076,0,0,1,1.077,1.077h0A1.076,1.076,0,0,1,311.015,591.354Z" transform="translate(-294.129 -586.535)" fill="#02d79c"/><path d="M351.627,591.354h-8.21a1.076,1.076,0,0,1-1.077-1.077h0a1.076,1.076,0,0,1,1.077-1.077h8.21a1.076,1.076,0,0,1,1.077,1.077h0A1.076,1.076,0,0,1,351.627,591.354Z" transform="translate(-322.643 -586.535)" fill="#02d79c"/><g transform="translate(2.081 6.908)"><rect width="3.727" height="2.154" transform="translate(4.369 4.949)" fill="#feab00"/><path d="M318.53,602.464h3.941V601.6a1.3,1.3,0,0,0-1.295-1.295H318.53Z" transform="translate(-310.007 -600.31)" fill="#feab00"/><rect width="3.727" height="1.944" transform="translate(4.369 2.581)" fill="#feab00"/><rect width="3.727" height="2.154" transform="translate(4.369)" fill="#feab00"/><path d="M300.151,600.31H297.5a1.3,1.3,0,0,0-1.295,1.295v.859h3.941Z" transform="translate(-296.21 -600.31)" fill="#feab00"/><path d="M318.53,613.27v2.154h2.646a1.3,1.3,0,0,0,1.295-1.295v-.859Z" transform="translate(-310.007 -608.321)" fill="#feab00"/><path d="M300.151,613.27H296.21v.859a1.3,1.3,0,0,0,1.295,1.295h2.646Z" transform="translate(-296.21 -608.321)" fill="#feab00"/><rect width="3.941" height="1.944" transform="translate(8.523 2.581)" fill="#feab00"/><rect width="3.941" height="1.944" transform="translate(0 2.581)" fill="#feab00"/></g><rect width="9.348" height="4.243" rx="2.12" transform="translate(2.123 16.428)" fill="#02d79c"/><rect width="9.348" height="4.243" rx="2.12" transform="translate(13.602 16.428)" fill="#02d79c"/><rect width="9.348" height="4.243" rx="2.12" transform="translate(25.085 16.428)" fill="#02d79c"/><rect width="9.348" height="4.243" rx="2.12" transform="translate(36.564 16.428)" fill="#02d79c"/><path d="M311.576,643.249H296.9a.584.584,0,0,1-.584-.584h0a.584.584,0,0,1,.584-.584h14.672a.584.584,0,0,1,.584.584h0a.584.584,0,0,1-.584.584Z" transform="translate(-294.197 -619.221)" fill="#02d79c"/><path d="M351.543,643.249H342a.584.584,0,0,1-.584-.584h0a.584.584,0,0,1,.584-.584h9.539a.584.584,0,0,1,.584.584h0A.584.584,0,0,1,351.543,643.249Z" transform="translate(-322.074 -619.221)" fill="#02d79c"/></g><g transform="translate(59.347 75.947)"><rect width="12.548" height="67.359" rx="6.274" transform="translate(67.359) rotate(90)" fill="#02d79c"/><path d="M456.511,631.407h54.81a3.763,3.763,0,0,0,0-7.527h-54.81a3.763,3.763,0,0,0,0,7.527Z" transform="translate(-450.237 -621.367)" fill="#05f"/></g><g transform="translate(66.977 0.172)"><path d="M602.51,418.87v9.409a9.409,9.409,0,0,1,9.409-9.409Z" transform="translate(-550.438 -418.87)" fill="#fff"/><path d="M466.15,428.272v76.413h52.072V418.87H475.552a9.4,9.4,0,0,0-9.4,9.4Z" transform="translate(-466.15 -418.87)" fill="#fff"/><g transform="translate(5.281 7.359)"><path d="M491.077,509.407H480.939a.957.957,0,0,1-.959-.959h0a.957.957,0,0,1,.959-.958h10.139a.957.957,0,0,1,.959.958h0A.957.957,0,0,1,491.077,509.407Z" transform="translate(-479.98 -481.007)" fill="#02d79c"/><path d="M529.377,464.7H519.239a.957.957,0,0,1-.958-.958h0a.957.957,0,0,1,.958-.958h10.139a.957.957,0,0,1,.958.958h0A.957.957,0,0,1,529.377,464.7Z" transform="translate(-503.654 -453.371)" fill="#c4c4c4"/><path d="M579.786,509.407h-2.658a.957.957,0,0,1-.958-.959h0a.957.957,0,0,1,.958-.958h2.658a.957.957,0,0,1,.958.958h0A.957.957,0,0,1,579.786,509.407Z" transform="translate(-539.438 -481.007)" fill="#02d79c"/><path d="M486.441,519.277h-5.5a.957.957,0,0,1-.958-.958h0a.957.957,0,0,1,.958-.959h5.5a.957.957,0,0,1,.959.959h0A.957.957,0,0,1,486.441,519.277Z" transform="translate(-479.98 -487.108)" fill="#02d79c"/><path d="M510.719,519.277h-7.11a.957.957,0,0,1-.959-.958h0a.957.957,0,0,1,.959-.959h7.11a.957.957,0,0,1,.958.959h0A.957.957,0,0,1,510.719,519.277Z" transform="translate(-493.993 -487.108)" fill="#02d79c"/><path d="M579.786,519.277h-2.658a.957.957,0,0,1-.958-.958h0a.957.957,0,0,1,.958-.959h2.658a.957.957,0,0,1,.958.959h0A.957.957,0,0,1,579.786,519.277Z" transform="translate(-539.438 -487.108)" fill="#02d79c"/><rect width="12.056" height="1.917" rx="0.959" transform="translate(0.004 45.191)" fill="#02d79c"/><rect width="4.575" height="1.917" rx="0.959" transform="translate(36.732 45.191)" fill="#02d79c"/><path d="M486.441,568.277h-5.5a.957.957,0,0,1-.958-.958h0a.957.957,0,0,1,.958-.959h5.5a.957.957,0,0,1,.959.959h0A.957.957,0,0,1,486.441,568.277Z" transform="translate(-479.98 -517.396)" fill="#02d79c"/><path d="M510.719,568.277h-7.11a.957.957,0,0,1-.959-.958h0a.957.957,0,0,1,.959-.959h7.11a.957.957,0,0,1,.958.959h0A.957.957,0,0,1,510.719,568.277Z" transform="translate(-493.993 -517.396)" fill="#02d79c"/><path d="M579.786,568.277h-2.658a.957.957,0,0,1-.958-.958h0a.957.957,0,0,1,.958-.959h2.658a.957.957,0,0,1,.958.959h0A.957.957,0,0,1,579.786,568.277Z" transform="translate(-539.438 -517.396)" fill="#02d79c"/><path d="M489.17,529.157h-8.222a.957.957,0,0,1-.959-.959h0a.957.957,0,0,1,.959-.958h8.222a.957.957,0,0,1,.958.958h0A.957.957,0,0,1,489.17,529.157Z" transform="translate(-479.986 -493.215)" fill="#02d79c"/><path d="M512.584,529.157h-1.856a.957.957,0,0,1-.958-.959h0a.957.957,0,0,1,.958-.958h1.856a.957.957,0,0,1,.958.958h0A.957.957,0,0,1,512.584,529.157Z" transform="translate(-498.394 -493.215)" fill="#02d79c"/><path d="M579.786,529.157h-2.658a.957.957,0,0,1-.958-.959h0a.957.957,0,0,1,.958-.958h2.658a.957.957,0,0,1,.958.958h0A.957.957,0,0,1,579.786,529.157Z" transform="translate(-539.438 -493.215)" fill="#02d79c"/><path d="M491.077,539.027H480.939a.957.957,0,0,1-.959-.959h0a.957.957,0,0,1,.959-.958h10.139a.957.957,0,0,1,.959.958h0A.957.957,0,0,1,491.077,539.027Z" transform="translate(-479.98 -499.316)" fill="#02d79c"/><path d="M579.786,539.027h-2.658a.957.957,0,0,1-.958-.959h0a.957.957,0,0,1,.958-.958h2.658a.957.957,0,0,1,.958.958h0A.957.957,0,0,1,579.786,539.027Z" transform="translate(-539.438 -499.316)" fill="#02d79c"/><path d="M486.441,548.907h-5.5a.957.957,0,0,1-.958-.959h0a.957.957,0,0,1,.958-.958h5.5a.957.957,0,0,1,.959.958h0A.957.957,0,0,1,486.441,548.907Z" transform="translate(-479.98 -505.423)" fill="#02d79c"/><path d="M510.719,548.907h-7.11a.957.957,0,0,1-.959-.959h0a.957.957,0,0,1,.959-.958h7.11a.957.957,0,0,1,.958.958h0A.957.957,0,0,1,510.719,548.907Z" transform="translate(-493.993 -505.423)" fill="#02d79c"/><path d="M579.786,548.907h-2.658a.957.957,0,0,1-.958-.959h0a.957.957,0,0,1,.958-.958h2.658a.957.957,0,0,1,.958.958h0A.957.957,0,0,1,579.786,548.907Z" transform="translate(-539.438 -505.423)" fill="#02d79c"/><path d="M489.17,603.147h-8.222a.957.957,0,0,1-.959-.958h0a.957.957,0,0,1,.959-.959h8.222a.957.957,0,0,1,.958.959h0A.957.957,0,0,1,489.17,603.147Z" transform="translate(-479.986 -538.95)" fill="#02d79c"/><path d="M512.584,603.147h-1.856a.957.957,0,0,1-.958-.958h0a.957.957,0,0,1,.958-.959h1.856a.957.957,0,0,1,.958.959h0A.957.957,0,0,1,512.584,603.147Z" transform="translate(-498.394 -538.95)" fill="#02d79c"/><rect width="41.303" height="0.516" transform="translate(0.004 54.57)" fill="#686868"/><rect width="41.303" height="0.516" transform="translate(0.004 22.863)" fill="#686868"/><rect width="24.05" height="5.228" rx="2.614" transform="translate(8.63)" fill="#c4c4c4"/><path d="M580.648,593.158a.167.167,0,0,0-.122-.046h-.905a1.833,1.833,0,0,0-.34-.764h1.237a.158.158,0,0,0,.168-.168v-.542a.158.158,0,0,0-.168-.168h-4.411a.158.158,0,0,0-.168.168v.706a.17.17,0,0,0,.168.168h.768c.745,0,1.218.2,1.42.6h-2.188a.158.158,0,0,0-.168.168v.542a.158.158,0,0,0,.168.168h2.265a1.039,1.039,0,0,1-.542.664,2.388,2.388,0,0,1-1.127.229h-.6a.17.17,0,0,0-.168.168v.672a.171.171,0,0,0,.046.118q1.02,1.083,2.639,3.028a.158.158,0,0,0,.134.065h1.035a.151.151,0,0,0,.153-.1.145.145,0,0,0-.023-.18q-1.547-1.9-2.433-2.841a2.683,2.683,0,0,0,1.463-.584,1.979,1.979,0,0,0,.684-1.241h.89a.167.167,0,0,0,.122-.046.17.17,0,0,0,.05-.122v-.542a.156.156,0,0,0-.05-.122Z" transform="translate(-539.295 -532.917)" fill="#02d79c"/></g></g><g transform="translate(138.291 71.391)"><rect width="17.15" height="53.145" rx="6.72" transform="translate(53.145) rotate(90)" fill="#e8e8e8"/><g transform="translate(26.292 4.17)"><path d="M731.973,617.672h-9.532a.691.691,0,0,1-.691-.691h0a.691.691,0,0,1,.691-.691h9.532a.691.691,0,0,1,.691.691h0A.691.691,0,0,1,731.973,617.672Z" transform="translate(-721.75 -616.29)" fill="#02d79c"/><path d="M729.512,627.392h-7.061a.691.691,0,0,1-.691-.691h0a.691.691,0,0,1,.691-.691h7.061a.691.691,0,0,1,.691.691h0A.691.691,0,0,1,729.512,627.392Z" transform="translate(-721.756 -622.298)" fill="#02d79c"/><path d="M760.524,627.392H748.281a.691.691,0,0,1-.691-.691h0a.691.691,0,0,1,.691-.691h12.243a.691.691,0,0,1,.691.691h0A.691.691,0,0,1,760.524,627.392Z" transform="translate(-737.722 -622.298)" fill="#02d79c"/><rect width="16.718" height="1.382" transform="translate(0 7.424)" fill="#02d79c"/></g></g><g transform="translate(143.041 64.22)"><path d="M674.022,606.963a11.935,11.935,0,0,1-5.568-3.9,14.011,14.011,0,0,1-2.471-5.06,18.954,18.954,0,0,1-.6-6.194l.126-1.283H666.9a8.9,8.9,0,0,0,4.777-1.325,7.19,7.19,0,0,0,1.646-1.367l1.245-1.241,1.222,1.245a7.088,7.088,0,0,0,1.646,1.367,8.9,8.9,0,0,0,4.777,1.325h1.394l.126,1.283a18.957,18.957,0,0,1-.6,6.194,14.017,14.017,0,0,1-2.471,5.06,11.935,11.935,0,0,1-5.568,3.9l-.535.183-.535-.183Z" transform="translate(-665.337 -586.59)" fill="#ffbf0d"/><path d="M677.028,592.02a9.987,9.987,0,0,1-7.653,3.273s-1.054,10.685,7.653,13.7Z" transform="translate(-667.808 -589.947)" fill="#ffcd45"/><path d="M689.48,592.02a9.987,9.987,0,0,0,7.653,3.273s1.054,10.685-7.653,13.7Z" transform="translate(-680.26 -589.947)" fill="#ffdf87"/></g><path d="M373.924,544.269H396.1a4.967,4.967,0,0,0,4.961-4.961V529.04h-32.1v10.269a4.967,4.967,0,0,0,4.96,4.961Z" transform="translate(-339.098 -486.797)" opacity="0.2"/><path d="M368.954,544.36v4.418a4.967,4.967,0,0,0,4.961,4.96h22.179a4.967,4.967,0,0,0,4.961-4.96V544.36h-32.1Z" transform="translate(-339.091 -496.267)" fill="#b3cbff"/><g transform="translate(31.772 25.872)"><rect width="29.694" height="28.289" rx="9.73" transform="translate(28.289 0) rotate(90)" fill="#05f"/><g transform="translate(5.012 1.771)"><circle cx="7.588" cy="7.588" r="7.588" transform="translate(0 14.77) rotate(-76.72)" fill="#fff"/><circle cx="3.529" cy="3.529" r="3.529" transform="translate(5.605 3.441)" fill="#708fff"/><path d="M402.989,526.068a7.554,7.554,0,0,0,4.949-1.837,5.28,5.28,0,0,0-9.9,0A7.574,7.574,0,0,0,402.989,526.068Z" transform="translate(-393.856 -509.341)" fill="#708fff"/></g><path d="M404.285,552.137H387.608a.957.957,0,0,1-.958-.958h0a.957.957,0,0,1,.958-.958h16.676a.957.957,0,0,1,.959.958h0a.957.957,0,0,1-.959.958Z" transform="translate(-381.804 -525.761)" fill="#02d79c"/><path d="M406.344,542.767H396.309a.957.957,0,0,1-.958-.959h0a.957.957,0,0,1,.958-.958h10.036a.957.957,0,0,1,.959.958h0A.957.957,0,0,1,406.344,542.767Z" transform="translate(-387.182 -519.969)" fill="#02d79c"/></g></g></g></g></svg>