
<svg xmlns="http://www.w3.org/2000/svg" width="265" height="210" viewBox="0 0 265 210"><g transform="translate(-828 -8410)"><path d="M0,0H265V210H0Z" transform="translate(828 8410)" fill="#fff"/><g transform="translate(607.54 8098.186)"><g transform="translate(229.46 326.814)"><g transform="translate(0 103.361)"><path d="M829.738,591.779a2.79,2.79,0,1,1,2.753-2.789A2.778,2.778,0,0,1,829.738,591.779Zm0-4.782a1.993,1.993,0,1,0,1.957,1.992A1.979,1.979,0,0,0,829.738,587Z" transform="translate(-588.878 -586.2)" fill="#bfbfbf"/><path d="M233.226,629.067a3.814,3.814,0,1,1,3.766-3.814A3.794,3.794,0,0,1,233.226,629.067Zm0-6.83a3.017,3.017,0,1,0,2.969,3.017A3,3,0,0,0,233.226,622.237Z" transform="translate(-229.46 -607.397)" fill="#bfbfbf"/></g><g transform="translate(4.46)"><path d="M296,336.635H241.05a.393.393,0,0,1-.335-.183.408.408,0,0,1-.028-.383c.12-.259,3.024-6.408,12-8.607,6.87-1.686,10.707.2,15.146,2.395,1.419.7,2.885,1.423,4.547,2.08,3.618,1.431,6.567.813,9.416.211,2.475-.518,5.029-1.056,7.934-.223,6.18,1.769,6.627,4.013,6.659,4.264a.4.4,0,0,1-.1.311.4.4,0,0,1-.3.135Zm-54.274-.8h53.652c-.462-.673-1.841-2-5.858-3.148-2.71-.777-5.061-.283-7.551.239-2.969.622-6.033,1.267-9.874-.251-1.694-.669-3.176-1.4-4.606-2.108-4.3-2.12-8.014-3.953-14.6-2.335-7.021,1.721-10.209,6.049-11.154,7.6Z" transform="translate(-240.652 -326.814)" fill="#bfbfbf"/><path d="M630.336,357.931H601.92a.4.4,0,0,1-.371-.538,9.91,9.91,0,0,1,6.328-5.519c3.65-1.092,5.67.124,8.013,1.53.729.438,1.482.893,2.335,1.3a6.208,6.208,0,0,0,4.718.12,6.884,6.884,0,0,1,4.232-.135c3.3,1.148,3.543,2.642,3.558,2.809a.394.394,0,0,1-.1.307.4.4,0,0,1-.295.132Zm-27.782-.8h27.153a5.722,5.722,0,0,0-2.793-1.7,6.181,6.181,0,0,0-3.774.155,6.94,6.94,0,0,1-5.26-.171c-.885-.426-1.654-.889-2.4-1.335-2.267-1.363-4.061-2.435-7.376-1.447A9.361,9.361,0,0,0,602.553,357.134Z" transform="translate(-457.721 -341.634)" fill="#bfbfbf"/></g><g transform="translate(90.565 58.635)"><path d="M465.066,606.355h0a6.058,6.058,0,0,0,7.1-1.869l15.142-19.406-8.846-6.24-14.433,24.407a2.169,2.169,0,0,0,1.032,3.1Z" transform="translate(-460.943 -537.047)" fill="#f9c29d"/><path d="M466.105,635.863l.61.355a5.141,5.141,0,0,0,6.177-.789l18.031-17.776-7.966-7.332-17.474,22.331A2.167,2.167,0,0,0,466.105,635.863Z" transform="translate(-461.719 -555.983)" fill="#ecac80"/><path d="M456.784,670.545l.239.673c.777,2.2,6,2.929,8.245,2.865l8.671-.247,6.679-.191,10.651-.3-1-10.843-8.4,1.478-12.736,2.24-8.269,1.45s-4.658.749-4.077,2.877Z" transform="translate(-456.734 -587.37)" fill="#ecac80"/><path d="M480.687,640.66a.2.2,0,0,1-.052-.394,11.966,11.966,0,0,0,3.642-3.873.2.2,0,1,1,.335.215c-1.817,2.813-3.662,4.017-3.9,4.049h-.024Z" transform="translate(-471.021 -571.61)" fill="#a55331"/><path d="M471.69,671.6a6.073,6.073,0,0,1-2.9-.649c.032-.1,3.443.853,5.627-.363a14.146,14.146,0,0,0,3.264-2.359.2.2,0,0,1,.295.271,14.261,14.261,0,0,1-3.363,2.439,6.017,6.017,0,0,1-2.921.669Z" transform="translate(-463.985 -590.779)" fill="#c18d68"/><path d="M486.888,670.217c.717,2.4,3.128,4.463,5.132,5.842l6.679-.191.586-.689,3.515-8-2.849-.976-12.736,2.24a1.878,1.878,0,0,0-.327,1.777Z" transform="translate(-474.816 -589.595)" fill="#e7a374"/><path d="M559.034,630.546l-32.843,7.814h-4.443l-.167-1.4-.108-.9-.51-4.236-.94-7.8a16.037,16.037,0,0,0-.689-3.1,14.625,14.625,0,0,0-2-3.985,17.672,17.672,0,0,1-2.542-15.517,18.1,18.1,0,0,1,.9-2.319l1.215-2.479L540.74,547.94l14.122,25.176c1.861,3.714,2.913,8.488.709,12.975l-4.654,11.452a.124.124,0,0,0-.008.024,8.742,8.742,0,0,0-.411.9,11.234,11.234,0,0,0-.554,6.707,10.191,10.191,0,0,0,.394,1.347l1.407,3.885,5.921,16.354.689,1.909.677,1.873Z" transform="translate(-491.182 -518.46)" fill="#ecac80"/><path d="M515.964,674.832a5.731,5.731,0,0,1,2.769.1,4.68,4.68,0,0,1,1.574.781,23.184,23.184,0,0,1,.191-5.148l-1.769-.59-.654.064-1.215,2.479a17.528,17.528,0,0,0-.9,2.319Z" transform="translate(-492.359 -591.863)" fill="#c18d68"/><path d="M594.948,686.157c1.04,1.69,3.335,1.235,5.113.526l-1.407-3.885a11.234,11.234,0,0,1,.159-8.057A8.66,8.66,0,0,1,597.16,677C595.769,678.318,593.115,683.184,594.948,686.157Z" transform="translate(-539.497 -594.732)" fill="#c18d68"/><path d="M578.348,753.767H529.04a8.169,8.169,0,0,0,.729-.853,4.922,4.922,0,0,0,.745-1.443h0l1.4-1.036L546.374,739.8l14.066,1.642,6.272.729.159.02s.526.729,1.47,1.9c.506.622,1.124,1.363,1.849,2.188a70.032,70.032,0,0,0,5.467,5.579A26.945,26.945,0,0,1,578.348,753.767Z" transform="translate(-500.227 -633.867)" fill="#e5e5e5"/><g transform="translate(9.168)"><rect width="41.506" height="80.773" rx="6" fill="#011721"/><path d="M488.979,479.45h29.245a4.07,4.07,0,0,1,4.069,4.069v68.264a4.07,4.07,0,0,1-4.069,4.069H488.979a4.07,4.07,0,0,1-4.069-4.069V483.519A4.07,4.07,0,0,1,488.979,479.45Z" transform="translate(-482.85 -477.262)" fill="#fff"/><g transform="translate(0.004)" opacity="0.1"><path d="M520.607,477.24a5.965,5.965,0,0,0-5.308-3.28H485.7a5.972,5.972,0,0,0-5.953,5.953v29.946l40.861-32.62Z" transform="translate(-479.75 -473.96)" fill="#fff"/></g><g transform="translate(15.453 55.836)"><circle cx="5.3" cy="5.3" r="5.3" fill="#02d79c"/><path d="M530.1,624.97l-1.427-1.427a2.512,2.512,0,1,0-.689.721l1.407,1.407a.5.5,0,1,0,.709-.709Zm-3.547-1.064a1.694,1.694,0,1,1,1.694-1.694A1.692,1.692,0,0,1,526.552,623.906Z" transform="translate(-521.846 -617.466)" fill="#fff"/></g><g transform="translate(9.506 13.608)"><path d="M515.883,508.114a10.234,10.234,0,0,0-9.863,7.7l-.685-1.036a.936.936,0,0,0-1.606.96c.016.024.028.048.044.068l2.06,3.12a1.021,1.021,0,0,0,.594.4.969.969,0,0,0,.709-.135l3.088-2.08a.937.937,0,0,0-.992-1.59l-.052.036-1.407.948a8.393,8.393,0,1,1,1.291,6.754.936.936,0,0,0-1.57,1.02.334.334,0,0,1,.032.048,10.239,10.239,0,1,0,8.348-16.214h0Z" transform="translate(-503.595 -508.11)" fill="#011721"/><path d="M532.786,519.75a.935.935,0,0,0-.937.936v4.726a.963.963,0,0,0,.275.661l2.809,2.833a.948.948,0,0,0,1.323.008.933.933,0,0,0,0-1.323l-2.538-2.562v-4.343a.935.935,0,0,0-.936-.936h0Z" transform="translate(-520.591 -515.112)" fill="#011721"/></g></g><path d="M528.057,609.819l5.734,15.138,16.685-16.382,12.441-50.791s1.455-3.746-1.8-5.67h0a4.776,4.776,0,0,0-6.324,1.431l-24.547,35.967a23.973,23.973,0,0,0-2.188,20.3Z" transform="translate(-498.854 -520.583)" fill="#e7a374"/><path d="M567.52,715.058c-.08,0-.159-.008-.239-.008-3.483-.064-7.133-.032-10.867.243a76.205,76.205,0,0,0-8.54,1.092c-.127.024-.255.048-.383.076-.932.179-1.869.383-2.8.61l-.375.1a52.074,52.074,0,0,0-12.712,4.965c-.976.538-1.941,1.116-2.9,1.741-.542-3.885-.626-6.451-.845-9.46-.108-1.526-.255-3.16-.514-5.144a8.848,8.848,0,0,1,4.288-8.775,66.451,66.451,0,0,1,26.519-8.974q1.65,4.13,3.315,8.316c.02.052.036.108.056.163q2.983,7.454,5.993,15.059Z" transform="translate(-499.166 -604.826)" fill="#05293c"/><path d="M600.4,728.088a7.1,7.1,0,0,1,6.651,2.857,3.347,3.347,0,0,1,1.873-1.873,4.429,4.429,0,0,1,4.188.964v-.008a14.9,14.9,0,0,1-1.706-2.439c-2.008-5.069-3.9-9.831-5.89-14.8.809,2.339.626,8.4-1.207,11.13-.311.466-.63.889-.94,1.275a15.187,15.187,0,0,1-2.965,2.893Z" transform="translate(-543.151 -617.62)" fill="#011721"/><path d="M544.494,719.525a.2.2,0,0,1-.183-.124c-2.156-5.415-1.849-8.017-1.211-9.241.49-.944,1.427-1.088,1.454-.984s-.713.391-1.12,1.184c-.59,1.156-.849,3.638,1.239,8.894a.2.2,0,0,1-.108.255.225.225,0,0,1-.072.012Z" transform="translate(-508.401 -615.429)" fill="#011721"/><path d="M576.562,744.842c-.127.024-.255.048-.383.076a.057.057,0,0,1-.008-.024c-.215-2.2-1.291-6.009-1.2-6.065A27.531,27.531,0,0,1,576.562,744.842Z" transform="translate(-527.852 -633.283)" fill="#011721"/><path d="M563.467,735.892l-.375.1c-.343-.921-4.6-12.879-4.6-13.178.112,0,4.921,12.979,4.957,13.034A.123.123,0,0,1,563.467,735.892Z" transform="translate(-517.942 -623.647)" fill="#011721"/><path d="M528.744,748.97c.219,3.009.3,5.575.841,9.46q1.434-.938,2.9-1.737c-1.255-1.084-2.773-3.14-3.555-6.993a7.434,7.434,0,0,0-.187-.729Z" transform="translate(-500.047 -639.383)" fill="#011721"/><path d="M588.658,597.889a.234.234,0,0,1-.088-.02c-.032-.016-3.4-1.626-4.658-2.036a.2.2,0,0,1,.124-.379c1.283.414,4.567,1.988,4.706,2.052a.2.2,0,0,1,.1.267.2.2,0,0,1-.179.112Z" transform="translate(-533.15 -547.034)" fill="#c18d68"/><path d="M585.541,603.238a.136.136,0,0,1-.068-.012,49.926,49.926,0,0,1-5.531-2.283.2.2,0,0,1-.048-.279.2.2,0,0,1,.279-.048,51.55,51.55,0,0,0,5.435,2.235.2.2,0,0,1-.068.387Z" transform="translate(-530.794 -550.124)" fill="#c18d68"/><g transform="translate(55.137 30.891)"><path d="M604.356,554.385l-.375,1.072-1.506,4.32s-1.156,3.009-4.2,2.467a3.914,3.914,0,0,1-2.789-3.375,5.032,5.032,0,0,1,.2-1.383l1.407-4.268h0l.295-.9a4.8,4.8,0,0,1,2.7-.833,4.638,4.638,0,0,1,2.371.646,4.1,4.1,0,0,1,1.9,2.259Z" transform="translate(-595.334 -551.48)" fill="#fcc6a0"/><path d="M596.746,564.421l-.12-.092a3.866,3.866,0,0,1-1.359-4.152l1.4-4.252a.149.149,0,0,1,.283.092l-1.4,4.252a3.552,3.552,0,0,0,1.259,3.821l.116.088a3.115,3.115,0,0,0,2.813.442,3.552,3.552,0,0,0,2.315-2.152l1.482-4.32a.15.15,0,0,1,.283.1l-1.482,4.32a3.852,3.852,0,0,1-2.51,2.343A3.4,3.4,0,0,1,596.746,564.421Z" transform="translate(-595.1 -554.092)" fill="#fff"/></g></g><g transform="translate(0.315 177.934)"><path d="M416.836,774.536H230.848a.6.6,0,0,1,0-1.2H416.836a.6.6,0,1,1,0,1.2Z" transform="translate(-230.25 -773.34)" fill="#919191"/><path d="M725.488,774.536h-15.17a.6.6,0,0,1,0-1.2h15.17a.6.6,0,0,1,0,1.2Z" transform="translate(-518.659 -773.34)" fill="#777171"/><path d="M794.432,774.536H759.378a.6.6,0,0,1,0-1.2h35.055a.6.6,0,1,1,0,1.2Z" transform="translate(-548.169 -773.34)" fill="#777171"/></g></g><g transform="translate(259.183 364.728)"><path d="M369.477,427.794v24.714a5.85,5.85,0,0,1-5.822,5.834H309.872a5.847,5.847,0,0,1-5.822-5.834V427.794a5.849,5.849,0,0,1,5.822-5.834h53.783A5.847,5.847,0,0,1,369.477,427.794Z" transform="translate(-304.05 -421.96)" fill="#02d79c"/><g transform="translate(4.28 4.455)"><rect width="2.2" height="2.2" transform="translate(21.956 27.607)" fill="#05f"/><rect width="11.795" height="0.426" transform="translate(25.475 28.492)" fill="#fff"/><path d="M314.79,433.14V458.7h56.88V433.14H314.79Zm56.453,4.208h-4.989v-3.782h4.989Zm-28.1,8.42H337.9v-3.782h5.244Zm.426-3.782h5.244v3.782h-5.244Zm-6.1,3.782h-5.244v-3.782h5.244Zm0,.426v3.782h-5.244v-3.782Zm.426,0h5.244v3.782H337.9Zm5.67,0h5.244v3.782h-5.244Zm5.67,0h5.244v3.782h-5.244Zm0-.426v-3.782h5.244v3.782Zm5.67-3.782h5.244v3.782h-5.244Zm0-.426v-3.782h5.244v3.782Zm-.426,0h-5.244v-3.782h5.244Zm-5.67,0h-5.244v-3.782h5.244Zm-5.67,0H337.9v-3.782h5.244Zm-5.67,0h-5.244v-3.782h5.244Zm-5.67,0h-5.244v-3.782h5.244Zm0,.426v3.782h-5.244v-3.782Zm-5.67,3.782h-5.244v-3.782h5.244Zm0,.426v3.782h-5.244v-3.782Zm.426,0h5.244v3.782h-5.244Zm5.244,4.208v3.782h-5.244V450.4Zm.426,0h5.244v3.782h-5.244Zm5.67,0h5.244v3.782H337.9Zm5.67,0h5.244v3.782h-5.244Zm5.67,0h5.244v3.782h-5.244Zm5.67,0h5.244v3.782h-5.244Zm0-.426v-3.782h5.244v3.782Zm5.67-3.782h5.244v3.782h-5.244Zm0-.426v-3.782h5.244v3.782Zm0-4.212v-3.782h5.244v3.782Zm0-4.208v-3.782h5.244v3.782Zm-.426,0h-5.244v-3.782h5.244Zm-5.67,0h-5.244v-3.782h5.244Zm-5.67,0h-5.244v-3.782h5.244Zm-5.67,0H337.9v-3.782h5.244Zm-5.67,0h-5.244v-3.782h5.244Zm-5.67,0h-5.244v-3.782h5.244Zm-5.67,0h-5.244v-3.782h5.244Zm0,.426v3.782h-5.244v-3.782Zm-5.67,3.782H315.22v-3.782h5.244Zm0,.426v3.782H315.22v-3.782Zm0,4.212v3.782H315.22v-3.782Zm0,4.208v3.782H315.22V450.4Zm.426,0h5.244v3.782h-5.244Zm5.244,4.208v3.658h-5.244V454.61Zm.426,0h5.244v3.658h-5.244Zm5.67,0h5.244v3.658h-5.244Zm5.67,0h5.244v3.658H337.9Zm5.67,0h5.244v3.658h-5.244Zm5.67,0h5.244v3.658h-5.244Zm5.67,0h5.244v3.658h-5.244Zm5.67,0h5.244v3.658h-5.244Zm0-.426V450.4h5.244v3.782Zm5.67-3.782h4.989v3.782h-4.989Zm0-.426v-3.782h4.989v3.782Zm0-4.208v-3.782h4.989v3.782Zm0-4.212v-3.782h4.989v3.782Zm-45.794-7.994v3.782h-5.244v-3.782Zm-5.244,21.052h5.244v3.658h-5.244Zm51.038,3.658v-3.658h4.989v3.658Z" transform="translate(-314.79 -433.14)" fill="#fff"/><g transform="translate(1.777 1.949)"><rect width="0.905" height="18.597" transform="translate(0 4.591)" fill="#05f"/><rect width="0.905" height="14.684" transform="translate(1.805 8.504)" fill="#05f"/><rect width="0.905" height="10.018" transform="translate(5.419 13.17)" fill="#05f"/><rect width="0.905" height="6.029" transform="translate(7.229 17.159)" fill="#05f"/><rect width="0.905" height="6.479" transform="translate(33.883 16.708)" fill="#05f"/><rect width="0.905" height="14.684" transform="translate(35.692 8.504)" fill="#05f"/><rect width="0.905" height="10.018" transform="translate(39.306 13.17)" fill="#05f"/><rect width="0.905" height="1.965" transform="translate(41.112 21.223)" fill="#05f"/><rect width="0.905" height="16.115" transform="translate(28.009 7.073)" fill="#05f"/><rect width="0.905" height="19.426" transform="translate(29.819 3.762)" fill="#05f"/><rect width="0.905" height="3.013" transform="translate(10.843 20.175)" fill="#05f"/><rect width="0.905" height="14.987" transform="translate(12.648 8.201)" fill="#05f"/><rect width="0.905" height="6.029" transform="translate(16.716 17.159)" fill="#05f"/><rect width="0.905" height="17.92" transform="translate(18.522 5.268)" fill="#05f"/><rect width="0.905" height="13.556" transform="translate(22.363 9.631)" fill="#05f"/><rect width="0.905" height="10.018" transform="translate(24.172 13.17)" fill="#05f"/><rect width="0.905" height="3.24" transform="translate(45.18 19.948)" fill="#05f"/><rect width="0.905" height="17.318" transform="translate(46.985 5.87)" fill="#05f"/><rect width="0.905" height="18.749" transform="translate(50.6 4.439)" fill="#05f"/><rect width="0.905" height="23.192" transform="translate(52.409)" fill="#05f"/></g><rect width="2.2" height="2.2" transform="translate(1.913 27.607)" fill="#05f"/><rect width="11.799" height="0.426" transform="translate(5.427 28.492)" fill="#fff"/></g></g><g transform="translate(377.122 356.906)"><path d="M603.148,402.33h49.316a3.131,3.131,0,0,1,3.128,3.128v32.728a3.131,3.131,0,0,1-3.128,3.128H603.148a3.131,3.131,0,0,1-3.128-3.128V405.458A3.131,3.131,0,0,1,603.148,402.33Z" transform="translate(-600.02 -402.33)" fill="#d4d4d4"/><path d="M657.121,460.958h-49.4a4.9,4.9,0,0,1,4.491-6.368c1.837-.187,2.395.725,4.1.291a7.064,7.064,0,0,0,2.439-1.367c1.343-.972,1.431-1.439,2.506-2.048a7.389,7.389,0,0,1,2.618-.841c2.136-.243,3.048.733,4.443.94,2.937.438,3.69-4.12,8.715-6.483a17.13,17.13,0,0,1,10.141-1.7c2.048.363,3.252,1.076,5.244.665a8.5,8.5,0,0,0,4.7-3.116v20.032Z" transform="translate(-604.545 -425.549)" fill="#05f"/><path d="M657.264,470.39H607.78v-.9a5.565,5.565,0,0,1,3.032-2.829c1.861-.582,2.933.618,5.38.781,2.917.2,3.435-1.375,7.1-2.188,4.112-.913,4.718.781,8.48.1,4.547-.825,4.168-3.4,8.667-4.642,4.985-1.383,7.229,1.271,11.835-.486a12.566,12.566,0,0,0,4.989-3.61v13.784Z" transform="translate(-604.688 -434.98)" fill="#02d79c"/><rect width="17.9" height="0.936" transform="translate(34.616 4.228)" fill="#fff"/><rect width="17.9" height="0.936" transform="translate(34.616 9.217)" fill="#fff"/><rect width="11.843" height="0.936" transform="translate(3.12 3.268)" fill="#fff"/><rect width="11.843" height="0.936" transform="translate(3.12 6.392)" fill="#fff"/><rect width="11.843" height="0.936" transform="translate(3.12 9.516)" fill="#fff"/><rect width="2.853" height="2.853" transform="translate(30.592 3.268)" fill="#aba4fc"/><rect width="2.853" height="2.853" transform="translate(30.592 8.261)" fill="#05f"/></g></g></g></svg>