
<svg xmlns="http://www.w3.org/2000/svg" width="265" height="210" viewBox="0 0 265 210"><g transform="translate(-6813 12446)"><rect width="265" height="210" transform="translate(6813 -12446)" fill="none"/><g transform="translate(6594.9 -12754.814)"><g transform="translate(230.1 326.814)"><g transform="translate(0 47.186)"><path d="M830.306,591.622a2.711,2.711,0,1,1,2.68-2.711A2.7,2.7,0,0,1,830.306,591.622Zm0-4.647a1.937,1.937,0,1,0,1.905,1.936A1.92,1.92,0,0,0,830.306,586.975Z" transform="translate(-596.232 -532.936)" fill="#bfbfbf"/><path d="M233.76,628.852a3.706,3.706,0,1,1,3.66-3.706A3.687,3.687,0,0,1,233.76,628.852Zm0-6.638a2.932,2.932,0,1,0,2.885,2.932A2.912,2.912,0,0,0,233.76,622.215Z" transform="translate(-230.1 -554.529)" fill="#bfbfbf"/><path d="M555.578,451.634a1.487,1.487,0,1,1,1.472-1.487A1.478,1.478,0,0,1,555.578,451.634Zm0-2.529a1.042,1.042,0,1,0,1.022,1.042A1.033,1.033,0,0,0,555.578,449.105Z" transform="translate(-428.634 -448.66)" fill="#fff"/></g><g transform="translate(4.334)"><path d="M295.081,336.358h-53.4a.382.382,0,0,1-.325-.178.4.4,0,0,1-.027-.372c.116-.252,2.943-6.227,11.664-8.365,6.68-1.638,10.406.2,14.72,2.327,1.379.682,2.8,1.383,4.419,2.021,3.516,1.39,6.382.79,9.151.205,2.4-.5,4.887-1.026,7.71-.217,6.006,1.719,6.44,3.9,6.471,4.144a.389.389,0,0,1-.093.3.393.393,0,0,1-.29.132Zm-52.745-.775h52.14c-.449-.654-1.789-1.94-5.693-3.059-2.637-.755-4.918-.275-7.339.232-2.885.6-5.867,1.231-9.6-.244-1.646-.651-3.086-1.359-4.477-2.049-4.179-2.06-7.788-3.842-14.193-2.269a17.219,17.219,0,0,0-10.839,7.389Z" transform="translate(-241.292 -326.814)" fill="#bfbfbf"/><path d="M706.4,389.851H678.789a.381.381,0,0,1-.318-.167.377.377,0,0,1-.043-.356,9.631,9.631,0,0,1,6.15-5.364c3.547-1.057,5.511.12,7.788,1.483.709.426,1.444.867,2.269,1.262a6.033,6.033,0,0,0,4.585.116,6.689,6.689,0,0,1,4.113-.132c3.21,1.115,3.443,2.567,3.458,2.73a.383.383,0,0,1-.1.3.387.387,0,0,1-.286.128Zm-27-.775h26.388a5.561,5.561,0,0,0-2.715-1.65,6.007,6.007,0,0,0-3.667.151,6.745,6.745,0,0,1-5.112-.167c-.86-.414-1.607-.864-2.331-1.3-2.2-1.324-3.946-2.37-7.168-1.406A9.1,9.1,0,0,0,679.4,389.076Z" transform="translate(-509.128 -361.582)" fill="#bfbfbf"/></g><g transform="translate(0.31 172.998)"><path d="M412.23,774.7H231.481a.581.581,0,1,1,0-1.162H412.23a.581.581,0,1,1,0,1.162Z" transform="translate(-230.9 -773.54)" fill="#777171"/><path d="M725.694,774.7H710.951a.581.581,0,1,1,0-1.162h14.743a.581.581,0,0,1,0,1.162Z" transform="translate(-524.691 -773.54)" fill="#777171"/><path d="M794.068,774.7H760a.581.581,0,0,1,0-1.162h34.067a.581.581,0,0,1,0,1.162Z" transform="translate(-554.746 -773.54)" fill="#777171"/></g><g transform="translate(36.46 60.763)"><path d="M344.053,499.7,324.311,601.762a3.365,3.365,0,0,0,3.3,4h10.413Z" transform="translate(-324.248 -493.512)" fill="#bfbfbf"/><path d="M355.23,498.06,342.145,598.271a5.551,5.551,0,0,0,5.5,6.27h19.2L356.02,497.7l-.79.36Z" transform="translate(-335.185 -492.286)" fill="#e5e5e5"/><path d="M366.721,498.63,360.862,598.2a6.526,6.526,0,0,0,6.514,6.909h28.63Z" transform="translate(-346.676 -492.856)" fill="#afafaf"/><path d="M375.44,500.73l2.846,98.759A6.526,6.526,0,0,0,384.8,606.4h28.63Z" transform="translate(-355.616 -494.143)" fill="#bfbfbf"/><g transform="translate(20.693 5.05)"><path d="M514.332,604.424H401.45a5.838,5.838,0,0,1-5.743-4.786L378.528,505.7a6.945,6.945,0,0,1,6.831-8.194H496.913a5.837,5.837,0,0,1,5.743,4.786l17.415,95.242a5.837,5.837,0,0,1-5.743,6.885Z" transform="translate(-378.13 -497.22)" fill="#fff"/><path d="M513.885,604.255H401a6.124,6.124,0,0,1-6.026-5.027L377.8,505.3a7.236,7.236,0,0,1,7.118-8.535H496.474a6.124,6.124,0,0,1,6.026,5.027l17.415,95.242a6.126,6.126,0,0,1-6.026,7.23ZM384.916,497.337a6.657,6.657,0,0,0-6.549,7.85l17.175,93.933A5.544,5.544,0,0,0,401,603.67H513.881a5.547,5.547,0,0,0,5.456-6.545l-17.415-95.242a5.547,5.547,0,0,0-5.456-4.55H384.916Z" transform="translate(-377.683 -496.76)" fill="#999"/></g><path d="M378.918,517.893H503.743l-3.2-17.736a3.234,3.234,0,0,0-3.179-2.657H376.455a1.059,1.059,0,0,0-1.042,1.247Z" transform="translate(-355.589 -492.164)" fill="#02d79c"/><g transform="translate(20.835)"><path d="M383.46,483.72a5.415,5.415,0,0,0-5.41,5.41h1.038a4.372,4.372,0,0,1,8.744,0,4.293,4.293,0,0,1-.225,1.383,4.367,4.367,0,0,1-3.9,2.982v1.042a5.409,5.409,0,0,0-.248-10.812Z" transform="translate(-378.05 -483.72)" fill="#05f"/><path d="M392.637,508.353a1.2,1.2,0,0,1-.043.314,1.173,1.173,0,1,1-.2-1.03A1.152,1.152,0,0,1,392.637,508.353Z" transform="translate(-385.55 -498.095)" fill="#05f"/><g transform="translate(19.406)"><path d="M433.57,483.72a5.415,5.415,0,0,0-5.41,5.41H429.2a4.372,4.372,0,0,1,8.744,0,4.292,4.292,0,0,1-.225,1.383,4.367,4.367,0,0,1-3.9,2.982v1.042a5.409,5.409,0,0,0-.248-10.812Z" transform="translate(-428.16 -483.72)" fill="#05f"/><path d="M442.737,508.353a1.2,1.2,0,0,1-.043.314,1.174,1.174,0,1,1,.043-.314Z" transform="translate(-435.654 -498.095)" fill="#05f"/></g><g transform="translate(38.807)"><path d="M483.67,483.72a5.415,5.415,0,0,0-5.41,5.41H479.3a4.372,4.372,0,0,1,8.744,0,4.294,4.294,0,0,1-.225,1.383,4.367,4.367,0,0,1-3.9,2.982v1.042a5.409,5.409,0,0,0-.248-10.812Z" transform="translate(-478.26 -483.72)" fill="#05f"/><path d="M492.837,508.353a1.2,1.2,0,0,1-.043.314,1.175,1.175,0,1,1,.043-.314Z" transform="translate(-485.754 -498.095)" fill="#05f"/></g><g transform="translate(58.209)"><path d="M533.77,483.72a5.415,5.415,0,0,0-5.41,5.41H529.4a4.372,4.372,0,1,1,8.744,0,4.293,4.293,0,0,1-.225,1.383,4.367,4.367,0,0,1-3.9,2.982v1.042a5.409,5.409,0,0,0-.248-10.812Z" transform="translate(-528.36 -483.72)" fill="#05f"/><path d="M542.937,508.353a1.2,1.2,0,0,1-.043.314,1.173,1.173,0,1,1-.2-1.03A1.152,1.152,0,0,1,542.937,508.353Z" transform="translate(-535.854 -498.095)" fill="#05f"/></g><g transform="translate(77.61)"><path d="M583.87,483.72a5.415,5.415,0,0,0-5.41,5.41H579.5a4.372,4.372,0,0,1,8.744,0,4.291,4.291,0,0,1-.225,1.383,4.367,4.367,0,0,1-3.9,2.982v1.042a5.409,5.409,0,0,0-.248-10.812Z" transform="translate(-578.46 -483.72)" fill="#05f"/><path d="M593.037,508.353a1.2,1.2,0,0,1-.042.314,1.173,1.173,0,1,1-.2-1.03,1.153,1.153,0,0,1,.244.716Z" transform="translate(-585.954 -498.095)" fill="#05f"/></g><g transform="translate(97.016)"><path d="M633.98,483.72a5.415,5.415,0,0,0-5.41,5.41h1.038a4.372,4.372,0,0,1,8.744,0,4.3,4.3,0,0,1-.225,1.383,4.368,4.368,0,0,1-3.9,2.982v1.042a5.409,5.409,0,0,0-.248-10.812Z" transform="translate(-628.57 -483.72)" fill="#05f"/><path d="M643.147,508.353a1.2,1.2,0,0,1-.043.314,1.173,1.173,0,1,1-.2-1.03,1.152,1.152,0,0,1,.244.716Z" transform="translate(-636.064 -498.095)" fill="#05f"/></g><g transform="translate(116.418)"><path d="M684.08,483.72a5.415,5.415,0,0,0-5.41,5.41h1.038a4.372,4.372,0,0,1,8.744,0,4.291,4.291,0,0,1-.225,1.383,4.367,4.367,0,0,1-3.9,2.982v1.042a5.409,5.409,0,0,0-.248-10.812Z" transform="translate(-678.67 -483.72)" fill="#05f"/><path d="M693.247,508.353a1.2,1.2,0,0,1-.043.314,1.173,1.173,0,1,1-.2-1.03A1.152,1.152,0,0,1,693.247,508.353Z" transform="translate(-686.164 -498.095)" fill="#05f"/></g></g><g transform="translate(36.903 36.255)"><path d="M423.468,581.189h-2.711a.729.729,0,0,1-.682-.569l-.523-2.711a.457.457,0,0,1,.461-.569h2.711a.729.729,0,0,1,.682.569l.523,2.711A.457.457,0,0,1,423.468,581.189Z" transform="translate(-419.542 -577.34)" fill="#02d79c"/><g transform="translate(1.71 0.132)"><path d="M556.44,622.027h-6.308a1.7,1.7,0,0,1-1.584-1.324l-1.216-6.308a1.065,1.065,0,0,1,1.069-1.324h6.308a1.7,1.7,0,0,1,1.584,1.324l1.216,6.308A1.065,1.065,0,0,1,556.44,622.027Z" transform="translate(-499.54 -599.365)" fill="#05f"/><path d="M597.55,622.027h-6.308a1.7,1.7,0,0,1-1.584-1.324l-1.216-6.308a1.065,1.065,0,0,1,1.069-1.324h6.308a1.7,1.7,0,0,1,1.584,1.324l1.216,6.308A1.065,1.065,0,0,1,597.55,622.027Z" transform="translate(-524.729 -599.365)" fill="#e5e5e5"/><path d="M638.67,622.027h-6.308a1.7,1.7,0,0,1-1.584-1.324l-1.216-6.308a1.065,1.065,0,0,1,1.069-1.324h6.308a1.7,1.7,0,0,1,1.584,1.324l1.216,6.308A1.065,1.065,0,0,1,638.67,622.027Z" transform="translate(-549.925 -599.365)" fill="#e5e5e5"/><path d="M433.09,622.027h-6.308A1.7,1.7,0,0,1,425.2,620.7l-1.216-6.308a1.065,1.065,0,0,1,1.069-1.324h6.308a1.7,1.7,0,0,1,1.584,1.324l1.216,6.308A1.065,1.065,0,0,1,433.09,622.027Z" transform="translate(-423.958 -599.365)" fill="#e5e5e5"/><path d="M474.2,622.027h-6.308a1.7,1.7,0,0,1-1.584-1.324l-1.216-6.308a1.065,1.065,0,0,1,1.069-1.324h6.308a1.7,1.7,0,0,1,1.584,1.324l1.216,6.308A1.065,1.065,0,0,1,474.2,622.027Z" transform="translate(-449.148 -599.365)" fill="#e5e5e5"/><path d="M515.32,622.027h-6.308a1.7,1.7,0,0,1-1.584-1.324l-1.216-6.308a1.065,1.065,0,0,1,1.069-1.324h6.308a1.7,1.7,0,0,1,1.584,1.324l1.216,6.308A1.065,1.065,0,0,1,515.32,622.027Z" transform="translate(-474.344 -599.365)" fill="#e5e5e5"/><path d="M679.79,622.027h-6.308A1.7,1.7,0,0,1,671.9,620.7l-1.216-6.308a1.065,1.065,0,0,1,1.069-1.324h6.308a1.7,1.7,0,0,1,1.584,1.324l1.216,6.308A1.065,1.065,0,0,1,679.79,622.027Z" transform="translate(-575.121 -599.365)" fill="#e5e5e5"/><path d="M549.61,586.637H543.3a1.7,1.7,0,0,1-1.584-1.324L540.5,579a1.065,1.065,0,0,1,1.069-1.324h6.308A1.7,1.7,0,0,1,549.463,579l1.216,6.308A1.065,1.065,0,0,1,549.61,586.637Z" transform="translate(-495.354 -577.68)" fill="#e5e5e5"/><path d="M590.73,586.637h-6.308a1.7,1.7,0,0,1-1.584-1.324L581.622,579a1.065,1.065,0,0,1,1.069-1.324H589A1.7,1.7,0,0,1,590.583,579l1.216,6.308A1.065,1.065,0,0,1,590.73,586.637Z" transform="translate(-520.55 -577.68)" fill="#e5e5e5"/><path d="M631.85,586.637h-6.308a1.7,1.7,0,0,1-1.584-1.324L622.742,579a1.065,1.065,0,0,1,1.069-1.324h6.308A1.7,1.7,0,0,1,631.7,579l1.216,6.308A1.065,1.065,0,0,1,631.85,586.637Z" transform="translate(-545.746 -577.68)" fill="#e5e5e5"/><path d="M672.96,586.637h-6.308a1.7,1.7,0,0,1-1.584-1.324L663.852,579a1.065,1.065,0,0,1,1.069-1.324h6.308A1.7,1.7,0,0,1,672.813,579l1.216,6.308A1.065,1.065,0,0,1,672.96,586.637Z" transform="translate(-570.936 -577.68)" fill="#e5e5e5"/><path d="M563.676,659.537h-6.308a1.689,1.689,0,0,1-1.58-1.324l-1.216-6.308a1.065,1.065,0,0,1,1.069-1.325h6.308a1.7,1.7,0,0,1,1.584,1.325l1.216,6.308a1.065,1.065,0,0,1-1.069,1.324Z" transform="translate(-503.976 -622.349)" fill="#e5e5e5"/><path d="M604.79,659.537h-6.308a1.7,1.7,0,0,1-1.584-1.324l-1.216-6.308a1.065,1.065,0,0,1,1.069-1.325h6.308a1.7,1.7,0,0,1,1.584,1.325l1.216,6.308A1.065,1.065,0,0,1,604.79,659.537Z" transform="translate(-529.166 -622.349)" fill="#e5e5e5"/><path d="M645.91,659.537H639.6a1.7,1.7,0,0,1-1.584-1.324L636.8,651.9a1.065,1.065,0,0,1,1.069-1.325h6.308a1.7,1.7,0,0,1,1.584,1.325l1.216,6.308A1.065,1.065,0,0,1,645.91,659.537Z" transform="translate(-554.362 -622.349)" fill="#e5e5e5"/><path d="M440.32,659.537h-6.308a1.7,1.7,0,0,1-1.584-1.324l-1.216-6.308a1.065,1.065,0,0,1,1.069-1.325h6.308a1.7,1.7,0,0,1,1.584,1.325l1.216,6.308A1.065,1.065,0,0,1,440.32,659.537Z" transform="translate(-428.388 -622.349)" fill="#e5e5e5"/><path d="M481.44,659.537h-6.308a1.7,1.7,0,0,1-1.584-1.324l-1.216-6.308a1.065,1.065,0,0,1,1.069-1.325h6.308a1.7,1.7,0,0,1,1.584,1.325l1.216,6.308A1.065,1.065,0,0,1,481.44,659.537Z" transform="translate(-453.584 -622.349)" fill="#e5e5e5"/><path d="M522.56,659.537h-6.308a1.7,1.7,0,0,1-1.584-1.324l-1.216-6.308a1.065,1.065,0,0,1,1.069-1.325h6.308a1.7,1.7,0,0,1,1.584,1.325l1.216,6.308A1.065,1.065,0,0,1,522.56,659.537Z" transform="translate(-478.78 -622.349)" fill="#e5e5e5"/><path d="M687.02,659.537h-6.308a1.7,1.7,0,0,1-1.584-1.324l-1.216-6.308a1.065,1.065,0,0,1,1.069-1.325h6.308a1.7,1.7,0,0,1,1.584,1.325l1.216,6.308A1.065,1.065,0,0,1,687.02,659.537Z" transform="translate(-579.551 -622.349)" fill="#e5e5e5"/><path d="M570.91,697.047H564.6a1.7,1.7,0,0,1-1.584-1.324l-1.216-6.308a1.065,1.065,0,0,1,1.069-1.324h6.308a1.7,1.7,0,0,1,1.584,1.324l1.216,6.308A1.065,1.065,0,0,1,570.91,697.047Z" transform="translate(-508.406 -645.333)" fill="#e5e5e5"/><path d="M612.03,697.047h-6.308a1.7,1.7,0,0,1-1.584-1.324l-1.216-6.308a1.065,1.065,0,0,1,1.069-1.324H610.3a1.7,1.7,0,0,1,1.584,1.324l1.216,6.308A1.065,1.065,0,0,1,612.03,697.047Z" transform="translate(-533.602 -645.333)" fill="#e5e5e5"/><path d="M653.14,697.047h-6.308a1.7,1.7,0,0,1-1.584-1.324l-1.216-6.308a1.065,1.065,0,0,1,1.069-1.324h6.308a1.7,1.7,0,0,1,1.584,1.324l1.216,6.308A1.065,1.065,0,0,1,653.14,697.047Z" transform="translate(-558.792 -645.333)" fill="#e5e5e5"/><path d="M447.56,697.047h-6.308a1.7,1.7,0,0,1-1.584-1.324l-1.216-6.308a1.065,1.065,0,0,1,1.069-1.324h6.308a1.7,1.7,0,0,1,1.584,1.324l1.216,6.308A1.065,1.065,0,0,1,447.56,697.047Z" transform="translate(-432.824 -645.333)" fill="#e5e5e5"/><path d="M488.68,697.047h-6.308a1.7,1.7,0,0,1-1.584-1.324l-1.216-6.308a1.065,1.065,0,0,1,1.069-1.324h6.308a1.7,1.7,0,0,1,1.584,1.324l1.216,6.308A1.065,1.065,0,0,1,488.68,697.047Z" transform="translate(-458.02 -645.333)" fill="#e5e5e5"/><path d="M529.79,697.047h-6.308a1.7,1.7,0,0,1-1.584-1.324l-1.216-6.308a1.065,1.065,0,0,1,1.069-1.324h6.308a1.7,1.7,0,0,1,1.584,1.324l1.216,6.308A1.065,1.065,0,0,1,529.79,697.047Z" transform="translate(-483.21 -645.333)" fill="#e5e5e5"/><path d="M694.26,697.047h-6.308a1.7,1.7,0,0,1-1.584-1.324l-1.216-6.308a1.065,1.065,0,0,1,1.069-1.324h6.308a1.7,1.7,0,0,1,1.584,1.324l1.216,6.308A1.065,1.065,0,0,1,694.26,697.047Z" transform="translate(-583.988 -645.333)" fill="#e5e5e5"/><path d="M577.74,732.437h-6.308a1.7,1.7,0,0,1-1.584-1.324l-1.216-6.308a1.065,1.065,0,0,1,1.069-1.324h6.308a1.7,1.7,0,0,1,1.584,1.324l1.216,6.308A1.065,1.065,0,0,1,577.74,732.437Z" transform="translate(-512.591 -667.018)" fill="#e5e5e5"/><path d="M618.85,732.437h-6.308a1.7,1.7,0,0,1-1.584-1.324l-1.216-6.308a1.065,1.065,0,0,1,1.069-1.324h6.308A1.7,1.7,0,0,1,618.7,724.8l1.216,6.308A1.065,1.065,0,0,1,618.85,732.437Z" transform="translate(-537.781 -667.018)" fill="#e5e5e5"/><path d="M659.97,732.437h-6.308a1.7,1.7,0,0,1-1.584-1.324l-1.216-6.308a1.065,1.065,0,0,1,1.069-1.324h6.308a1.7,1.7,0,0,1,1.584,1.324l1.216,6.308A1.065,1.065,0,0,1,659.97,732.437Z" transform="translate(-562.977 -667.018)" fill="#e5e5e5"/><path d="M454.38,732.437h-6.308a1.7,1.7,0,0,1-1.584-1.324l-1.216-6.308a1.065,1.065,0,0,1,1.069-1.324h6.308a1.7,1.7,0,0,1,1.584,1.324l1.216,6.308A1.065,1.065,0,0,1,454.38,732.437Z" transform="translate(-437.003 -667.018)" fill="#e5e5e5"/><path d="M495.5,732.437h-6.308a1.7,1.7,0,0,1-1.584-1.324l-1.216-6.308a1.065,1.065,0,0,1,1.069-1.324h6.308a1.7,1.7,0,0,1,1.584,1.324l1.216,6.308A1.065,1.065,0,0,1,495.5,732.437Z" transform="translate(-462.199 -667.018)" fill="#e5e5e5"/><path d="M536.62,732.437h-6.308a1.7,1.7,0,0,1-1.584-1.324l-1.216-6.308a1.065,1.065,0,0,1,1.069-1.324h6.308a1.7,1.7,0,0,1,1.584,1.324l1.216,6.308A1.065,1.065,0,0,1,536.62,732.437Z" transform="translate(-487.395 -667.018)" fill="#e5e5e5"/></g><path d="M451.907,579.429H435.189a.45.45,0,0,1-.449-.449h0a.45.45,0,0,1,.449-.449h16.718a.45.45,0,0,1,.449.449h0A.45.45,0,0,1,451.907,579.429Z" transform="translate(-428.854 -578.069)" fill="#02d79c"/><path d="M453.217,584.659H436.5a.45.45,0,0,1-.449-.449h0a.449.449,0,0,1,.449-.449h16.718a.449.449,0,0,1,.449.449h0A.45.45,0,0,1,453.217,584.659Z" transform="translate(-429.657 -581.274)" fill="#02d79c"/></g><g transform="translate(35.435 20.827)"><path d="M422.341,539.212h-5.735a.859.859,0,0,1-.856-.856h0a.859.859,0,0,1,.856-.856h5.735a.859.859,0,0,1,.856.856h0A.859.859,0,0,1,422.341,539.212Z" transform="translate(-415.75 -537.5)" fill="#fff"/><path d="M462.981,539.212h-5.735a.859.859,0,0,1-.856-.856h0a.859.859,0,0,1,.856-.856h5.735a.859.859,0,0,1,.856.856h0A.859.859,0,0,1,462.981,539.212Z" transform="translate(-440.652 -537.5)" fill="#fff"/><path d="M503.631,539.212H497.9a.859.859,0,0,1-.856-.856h0a.859.859,0,0,1,.856-.856h5.735a.859.859,0,0,1,.856.856h0A.859.859,0,0,1,503.631,539.212Z" transform="translate(-465.56 -537.5)" fill="#fff"/><path d="M544.281,539.212h-5.735a.859.859,0,0,1-.856-.856h0a.859.859,0,0,1,.856-.856h5.735a.859.859,0,0,1,.856.856h0A.859.859,0,0,1,544.281,539.212Z" transform="translate(-490.468 -537.5)" fill="#fff"/><path d="M584.931,539.212H579.2a.859.859,0,0,1-.856-.856h0a.859.859,0,0,1,.856-.856h5.735a.859.859,0,0,1,.856.856h0A.859.859,0,0,1,584.931,539.212Z" transform="translate(-515.376 -537.5)" fill="#fff"/><path d="M625.571,539.212h-5.735a.859.859,0,0,1-.856-.856h0a.859.859,0,0,1,.856-.856h5.735a.859.859,0,0,1,.856.856h0A.859.859,0,0,1,625.571,539.212Z" transform="translate(-540.278 -537.5)" fill="#fff"/><path d="M666.221,539.212h-5.735a.859.859,0,0,1-.856-.856h0a.859.859,0,0,1,.856-.856h5.735a.859.859,0,0,1,.856.856h0A.859.859,0,0,1,666.221,539.212Z" transform="translate(-565.186 -537.5)" fill="#fff"/></g></g></g><g transform="translate(249.614 358.281)"><path d="M280.49,423.491v-1.708l.07-.616a14.612,14.612,0,0,1,11.99-12.872c.55-.1,1.1-.151,1.654-.225h1.708c.488.062.976.1,1.46.186A14.6,14.6,0,0,1,309.538,424.1a13.914,13.914,0,0,1-3.555,8.14,14.254,14.254,0,0,1-10.316,4.941,13.855,13.855,0,0,1-8.032-2.029,14.353,14.353,0,0,1-6.916-10.011c-.1-.546-.151-1.1-.228-1.654Zm14.576-13.155a12.3,12.3,0,1,0,12.3,12.307A12.312,12.312,0,0,0,295.066,410.336Z" transform="translate(-280.49 -408.07)" fill="#02d79c"/><path d="M317.446,429.682c0,.957.008,1.917,0,2.874a.537.537,0,0,0,.24.5c1.251.922,2.49,1.863,3.733,2.792a1.132,1.132,0,0,1,.5,1.235,1.118,1.118,0,0,1-1.781.624c-.782-.569-1.549-1.158-2.324-1.739-.7-.523-1.394-1.049-2.1-1.568a1.213,1.213,0,0,1-.534-1.015c0-2.227-.008-4.457,0-6.684a1.13,1.13,0,0,1,.918-1.146,1.106,1.106,0,0,1,1.243.678,1.65,1.65,0,0,1,.1.581c.008.957,0,1.917,0,2.873Z" transform="translate(-301.747 -418.769)" fill="#02d79c"/></g><g transform="translate(360.742 409.813)"><path d="M589.443,541.14a15.173,15.173,0,0,0-14.394,19.971l-7.6,8.442,10.44-3.4a15.172,15.172,0,1,0,11.552-25.005Z" transform="translate(-567.45 -541.14)" fill="#05f"/><path d="M607.739,577.732a1.161,1.161,0,0,1-.825-.341l-4.136-4.136a1.169,1.169,0,0,1,1.654-1.654l3.311,3.311,9.515-9.515a1.169,1.169,0,0,1,1.654,1.654l-10.344,10.34a1.161,1.161,0,0,1-.825.341Z" transform="translate(-588.887 -555.794)" fill="#fff"/></g></g></g></svg>