
<svg xmlns="http://www.w3.org/2000/svg" xmlns:xlink="http://www.w3.org/1999/xlink" width="123.244" height="37.12" viewBox="0 0 123.244 37.12"><defs><linearGradient id="a" x1="0.5" x2="0.5" y2="1" gradientUnits="objectBoundingBox"><stop offset="0" stop-color="#02ddb7"/><stop offset="1" stop-color="#03d077"/></linearGradient></defs><g transform="translate(0 0)"><path d="M2969.215,255.412a1.992,1.992,0,0,0-1.608.773,3.036,3.036,0,0,0-.627,1.976,2.041,2.041,0,0,0,.457,1.428,1.656,1.656,0,0,0,1.3.5,2.2,2.2,0,0,0,1.716-.739,2.711,2.711,0,0,0,.666-1.9,2.061,2.061,0,0,0-.525-1.49,1.8,1.8,0,0,0-1.377-.548Zm3.455-6.4h7.856l-3.178,17.1h-7.591l.615-2.3a7.631,7.631,0,0,1-2.337,2.19,5.889,5.889,0,0,1-7.338-1.4,8.22,8.22,0,0,1-1.778-5.475,12.127,12.127,0,0,1,.621-3.81,11.78,11.78,0,0,1,1.761-3.4,9.11,9.11,0,0,1,2.85-2.579,6.87,6.87,0,0,1,3.375-.875,5.168,5.168,0,0,1,2.811.745,5.931,5.931,0,0,1,2.032,2.263Z" transform="translate(-2857.282 -239.935)"/><path d="M1109.751,263.875l3.014-5.051a11.65,11.65,0,0,0,2.455,1.9,4.577,4.577,0,0,0,2.151.672,1.049,1.049,0,0,0,.655-.2.619.619,0,0,0,.26-.514c0-.322-.4-.689-1.18-1.1l-.1-.045-1.292-.683a6.225,6.225,0,0,1-2.258-1.874,4.308,4.308,0,0,1-.728-2.489,5.389,5.389,0,0,1,2.043-4.341,8,8,0,0,1,5.272-1.693,11.532,11.532,0,0,1,3.347.5,15.061,15.061,0,0,1,3.392,1.564l-2.743,4.606a8.249,8.249,0,0,0-1.654-1.253,3.043,3.043,0,0,0-1.467-.44,1.046,1.046,0,0,0-.677.214.671.671,0,0,0-.265.53c0,.266.327.548.976.847.187.09.327.158.429.2l1.021.474a5.361,5.361,0,0,1,2.314,1.812,4.76,4.76,0,0,1,.745,2.732,5.862,5.862,0,0,1-2.116,4.713,8.384,8.384,0,0,1-5.6,1.784,11.316,11.316,0,0,1-3.85-.717,19.253,19.253,0,0,1-4.148-2.156Z" transform="translate(-1071.631 -239.925)"/><path d="M1845,270.021l3.874-21.029h7.592l-.412,2.066a7,7,0,0,1,2.212-1.97,5.583,5.583,0,0,1,2.665-.638,5.751,5.751,0,0,1,4.572,2.1,8,8,0,0,1,1.8,5.39,12.76,12.76,0,0,1-.621,3.912,11.642,11.642,0,0,1-1.744,3.432,8.787,8.787,0,0,1-2.828,2.563,7.056,7.056,0,0,1-3.437.858,4.909,4.909,0,0,1-2.653-.7,7.489,7.489,0,0,1-2.2-2.309c.022.208.039.378.051.5s.017.226.017.316a8.068,8.068,0,0,1-.2,1.569c-.031.153-.054.272-.068.345l-.657,3.6H1845Zm12.7-14.831a2.3,2.3,0,0,0-1.728.74,2.589,2.589,0,0,0-.7,1.862,2.189,2.189,0,0,0,.5,1.519,1.765,1.765,0,0,0,1.366.553,2.008,2.008,0,0,0,1.609-.785,2.978,2.978,0,0,0,.655-1.964,2.05,2.05,0,0,0-.446-1.417,1.587,1.587,0,0,0-1.259-.508Z" transform="translate(-1781.625 -239.916)" fill-rule="evenodd"/><path d="M1583.38,281.342l3.155-17.1h8.054l-3.15,17.1Z" transform="translate(-1528.992 -255.163)" fill-rule="evenodd"/><path d="M1687.193,8.2a4.3,4.3,0,0,1-3.02-1.117,3.586,3.586,0,0,1-1.214-2.749,3.969,3.969,0,0,1,1.439-3.042A4.98,4.98,0,0,1,1687.836,0a4.312,4.312,0,0,1,3.026,1.1,3.547,3.547,0,0,1,1.208,2.749,3.986,3.986,0,0,1-1.439,3.06,4.983,4.983,0,0,1-3.437,1.287Z" transform="translate(-1625.151 0)" fill-rule="evenodd" fill="url(#a)"/><path d="M2485.61,266.1,2488.8,249h7.371l-.576,2.337a6.2,6.2,0,0,1,2.032-2.167,4.938,4.938,0,0,1,2.641-.711,5.891,5.891,0,0,1,.836.068c.316.039.694.107,1.134.192l-1.287,6.988c-.564-.186-1.072-.327-1.524-.429a5.959,5.959,0,0,0-1.225-.147,2.792,2.792,0,0,0-2.1.717,5.216,5.216,0,0,0-1.038,2.636l-1.389,7.62Z" transform="translate(-2400.23 -239.925)"/><path d="M11.939,98.51H25.318l-9.96,10.9,14.506.129L3.134,132.05l8.774-15.794L0,116.035Z" transform="translate(0 -95.126)" fill-rule="evenodd" fill="url(#a)"/><path d="M557.474,132.246l14.772-.115L556.058,114.77l-8.358,7.013,9.774,10.463Zm-8.2-25.06,7.964-8.676h14.739l-10.38,8.849Z" transform="translate(-528.887 -95.126)" fill-rule="evenodd"/></g></svg>