<svg xmlns="http://www.w3.org/2000/svg" width="31.475" height="22.131" viewBox="0 0 31.475 22.131"><path d="M31.868,7.963a3.955,3.955,0,0,0-2.783-2.8C26.63,4.5,16.788,4.5,16.788,4.5s-9.843,0-12.3.662a3.955,3.955,0,0,0-2.783,2.8,41.488,41.488,0,0,0-.658,7.625,41.488,41.488,0,0,0,.658,7.625A3.9,3.9,0,0,0,4.49,25.969c2.455.662,12.3.662,12.3.662s9.843,0,12.3-.662a3.9,3.9,0,0,0,2.783-2.756,41.488,41.488,0,0,0,.658-7.625,41.488,41.488,0,0,0-.658-7.625Zm-18.3,12.305v-9.36l8.226,4.68-8.226,4.68Z" transform="translate(-1.051 -4.5)" fill="#fff" opacity="0.7"/></svg>