<svg xmlns="http://www.w3.org/2000/svg" width="22.34" height="22.34" viewBox="0 0 22.34 22.34"><g transform="translate(1 1)" opacity="0.7"><path d="M8.085,3h10.17A5.085,5.085,0,0,1,23.34,8.085v10.17a5.085,5.085,0,0,1-5.085,5.085H8.085A5.085,5.085,0,0,1,3,18.255V8.085A5.085,5.085,0,0,1,8.085,3Z" transform="translate(-3 -3)" fill="none" stroke="#fff" stroke-linecap="round" stroke-linejoin="round" stroke-width="2"/><path d="M21.1,15.813a4.544,4.544,0,1,1-3.829-3.829A4.544,4.544,0,0,1,21.1,15.813Z" transform="translate(-6.399 -6.35)" fill="none" stroke="#fff" stroke-linecap="round" stroke-linejoin="round" stroke-width="2"/><path d="M26.25,9.75h0" transform="translate(-10.487 -5.174)" fill="none" stroke="#fff" stroke-linecap="round" stroke-linejoin="round" stroke-width="2"/></g></svg>