<svg xmlns="http://www.w3.org/2000/svg" width="65.875" height="65.875" viewBox="0 0 65.875 65.875">
  <path id="Icon_ionic-md-globe"  data-name="Icon ionic-md-globe" d="M35.813,3.375A32.438,32.438,0,1,0,68.25,35.813,32.437,32.437,0,0,0,35.813,3.375Zm-3.361,60.04a27.807,27.807,0,0,1-17.8-45.64,30.808,30.808,0,0,1,.314,3.77c-.256,3.711-.622,6.033,1.55,9.164.846,1.219,1.054,2.967,1.466,4.379.4,1.381,2.012,2.105,3.122,2.956,2.239,1.717,4.382,3.712,6.756,5.223,1.567,1,2.546,1.493,2.087,3.406a12.085,12.085,0,0,1-1.268,3.856c-.243.418.917,3.106,1.3,3.492,1.169,1.169,2.33,2.242,3.6,3.294C35.562,58.948,33.394,61.069,32.452,63.415Zm23.021-7.943a27.605,27.605,0,0,1-14.434,7.654,11.534,11.534,0,0,1,3.415-4.579,11.617,11.617,0,0,0,3.071-3.8,26.381,26.381,0,0,1,2.117-3.621c1.1-1.7-2.716-4.263-3.954-4.8a40.758,40.758,0,0,1-7.355-4.581c-1.763-1.24-5.342.648-7.333-.221-2.726-1.19-4.972-3.259-7.342-5.043-2.445-1.842-2.327-3.989-2.327-6.705,1.915.071,4.64-.53,5.912,1.01.4.486,1.781,2.658,2.7,1.886.754-.631-.559-3.158-.813-3.752-.781-1.827,1.778-2.539,3.088-3.778,1.709-1.616,5.376-4.151,5.086-5.31s-3.669-4.441-5.653-3.929c-.3.077-2.916,2.822-3.422,3.253q.02-1.344.041-2.688c.009-.566-1.055-1.147-1.006-1.511.125-.922,2.692-2.6,3.331-3.331-.447-.28-1.974-1.591-2.436-1.4-1.119.466-2.382.788-3.5,1.254a7.121,7.121,0,0,0-.1-1.112A27.538,27.538,0,0,1,31.625,8.32l2.2.883,1.551,1.84,1.548,1.6,1.353.436,2.149-2.027L39.867,9.6V8.3a27.5,27.5,0,0,1,11.778,4.647c-.629.056-1.32.149-2.1.248a6.988,6.988,0,0,0-1.086-.409c1.019,2.19,2.081,4.349,3.16,6.51,1.153,2.308,3.711,4.784,4.16,7.221.529,2.872.162,5.481.452,8.86.279,3.254,3.669,6.951,3.669,6.951a7.345,7.345,0,0,0,2.867.347A27.633,27.633,0,0,1,55.473,55.473Z" transform="translate(-2.875 -2.875)" fill="none" stroke="#000" stroke-width="2"/>
</svg>
