<svg xmlns="http://www.w3.org/2000/svg" width="175.194" height="28.167" viewBox="0 0 175.194 28.167">
  <g id="Group_2309" data-name="Group 2309" transform="translate(-140 -48)">
    <path id="Path_4121" data-name="Path 4121" d="M72.009,777.05h6.725a4.484,4.484,0,0,0-1.025-2.843,3.078,3.078,0,0,0-2.342-.942,2.976,2.976,0,0,0-2.277.956,4.742,4.742,0,0,0-1.08,2.829m7.258,2.115H72.009a4.959,4.959,0,0,0,.509,2.231,3.417,3.417,0,0,0,3.132,1.944,4.309,4.309,0,0,0,1.215-.158,3.8,3.8,0,0,0,1.066-.487,7.418,7.418,0,0,0,.951-.714c.292-.255.668-.6,1.132-1.034a1.21,1.21,0,0,1,.812-.246,1.356,1.356,0,0,1,.928.316,1.119,1.119,0,0,1,.352.881,2.445,2.445,0,0,1-.394,1.173,4.61,4.61,0,0,1-1.192,1.285,6.666,6.666,0,0,1-1.994,1.026,8.576,8.576,0,0,1-2.765.407,7.392,7.392,0,0,1-5.556-2.04,7.587,7.587,0,0,1-1.98-5.529,9.294,9.294,0,0,1,.487-3.051,6.772,6.772,0,0,1,1.424-2.412,6.2,6.2,0,0,1,2.31-1.54,8.284,8.284,0,0,1,3.043-.539,7.192,7.192,0,0,1,3.728.918,6.028,6.028,0,0,1,2.334,2.375,6.262,6.262,0,0,1,.774,2.964,1.862,1.862,0,0,1-.8,1.818A5.025,5.025,0,0,1,79.267,779.165Z" transform="translate(98.811 -717.194)" fill="#24b354"/>
    <path id="Path_4122" data-name="Path 4122" d="M86.315,780.434v3.1a2.388,2.388,0,0,1-.528,1.689,1.76,1.76,0,0,1-1.341.565,1.694,1.694,0,0,1-1.317-.57,2.438,2.438,0,0,1-.515-1.684V773.2q0-2.5,1.8-2.5a1.5,1.5,0,0,1,1.326.585,3.236,3.236,0,0,1,.45,1.73,6.392,6.392,0,0,1,1.364-1.73,2.826,2.826,0,0,1,1.869-.585,4.782,4.782,0,0,1,2.268.585,1.75,1.75,0,0,1,1.1,1.554,1.467,1.467,0,0,1-.468,1.123,1.442,1.442,0,0,1-1.012.441,4.68,4.68,0,0,1-.982-.251,4.649,4.649,0,0,0-1.383-.249,2.033,2.033,0,0,0-1.33.426,2.782,2.782,0,0,0-.8,1.271,8.961,8.961,0,0,0-.393,2c-.069.774-.107,1.715-.107,2.828" transform="translate(99.555 -717.193)" fill="#24b354"/>
    <path id="Path_4123" data-name="Path 4123" d="M95.534,778.493a6.365,6.365,0,0,0,.469,2.57,3.527,3.527,0,0,0,1.284,1.59,3.171,3.171,0,0,0,1.776.539,3.282,3.282,0,0,0,1.786-.511,3.482,3.482,0,0,0,1.289-1.559,6.344,6.344,0,0,0,.483-2.629,6.159,6.159,0,0,0-.483-2.542,3.805,3.805,0,0,0-1.3-1.632,3.109,3.109,0,0,0-1.8-.562,3.032,3.032,0,0,0-1.818.575,3.733,3.733,0,0,0-1.243,1.656,6.648,6.648,0,0,0-.441,2.5m7.292,5.445v-.366a9.263,9.263,0,0,1-1.476,1.391,5.538,5.538,0,0,1-1.577.816,5.9,5.9,0,0,1-1.855.278,5.461,5.461,0,0,1-2.463-.565,5.726,5.726,0,0,1-1.966-1.61,7.361,7.361,0,0,1-1.258-2.458,10.583,10.583,0,0,1-.427-3.056,7.969,7.969,0,0,1,1.7-5.422A5.654,5.654,0,0,1,97.974,771a6.008,6.008,0,0,1,2.7.552,7.476,7.476,0,0,1,2.148,1.7v-5.476a2.783,2.783,0,0,1,.454-1.726,1.552,1.552,0,0,1,1.3-.585,1.613,1.613,0,0,1,1.3.538,2.4,2.4,0,0,1,.455,1.582v16.354a2.287,2.287,0,0,1-.487,1.591,1.658,1.658,0,0,1-1.266.528,1.622,1.622,0,0,1-1.257-.551A2.268,2.268,0,0,1,102.825,783.938Z" transform="translate(100.03 -717.464)" fill="#24b354"/>
    <path id="Path_4124" data-name="Path 4124" d="M110.319,777.05h6.725a4.478,4.478,0,0,0-1.025-2.843,3.076,3.076,0,0,0-2.341-.942,2.98,2.98,0,0,0-2.278.956,4.756,4.756,0,0,0-1.08,2.829m7.259,2.115h-7.259a4.959,4.959,0,0,0,.51,2.231,3.414,3.414,0,0,0,3.13,1.944,4.307,4.307,0,0,0,1.216-.158,3.784,3.784,0,0,0,1.066-.487,7.417,7.417,0,0,0,.951-.714q.439-.382,1.132-1.034a1.21,1.21,0,0,1,.812-.246,1.356,1.356,0,0,1,.928.316,1.116,1.116,0,0,1,.352.881,2.445,2.445,0,0,1-.394,1.173,4.61,4.61,0,0,1-1.192,1.285,6.66,6.66,0,0,1-2,1.026,8.558,8.558,0,0,1-2.763.407,7.393,7.393,0,0,1-5.557-2.04,7.591,7.591,0,0,1-1.98-5.529,9.266,9.266,0,0,1,.487-3.051,6.772,6.772,0,0,1,1.424-2.412,6.2,6.2,0,0,1,2.31-1.54,8.292,8.292,0,0,1,3.043-.539,7.2,7.2,0,0,1,3.729.918,6.025,6.025,0,0,1,2.333,2.375,6.251,6.251,0,0,1,.775,2.964,1.862,1.862,0,0,1-.8,1.818A5.031,5.031,0,0,1,117.578,779.165Z" transform="translate(100.793 -717.194)" fill="#24b354"/>
    <path id="Path_4125" data-name="Path 4125" d="M128.378,782.7l-3.2-12.689V783.76a2.5,2.5,0,0,1-.51,1.711,1.861,1.861,0,0,1-2.676.005,2.472,2.472,0,0,1-.515-1.717V768a1.989,1.989,0,0,1,.677-1.763,3.272,3.272,0,0,1,1.832-.454h1.253a4.751,4.751,0,0,1,1.631.2,1.379,1.379,0,0,1,.757.732,11.527,11.527,0,0,1,.556,1.726l2.893,10.918,2.894-10.918a11.5,11.5,0,0,1,.557-1.726,1.368,1.368,0,0,1,.751-.732,4.8,4.8,0,0,1,1.638-.2h1.247a3.284,3.284,0,0,1,1.837.454,1.991,1.991,0,0,1,.677,1.763v15.76a2.5,2.5,0,0,1-.511,1.711,1.73,1.73,0,0,1-1.359.57,1.694,1.694,0,0,1-1.317-.57,2.479,2.479,0,0,1-.515-1.711V770.012l-3.2,12.689c-.208.821-.377,1.429-.51,1.814a2.5,2.5,0,0,1-.724,1.048,2.116,2.116,0,0,1-1.471.478,2.147,2.147,0,0,1-1.956-1.084,4.433,4.433,0,0,1-.427-1.054c-.107-.384-.214-.788-.32-1.2" transform="translate(101.566 -717.448)"/>
    <path id="Path_4126" data-name="Path 4126" d="M159.914,778.6a5.105,5.105,0,0,0,1.012,3.4,3.314,3.314,0,0,0,2.652,1.188,3.044,3.044,0,0,0,2.412-1.216A5.319,5.319,0,0,0,167,778.493a6.779,6.779,0,0,0-.421-2.523,3.672,3.672,0,0,0-1.193-1.638,2.947,2.947,0,0,0-1.809-.575,3.205,3.205,0,0,0-1.883.575,3.82,3.82,0,0,0-1.3,1.67,6.44,6.44,0,0,0-.477,2.6m-.177-11.02v5.667a8.583,8.583,0,0,1,2.134-1.669,5.686,5.686,0,0,1,2.69-.58,5.946,5.946,0,0,1,3.242.876,5.757,5.757,0,0,1,2.157,2.542,9.314,9.314,0,0,1,.771,3.947,10.686,10.686,0,0,1-.427,3.089,7.42,7.42,0,0,1-1.243,2.44,5.6,5.6,0,0,1-1.98,1.6,5.8,5.8,0,0,1-2.561.565,6.137,6.137,0,0,1-1.609-.2,4.651,4.651,0,0,1-1.285-.537,5.645,5.645,0,0,1-.9-.686c-.246-.232-.576-.585-.984-1.058v.366a2.238,2.238,0,0,1-.5,1.582,1.69,1.69,0,0,1-1.28.537,1.593,1.593,0,0,1-1.257-.537,2.354,2.354,0,0,1-.469-1.582V767.746a2.726,2.726,0,0,1,.456-1.707,1.526,1.526,0,0,1,1.269-.575,1.627,1.627,0,0,1,1.318.552A2.364,2.364,0,0,1,159.738,767.584Z" transform="translate(103.365 -717.464)"/>
    <path id="Path_4127" data-name="Path 4127" d="M173.571,769.241a1.952,1.952,0,0,1-1.322-.473,1.682,1.682,0,0,1-.548-1.345,1.661,1.661,0,0,1,.562-1.289,1.9,1.9,0,0,1,1.308-.51,1.939,1.939,0,0,1,1.275.459,1.646,1.646,0,0,1,.557,1.341,1.694,1.694,0,0,1-.543,1.336,1.882,1.882,0,0,1-1.289.483" transform="translate(104.165 -717.456)"/>
    <path id="Path_4128" data-name="Path 4128" d="M175.4,772.809v10.724a2.4,2.4,0,0,1-.529,1.684,1.745,1.745,0,0,1-1.341.57,1.67,1.67,0,0,1-1.322-.584,2.475,2.475,0,0,1-.51-1.67V772.92a2.394,2.394,0,0,1,.51-1.661,1.709,1.709,0,0,1,1.322-.556,1.771,1.771,0,0,1,1.341.556,2.166,2.166,0,0,1,.529,1.549" transform="translate(104.165 -717.193)"/>
    <path id="Path_4129" data-name="Path 4129" d="M177.07,783.8V767.719a2.5,2.5,0,0,1,.5-1.684,1.671,1.671,0,0,1,1.336-.571,1.752,1.752,0,0,1,1.354.566,2.424,2.424,0,0,1,.515,1.689V783.8a2.412,2.412,0,0,1-.524,1.689,1.755,1.755,0,0,1-1.345.565,1.67,1.67,0,0,1-1.322-.584,2.463,2.463,0,0,1-.51-1.67" transform="translate(104.443 -717.464)"/>
    <path id="Path_4130" data-name="Path 4130" d="M184.307,769.241a1.96,1.96,0,0,1-1.322-.473,1.682,1.682,0,0,1-.548-1.345,1.659,1.659,0,0,1,.563-1.289,1.892,1.892,0,0,1,1.307-.51,1.943,1.943,0,0,1,1.276.459,1.652,1.652,0,0,1,.556,1.341,1.694,1.694,0,0,1-.543,1.336,1.88,1.88,0,0,1-1.289.483" transform="translate(104.721 -717.456)"/>
    <path id="Path_4131" data-name="Path 4131" d="M186.139,772.809v10.724a2.39,2.39,0,0,1-.529,1.684,1.745,1.745,0,0,1-1.341.57,1.668,1.668,0,0,1-1.321-.584,2.47,2.47,0,0,1-.511-1.67V772.92a2.389,2.389,0,0,1,.511-1.661,1.707,1.707,0,0,1,1.321-.556,1.771,1.771,0,0,1,1.341.556,2.161,2.161,0,0,1,.529,1.549" transform="translate(104.721 -717.193)"/>
    <path id="Path_4132" data-name="Path 4132" d="M188.74,771.285h.409v-2.231c0-.6.013-1.068.045-1.405a2.076,2.076,0,0,1,.265-.877,1.652,1.652,0,0,1,.626-.622,1.763,1.763,0,0,1,.91-.237,1.823,1.823,0,0,1,1.271.529,1.575,1.575,0,0,1,.482.868,7.687,7.687,0,0,1,.1,1.447v2.527h1.359a1.743,1.743,0,0,1,1.2.371,1.228,1.228,0,0,1,.418.955,1.075,1.075,0,0,1-.593,1.049,3.841,3.841,0,0,1-1.692.3h-.692v6.819a10.812,10.812,0,0,0,.061,1.34,1.365,1.365,0,0,0,.325.76,1.126,1.126,0,0,0,.867.294,4.516,4.516,0,0,0,.881-.117,4.8,4.8,0,0,1,.867-.116,1.117,1.117,0,0,1,.812.362,1.2,1.2,0,0,1,.358.891,1.481,1.481,0,0,1-.974,1.367,6.567,6.567,0,0,1-2.817.477,4.825,4.825,0,0,1-2.628-.584,2.7,2.7,0,0,1-1.174-1.619,10.917,10.917,0,0,1-.278-2.755v-7.12h-.488a1.752,1.752,0,0,1-1.224-.381,1.231,1.231,0,0,1-.423-.965,1.206,1.206,0,0,1,.441-.955,1.966,1.966,0,0,1,1.285-.371" transform="translate(104.958 -717.441)"/>
    <path id="Path_4133" data-name="Path 4133" d="M200.819,786.255l.343-.83-4.564-11.5a4.292,4.292,0,0,1-.422-1.442,1.73,1.73,0,0,1,.245-.887,1.82,1.82,0,0,1,.673-.649,1.757,1.757,0,0,1,.886-.246,1.454,1.454,0,0,1,1.211.511,4.654,4.654,0,0,1,.719,1.461l3.139,9.131,2.974-8.492a14.241,14.241,0,0,1,.639-1.619,1.88,1.88,0,0,1,.6-.789,1.7,1.7,0,0,1,.9-.2,1.6,1.6,0,0,1,.807.223,1.625,1.625,0,0,1,.807,1.41c-.037.171-.093.417-.177.733s-.18.639-.3.963L204.474,786.7a15.108,15.108,0,0,1-1.22,2.626,4,4,0,0,1-1.585,1.461,5.834,5.834,0,0,1-2.655.51,6.4,6.4,0,0,1-2.443-.353,1.293,1.293,0,0,1-.816-1.289,1.24,1.24,0,0,1,.389-.983,1.661,1.661,0,0,1,1.145-.347,2.238,2.238,0,0,1,.585.079,2.784,2.784,0,0,0,.613.083,2.205,2.205,0,0,0,1-.19,1.75,1.75,0,0,0,.658-.658,10.067,10.067,0,0,0,.672-1.382" transform="translate(105.41 -717.193)"/>
    <path id="Path_4134" data-name="Path 4134" d="M152.071,778.249a5.584,5.584,0,0,0-1-3.53,3.249,3.249,0,0,0-2.682-1.261,3.315,3.315,0,0,0-1.914.561,3.569,3.569,0,0,0-1.276,1.666,7.54,7.54,0,0,0-.009,5.106,3.67,3.67,0,0,0,1.262,1.665,3.278,3.278,0,0,0,1.937.575,3.231,3.231,0,0,0,2.682-1.27,5.561,5.561,0,0,0,1-3.512m3.73,0a8.773,8.773,0,0,1-.515,3.056,6.772,6.772,0,0,1-1.5,2.4,6.563,6.563,0,0,1-2.338,1.54,8.265,8.265,0,0,1-3.057.537,8.041,8.041,0,0,1-3.033-.542,6.7,6.7,0,0,1-3.825-3.947,8.8,8.8,0,0,1-.51-3.052,8.889,8.889,0,0,1,.514-3.085,6.78,6.78,0,0,1,1.484-2.393,6.574,6.574,0,0,1,2.337-1.526,8.849,8.849,0,0,1,6.091,0,6.586,6.586,0,0,1,3.84,3.947A8.823,8.823,0,0,1,155.8,778.249Z" transform="translate(102.578 -717.193)"/>
    <path id="Path_4135" data-name="Path 4135" d="M65.018,789.014a1.5,1.5,0,0,1,.279-1.038,1.335,1.335,0,0,1,.984-.291h.444a1.48,1.48,0,0,1,.982.251,1.1,1.1,0,0,1,.283.855v.168h-.432v-.106a.807.807,0,0,0-.176-.6,1.059,1.059,0,0,0-.689-.162H66.4a2.094,2.094,0,0,0-.5.043.6.6,0,0,0-.261.145.533.533,0,0,0-.147.259,2.757,2.757,0,0,0-.041.585v1.1a2.739,2.739,0,0,0,.041.582.533.533,0,0,0,.147.259.58.58,0,0,0,.253.145,2.085,2.085,0,0,0,.508.043h.292a1.033,1.033,0,0,0,.7-.169.911.911,0,0,0,.174-.649c0-.049,0-.086,0-.112s0-.052,0-.074h.43v.256a1.189,1.189,0,0,1-.275.9,1.47,1.47,0,0,1-.991.254h-.444a1.33,1.33,0,0,1-.984-.294,1.5,1.5,0,0,1-.279-1.038Z" transform="translate(98.645 -716.314)"/>
    <path id="Path_4136" data-name="Path 4136" d="M71.081,791.61v-3.88H71.5v1.676h2.184V787.73H74.1v3.88h-.418v-1.8H71.5v1.8Z" transform="translate(98.958 -716.312)"/>
    <path id="Path_4137" data-name="Path 4137" d="M77,791.61l1.4-3.88h.69l1.407,3.88h-.432l-.362-.993H77.789l-.353.993Zm.927-1.377h1.643l-.756-2.091h-.136Z" transform="translate(99.265 -716.312)"/>
    <path id="Path_4138" data-name="Path 4138" d="M83.376,791.61v-3.88h1.711a1.456,1.456,0,0,1,.879.195.84.84,0,0,1,.241.69v.587a.826.826,0,0,1-.121.48.541.541,0,0,1-.368.217.591.591,0,0,1,.38.238,1.043,1.043,0,0,1,.109.543v.932h-.439v-.8a.887.887,0,0,0-.128-.564.656.656,0,0,0-.5-.147H83.794v1.51ZM85,788.141h-1.21v1.552H85a1.068,1.068,0,0,0,.619-.12.529.529,0,0,0,.146-.429v-.453a.542.542,0,0,0-.141-.433A1.093,1.093,0,0,0,85,788.141Z" transform="translate(99.595 -716.312)"/>
    <path id="Path_4139" data-name="Path 4139" d="M89.265,789.014a1.425,1.425,0,0,1,.3-1.037,1.516,1.516,0,0,1,1.064-.292h.482a1.757,1.757,0,0,1,1.033.243.881.881,0,0,1,.332.76v.165h-.433v-.048a.676.676,0,0,0-.2-.558,1.289,1.289,0,0,0-.758-.158h-.334a2.474,2.474,0,0,0-.56.045.716.716,0,0,0-.291.147.515.515,0,0,0-.154.258,2.561,2.561,0,0,0-.044.582v1.105a2.527,2.527,0,0,0,.044.577.515.515,0,0,0,.154.258.716.716,0,0,0,.285.148,2.479,2.479,0,0,0,.566.044h.334a2.357,2.357,0,0,0,.511-.039.659.659,0,0,0,.261-.133.5.5,0,0,0,.144-.242,2.326,2.326,0,0,0,.041-.527v-.239H90.991v-.4h1.486v.65a1.417,1.417,0,0,1-.3,1.038,1.513,1.513,0,0,1-1.063.292H90.63a1.516,1.516,0,0,1-1.064-.292,1.422,1.422,0,0,1-.3-1.038Z" transform="translate(99.899 -716.314)"/>
    <rect id="Rectangle_2266" data-name="Rectangle 2266" width="0.422" height="3.88" transform="translate(195.831 71.419)"/>
    <path id="Path_4140" data-name="Path 4140" d="M99.439,791.61v-3.88h.646l2.054,3.463V787.73h.417v3.88h-.647l-2.054-3.468v3.468Z" transform="translate(100.426 -716.312)"/>
    <path id="Path_4141" data-name="Path 4141" d="M105.7,789.014a1.43,1.43,0,0,1,.3-1.037,1.519,1.519,0,0,1,1.065-.292h.481a1.758,1.758,0,0,1,1.034.243.883.883,0,0,1,.331.76v.165h-.432v-.048a.676.676,0,0,0-.2-.558,1.293,1.293,0,0,0-.759-.158h-.333a2.485,2.485,0,0,0-.561.045.718.718,0,0,0-.29.147.524.524,0,0,0-.155.258,2.561,2.561,0,0,0-.044.582v1.105a2.528,2.528,0,0,0,.044.577.524.524,0,0,0,.155.258.716.716,0,0,0,.285.148,2.479,2.479,0,0,0,.566.044h.333a2.368,2.368,0,0,0,.512-.039.654.654,0,0,0,.26-.133.5.5,0,0,0,.145-.242,2.325,2.325,0,0,0,.041-.527v-.239H107.43v-.4h1.484v.65a1.417,1.417,0,0,1-.3,1.038,1.516,1.516,0,0,1-1.064.292h-.481a1.519,1.519,0,0,1-1.065-.292,1.426,1.426,0,0,1-.3-1.038Z" transform="translate(100.75 -716.314)"/>
    <rect id="Rectangle_2267" data-name="Rectangle 2267" width="0.422" height="3.88" transform="translate(216.643 71.419)"/>
    <path id="Path_4142" data-name="Path 4142" d="M119.226,791.61v-3.88h.646l2.055,3.463V787.73h.417v3.88H121.7l-2.055-3.468v3.468Z" transform="translate(101.45 -716.312)"/>
    <path id="Path_4143" data-name="Path 4143" d="M125.138,788.141v-.411h2.836v.411h-1.209v3.469h-.423v-3.469Z" transform="translate(101.756 -716.312)"/>
    <path id="Path_4144" data-name="Path 4144" d="M130.664,789.016a1.427,1.427,0,0,1,.3-1.038,1.52,1.52,0,0,1,1.066-.292h.479a1.531,1.531,0,0,1,1.07.288,1.442,1.442,0,0,1,.3,1.042v1.314a1.423,1.423,0,0,1-.3,1.039,1.521,1.521,0,0,1-1.064.292h-.479a1.52,1.52,0,0,1-1.066-.292,1.423,1.423,0,0,1-.3-1.039Zm1.721-.926h-.235a2.47,2.47,0,0,0-.565.045.717.717,0,0,0-.285.147.54.54,0,0,0-.157.267,2.492,2.492,0,0,0-.046.577v1.1a2.428,2.428,0,0,0,.046.571.534.534,0,0,0,.157.265.716.716,0,0,0,.285.148,2.474,2.474,0,0,0,.565.044h.235a2.52,2.52,0,0,0,.568-.044.711.711,0,0,0,.287-.148.519.519,0,0,0,.154-.259,2.464,2.464,0,0,0,.044-.577v-1.1a2.492,2.492,0,0,0-.045-.577.527.527,0,0,0-.158-.267.7.7,0,0,0-.282-.145A2.569,2.569,0,0,0,132.385,788.09Z" transform="translate(102.042 -716.314)"/>
    <path id="Path_4145" data-name="Path 4145" d="M139.893,788.141v-.411h2.837v.411h-1.21v3.469H141.1v-3.469Z" transform="translate(102.52 -716.312)"/>
    <path id="Path_4146" data-name="Path 4146" d="M145.534,791.61v-3.88h.416v1.676h2.186V787.73h.417v3.88h-.417v-1.8h-2.186v1.8Z" transform="translate(102.812 -716.312)"/>
    <path id="Path_4147" data-name="Path 4147" d="M151.837,791.61v-3.88H154.5v.411h-2.242v1.27h2.179v.4h-2.179v1.4H154.5v.406Z" transform="translate(103.138 -716.312)"/>
    <path id="Path_4148" data-name="Path 4148" d="M160.918,791.61v-3.88h2.367v.411h-1.95v1.27h1.891v.4h-1.891v1.8Z" transform="translate(103.607 -716.312)"/>
    <path id="Path_4149" data-name="Path 4149" d="M166.382,787.73h.424v2.547a2.358,2.358,0,0,0,.039.524.5.5,0,0,0,.136.239.58.58,0,0,0,.244.133,2.164,2.164,0,0,0,.487.037h.4a2.2,2.2,0,0,0,.492-.037.584.584,0,0,0,.245-.133.482.482,0,0,0,.131-.237,2.449,2.449,0,0,0,.039-.526V787.73h.422v2.6a1.465,1.465,0,0,1-.287,1.035,1.383,1.383,0,0,1-1.011.295h-.46a1.383,1.383,0,0,1-1.011-.295,1.46,1.46,0,0,1-.288-1.035Z" transform="translate(103.89 -716.312)"/>
    <path id="Path_4150" data-name="Path 4150" d="M172.2,788.141v-.411h2.837v.411h-1.21v3.469H173.4v-3.469Z" transform="translate(104.191 -716.312)"/>
    <path id="Path_4151" data-name="Path 4151" d="M177.8,787.73h.423v2.547a2.445,2.445,0,0,0,.038.524.515.515,0,0,0,.137.239.579.579,0,0,0,.244.133,2.164,2.164,0,0,0,.487.037h.4a2.2,2.2,0,0,0,.491-.037.583.583,0,0,0,.245-.133.483.483,0,0,0,.133-.237,2.541,2.541,0,0,0,.038-.526V787.73h.422v2.6a1.465,1.465,0,0,1-.286,1.035,1.384,1.384,0,0,1-1.012.295h-.46a1.384,1.384,0,0,1-1.011-.295,1.465,1.465,0,0,1-.287-1.035Z" transform="translate(104.481 -716.312)"/>
    <path id="Path_4152" data-name="Path 4152" d="M184.107,791.61v-3.88h1.71a1.458,1.458,0,0,1,.88.195.843.843,0,0,1,.241.69v.587a.817.817,0,0,1-.122.48.538.538,0,0,1-.367.217.594.594,0,0,1,.38.238,1.043,1.043,0,0,1,.109.543v.932H186.5v-.8a.9.9,0,0,0-.127-.564.659.659,0,0,0-.5-.147h-1.345v1.51Zm1.626-3.469h-1.21v1.552h1.21a1.066,1.066,0,0,0,.619-.12.526.526,0,0,0,.147-.429v-.453a.542.542,0,0,0-.141-.433A1.1,1.1,0,0,0,185.733,788.141Z" transform="translate(104.808 -716.312)"/>
    <path id="Path_4153" data-name="Path 4153" d="M190.134,791.61v-3.88h2.659v.411h-2.242v1.27h2.179v.4h-2.179v1.4h2.242v.406Z" transform="translate(105.119 -716.312)"/>
    <path id="Path_4154" data-name="Path 4154" d="M75.021,768.08c-7.718,3.1-9.875,14.564-13.677,22.02-1.227,2.4-2.417,3.523-4.46,3.523a4.036,4.036,0,0,1-3.212-1.729L43.5,775.008c-5.288-8.782,11.991-10.718,22.192-8.591-3.022,1.311-5.279,3.631-8.34,12.341a1.369,1.369,0,0,1-1.226.91,1.388,1.388,0,0,1-1.338-.734l-2.949-5.408a9.275,9.275,0,0,0-1.068-1.691,1.456,1.456,0,0,0-1.382-.334,1.8,1.8,0,0,0-.865.385,1.855,1.855,0,0,0-.549.727,1.492,1.492,0,0,0-.114.808,2.419,2.419,0,0,0,.184.582,5.879,5.879,0,0,0,.33.642l.361.626,5.011,8.336c.5.8.846,1.334,1.043,1.6a2.451,2.451,0,0,0,.832.691,2.085,2.085,0,0,0,1.34.166,2.242,2.242,0,0,0,1.021-.4,2.153,2.153,0,0,0,.629-.773c5.562-11.423,5.082-17.892,16.405-16.8" transform="translate(97.48 -717.456)" fill="#24b354" fill-rule="evenodd"/>
  </g>
</svg>
