
<svg id="Layer_1" data-name="Layer 1" xmlns="http://www.w3.org/2000/svg" viewBox="0 0 873.12 733.58">
  <path d="M270.59,20.1h328.66c80.96-.82,156.91,39.08,202.18,106.21,57.22,87.94,92.76,230.28-37.04,425.53-44.51,67.84-111.68,117.65-189.53,140.54-83.36,25.41-172.01,27.94-256.69,7.33-77.51-21.34-145.03-69.28-190.73-135.42C49.75,454.37-54.25,249.28,98.63,90.17,144.09,44.48,206.15,19.19,270.59,20.1Z" style="fill: none; stroke: #09d084; stroke-linecap: round; stroke-linejoin: round; stroke-width: 40.15px;"/>
  <circle cx="436.53" cy="353.18" r="69.17" style="fill: #09d084; stroke: #09d084; stroke-miterlimit: 10;"/>
  <circle cx="332.83" cy="508.68" r="69.17" style="fill: #09d084; stroke: #09d084; stroke-miterlimit: 10;"/>
  <circle cx="541.74" cy="508.68" r="69.17" style="fill: #09d084; stroke: #09d084; stroke-miterlimit: 10;"/>
  <circle cx="332.83" cy="197.58" r="41.46" style="fill: #09d084; stroke: #09d084; stroke-miterlimit: 10;"/>
  <circle cx="541.74" cy="197.58" r="41.46" style="fill: #09d084; stroke: #09d084; stroke-miterlimit: 10;"/>
  <circle cx="232.85" cy="353.18" r="69.17" style="fill: #09d084; stroke: #09d084; stroke-miterlimit: 10;"/>
  <circle cx="640.21" cy="353.18" r="69.17" style="fill: #09d084; stroke: #09d084; stroke-miterlimit: 10;"/>
</svg>