
<svg id="Layer_1" data-name="Layer 1" xmlns="http://www.w3.org/2000/svg" xmlns:xlink="http://www.w3.org/1999/xlink" viewBox="0 0 1020.69 1020.69">
  <defs>
    <linearGradient id="linear-gradient" x1="160.04" y1="372.4" x2="860.65" y2="372.4" gradientUnits="userSpaceOnUse">
      <stop offset="0" stop-color="#05dab4"/>
      <stop offset="1" stop-color="#0acd77"/>
    </linearGradient>
    <linearGradient id="linear-gradient-2" x1="258.99" y1="557.05" x2="761.7" y2="557.05" xlink:href="#linear-gradient"/>
    <linearGradient id="linear-gradient-3" x1="357.32" y1="716.24" x2="663.37" y2="716.24" xlink:href="#linear-gradient"/>
  </defs>
  <circle cx="510.34" cy="510.34" r="489.26" style="fill: none; stroke: #09d086; stroke-linecap: round; stroke-linejoin: round; stroke-width: 42.17px;"/>
  <g>
    <path d="M835.33,386.21c-190.13-149.91-459.85-149.91-649.97,0-27.27,21.46-32.89,56.18-15.01,73.24h0c17.92,17.16,48.58,14.37,70.45-2.74,157.69-124.33,381.39-124.33,539.08,0,21.87,17.11,52.53,19.9,70.45,2.74,0,0,0,0,0,0,17.89-17.06,12.26-51.78-15.01-73.24Z" style="fill: url(#linear-gradient);"/>
    <path d="M738.23,557.97c-134.82-100.55-320.96-100.55-455.78,0-24.81,18.46-30.27,49.09-14.83,63.65h0c15.47,14.67,41.8,12.21,60.82-1.82,107.62-80.26,256.19-80.26,363.8,0,19.02,14.04,45.35,16.49,60.82,1.82t0,0c15.44-14.56,9.98-45.18-14.83-63.65Z" style="fill: url(#linear-gradient-2);"/>
    <path d="M631.93,694.39c-75.03-43.2-168.14-43.2-243.17,0-31.13,17.89-39.43,52.14-23.63,66.27,0,0,0,0,0,0,15.8,14.36,42.12,11.65,62.04,.54,51.33-29.55,115.02-29.55,166.35,0,19.92,11.11,46.24,13.82,62.04-.54,0,0,0,0,0,0,15.8-14.14,7.5-48.38-23.63-66.27Z" style="fill: url(#linear-gradient-3);"/>
  </g>
</svg>