<svg xmlns="http://www.w3.org/2000/svg" xmlns:xlink="http://www.w3.org/1999/xlink" width="26.762" height="21.735" viewBox="0 0 26.762 21.735"><defs><linearGradient id="a" x1="0.5" x2="0.5" y2="1" gradientUnits="objectBoundingBox"><stop offset="0" stop-color="#02ddb7"/><stop offset="1" stop-color="#03d077"/></linearGradient></defs><path d="M24.011,8.8c.017.238.017.475.017.713A15.5,15.5,0,0,1,8.422,25.116,15.5,15.5,0,0,1,0,22.654a11.346,11.346,0,0,0,1.324.068,10.984,10.984,0,0,0,6.809-2.343,5.494,5.494,0,0,1-5.128-3.8,6.917,6.917,0,0,0,1.036.085,5.8,5.8,0,0,0,1.443-.187,5.485,5.485,0,0,1-4.4-5.383v-.068a5.524,5.524,0,0,0,2.479.7,5.493,5.493,0,0,1-1.7-7.336,15.59,15.59,0,0,0,11.309,5.739,6.192,6.192,0,0,1-.136-1.257,5.49,5.49,0,0,1,9.492-3.753,10.8,10.8,0,0,0,3.481-1.324A5.47,5.47,0,0,1,23.6,6.811a11,11,0,0,0,3.158-.849A11.79,11.79,0,0,1,24.011,8.8Z" transform="translate(0 -3.381)" fill="url(#a)"/></svg>