<svg xmlns="http://www.w3.org/2000/svg" xmlns:xlink="http://www.w3.org/1999/xlink" width="22.658" height="22.657" viewBox="0 0 22.658 22.657"><defs><linearGradient id="a" x1="0.5" x2="0.5" y2="1" gradientUnits="objectBoundingBox"><stop offset="0" stop-color="#02ddb7"/><stop offset="1" stop-color="#03d077"/></linearGradient></defs><path d="M5.072,22.658H.374V7.531h4.7ZM2.72,5.467a2.733,2.733,0,1,1,2.72-2.746A2.743,2.743,0,0,1,2.72,5.467ZM22.653,22.658H17.965V15.294c0-1.755-.035-4.006-2.442-4.006-2.442,0-2.817,1.907-2.817,3.879v7.49H8.014V7.531h4.505V9.594h.066A4.936,4.936,0,0,1,17.03,7.152c4.754,0,5.628,3.131,5.628,7.2v8.31Z" transform="translate(0 -0.001)" fill="url(#a)"/></svg>