<svg width="23" height="23" viewBox="0 0 23 23" fill="none" xmlns="http://www.w3.org/2000/svg">
<path d="M6.085 1H16.255C17.6036 1 18.897 1.53574 19.8506 2.48936C20.8043 3.44298 21.34 4.73637 21.34 6.085V16.255C21.34 16.9228 21.2085 17.584 20.9529 18.2009C20.6974 18.8179 20.3228 19.3785 19.8506 19.8506C19.3785 20.3228 18.8179 20.6974 18.2009 20.9529C17.584 21.2085 16.9228 21.34 16.255 21.34H6.085C5.41723 21.34 4.756 21.2085 4.13905 20.9529C3.52211 20.6974 2.96155 20.3228 2.48936 19.8506C2.01718 19.3785 1.64262 18.8179 1.38707 18.2009C1.13153 17.584 1 16.9228 1 16.255V6.085C1 5.41723 1.13153 4.756 1.38707 4.13905C1.64262 3.52211 2.01718 2.96155 2.48936 2.48936C3.44298 1.53574 4.73637 1 6.085 1Z" stroke="url(#paint0_linear_1_8)" stroke-width="2" stroke-linecap="round" stroke-linejoin="round"/>
<path d="M15.7011 10.463C15.8411 11.4084 15.6795 12.3739 15.2393 13.2222C14.799 14.0705 14.1025 14.7583 13.2488 15.188C12.3951 15.6176 11.4276 15.7671 10.4841 15.6152C9.54049 15.4634 8.66882 15.0179 7.99302 14.3421C7.31723 13.6663 6.87171 12.7946 6.71985 11.851C6.56798 10.9074 6.71749 9.94001 7.14712 9.0863C7.57674 8.23259 8.26461 7.53607 9.11288 7.09581C9.96116 6.65555 10.9267 6.49396 11.8721 6.63403C12.8366 6.77694 13.7297 7.22635 14.4192 7.91587C15.1087 8.60539 15.5581 9.49843 15.7011 10.463Z" stroke="url(#paint1_linear_1_8)" stroke-width="2" stroke-linecap="round" stroke-linejoin="round"/>
<defs>
<linearGradient id="paint0_linear_1_8" x1="11.2061" y1="6.58496" x2="11.2061" y2="15.673" gradientUnits="userSpaceOnUse">
<stop stop-color="#02DDB7"/>
<stop offset="1" stop-color="#03D077"/>
</linearGradient>
<linearGradient id="paint1_linear_1_8" x1="11.2061" y1="6.58496" x2="11.2061" y2="15.673" gradientUnits="userSpaceOnUse">
<stop stop-color="#02DDB7"/>
<stop offset="1" stop-color="#03D077"/>
</linearGradient>
</defs>
</svg>
